<mxfile host="Electron" modified="2023-08-22T16:12:02.752Z" agent="Mozilla/5.0 (Windows NT 10.0; Win64; x64) AppleWebKit/537.36 (KHTML, like Gecko) draw.io/21.6.8 Chrome/114.0.5735.289 Electron/25.5.0 Safari/537.36" etag="FkjEgwFukYapJyEecEEy" version="21.6.8" type="device">
  <diagram name="Page-1" id="iTIsgDo80MpEEKx2CAWr">
    <mxGraphModel dx="1050" dy="621" grid="1" gridSize="10" guides="1" tooltips="1" connect="1" arrows="1" fold="1" page="1" pageScale="1" pageWidth="1700" pageHeight="1100" math="0" shadow="0">
      <root>
        <mxCell id="0" />
        <mxCell id="1" parent="0" />
        <mxCell id="9pnh7lvO98Alzu9_AtAS-275" value="" style="rounded=0;whiteSpace=wrap;html=1;" parent="1" vertex="1">
          <mxGeometry x="1090" y="110" width="540" height="280" as="geometry" />
        </mxCell>
        <mxCell id="9pnh7lvO98Alzu9_AtAS-264" value="" style="rounded=1;whiteSpace=wrap;html=1;fillColor=#660017;fontColor=#ffffff;strokeColor=#6F0000;" parent="1" vertex="1">
          <mxGeometry x="1110" y="137.5" width="110" height="235" as="geometry" />
        </mxCell>
        <mxCell id="9pnh7lvO98Alzu9_AtAS-60" value="" style="group;aspect=fixed;" parent="1" vertex="1" connectable="0">
          <mxGeometry x="50" y="20" width="1000" height="650" as="geometry" />
        </mxCell>
        <mxCell id="9pnh7lvO98Alzu9_AtAS-55" value="" style="whiteSpace=wrap;html=1;" parent="9pnh7lvO98Alzu9_AtAS-60" vertex="1">
          <mxGeometry x="50" y="40" width="870" height="534" as="geometry" />
        </mxCell>
        <mxCell id="9pnh7lvO98Alzu9_AtAS-32" value="" style="group;aspect=fixed;" parent="9pnh7lvO98Alzu9_AtAS-60" vertex="1" connectable="0">
          <mxGeometry x="70" y="130" width="259.0899999999999" height="180" as="geometry" />
        </mxCell>
        <mxCell id="9pnh7lvO98Alzu9_AtAS-15" value="" style="rounded=0;whiteSpace=wrap;html=1;" parent="9pnh7lvO98Alzu9_AtAS-32" vertex="1">
          <mxGeometry width="259.09" height="180" as="geometry" />
        </mxCell>
        <mxCell id="9pnh7lvO98Alzu9_AtAS-1" value="" style="endArrow=classic;html=1;rounded=0;strokeWidth=2;" parent="9pnh7lvO98Alzu9_AtAS-32" edge="1">
          <mxGeometry width="50" height="50" relative="1" as="geometry">
            <mxPoint x="11.515111111111082" y="167.4706060606061" as="sourcePoint" />
            <mxPoint x="11.515111111111082" y="40.8039393939394" as="targetPoint" />
          </mxGeometry>
        </mxCell>
        <mxCell id="9pnh7lvO98Alzu9_AtAS-2" value="" style="rounded=0;whiteSpace=wrap;html=1;rotation=90;fillColor=#a20025;fontColor=#ffffff;strokeColor=#6F0000;" parent="9pnh7lvO98Alzu9_AtAS-32" vertex="1">
          <mxGeometry x="1.6236306666666565" y="131.16333333333336" width="54.33980933333332" height="11.515151515151516" as="geometry" />
        </mxCell>
        <mxCell id="9pnh7lvO98Alzu9_AtAS-3" value="" style="rounded=0;whiteSpace=wrap;html=1;rotation=90;fillColor=#a20025;fontColor=#ffffff;strokeColor=#6F0000;" parent="9pnh7lvO98Alzu9_AtAS-32" vertex="1">
          <mxGeometry x="59.01494444444444" y="96.43939393939394" width="123.78744444444443" height="11.515151515151516" as="geometry" />
        </mxCell>
        <mxCell id="9pnh7lvO98Alzu9_AtAS-4" value="" style="rounded=0;whiteSpace=wrap;html=1;rotation=90;fillColor=#a20025;fontColor=#ffffff;strokeColor=#6F0000;" parent="9pnh7lvO98Alzu9_AtAS-32" vertex="1">
          <mxGeometry x="31.666555555555533" y="116.59090909090912" width="83.48455555555554" height="11.515151515151516" as="geometry" />
        </mxCell>
        <mxCell id="9pnh7lvO98Alzu9_AtAS-5" value="" style="rounded=0;whiteSpace=wrap;html=1;rotation=90;fillColor=#a20025;fontColor=#ffffff;strokeColor=#6F0000;" parent="9pnh7lvO98Alzu9_AtAS-32" vertex="1">
          <mxGeometry x="141.0601111111111" y="124.2887878787879" width="69.8103611111111" height="11.515151515151516" as="geometry" />
        </mxCell>
        <mxCell id="9pnh7lvO98Alzu9_AtAS-6" value="" style="rounded=0;whiteSpace=wrap;html=1;rotation=90;fillColor=#a20025;fontColor=#ffffff;strokeColor=#6F0000;" parent="9pnh7lvO98Alzu9_AtAS-32" vertex="1">
          <mxGeometry x="201.5144444444444" y="137.46212121212125" width="43.18166666666666" height="11.515151515151516" as="geometry" />
        </mxCell>
        <mxCell id="9pnh7lvO98Alzu9_AtAS-7" value="" style="endArrow=classic;html=1;rounded=0;" parent="9pnh7lvO98Alzu9_AtAS-32" edge="1">
          <mxGeometry width="50" height="50" relative="1" as="geometry">
            <mxPoint x="11.515111111111082" y="167.4706060606061" as="sourcePoint" />
            <mxPoint x="247.57488888888884" y="166.969696969697" as="targetPoint" />
          </mxGeometry>
        </mxCell>
        <mxCell id="9pnh7lvO98Alzu9_AtAS-8" value="" style="rounded=0;whiteSpace=wrap;html=1;rotation=90;fillColor=#a20025;fontColor=#ffffff;strokeColor=#6F0000;" parent="9pnh7lvO98Alzu9_AtAS-32" vertex="1">
          <mxGeometry x="17.63539266666669" y="125.59000000000003" width="68.37097222222222" height="11.515151515151516" as="geometry" />
        </mxCell>
        <mxCell id="9pnh7lvO98Alzu9_AtAS-9" value="" style="rounded=0;whiteSpace=wrap;html=1;rotation=90;fillColor=#a20025;fontColor=#ffffff;strokeColor=#6F0000;" parent="9pnh7lvO98Alzu9_AtAS-32" vertex="1">
          <mxGeometry x="46.06044444444444" y="107.9545454545455" width="100.75722222222221" height="11.515151515151516" as="geometry" />
        </mxCell>
        <mxCell id="9pnh7lvO98Alzu9_AtAS-10" value="" style="rounded=0;whiteSpace=wrap;html=1;rotation=90;fillColor=#a20025;fontColor=#ffffff;strokeColor=#6F0000;" parent="9pnh7lvO98Alzu9_AtAS-32" vertex="1">
          <mxGeometry x="104.21175555555556" y="112.77363636363634" width="90.6815" height="11.515151515151516" as="geometry" />
        </mxCell>
        <mxCell id="9pnh7lvO98Alzu9_AtAS-11" value="" style="rounded=0;whiteSpace=wrap;html=1;rotation=90;fillColor=#a20025;fontColor=#ffffff;strokeColor=#6F0000;" parent="9pnh7lvO98Alzu9_AtAS-32" vertex="1">
          <mxGeometry x="172.72666666666663" y="130.04636363636365" width="58.29524999999999" height="11.515151515151516" as="geometry" />
        </mxCell>
        <mxCell id="9pnh7lvO98Alzu9_AtAS-34" value="" style="group;aspect=fixed;" parent="9pnh7lvO98Alzu9_AtAS-60" vertex="1" connectable="0">
          <mxGeometry x="640" y="130" width="257.14" height="180" as="geometry" />
        </mxCell>
        <mxCell id="9pnh7lvO98Alzu9_AtAS-16" value="" style="rounded=0;whiteSpace=wrap;html=1;container=0;" parent="9pnh7lvO98Alzu9_AtAS-34" vertex="1">
          <mxGeometry width="257.14" height="180" as="geometry" />
        </mxCell>
        <mxCell id="9pnh7lvO98Alzu9_AtAS-17" value="" style="endArrow=classic;html=1;rounded=0;strokeWidth=2;" parent="9pnh7lvO98Alzu9_AtAS-34" edge="1">
          <mxGeometry width="50" height="50" relative="1" as="geometry">
            <mxPoint x="11.428444444444477" y="166.21142857142857" as="sourcePoint" />
            <mxPoint x="11.428444444444477" y="40.49714285714283" as="targetPoint" />
          </mxGeometry>
        </mxCell>
        <mxCell id="9pnh7lvO98Alzu9_AtAS-18" value="" style="rounded=0;whiteSpace=wrap;html=1;rotation=90;fillColor=#a20025;fontColor=#ffffff;strokeColor=#6F0000;container=0;" parent="9pnh7lvO98Alzu9_AtAS-34" vertex="1">
          <mxGeometry x="23.662594222222236" y="152.22857142857134" width="9.828462222222221" height="11.428571428571425" as="geometry" />
        </mxCell>
        <mxCell id="9pnh7lvO98Alzu9_AtAS-19" value="" style="rounded=0;whiteSpace=wrap;html=1;rotation=90;fillColor=#a20025;fontColor=#ffffff;strokeColor=#6F0000;container=0;" parent="9pnh7lvO98Alzu9_AtAS-34" vertex="1">
          <mxGeometry x="43.57094444444448" y="80.71428571428568" width="152.85544444444443" height="11.428571428571425" as="geometry" />
        </mxCell>
        <mxCell id="9pnh7lvO98Alzu9_AtAS-20" value="" style="rounded=0;whiteSpace=wrap;html=1;rotation=90;fillColor=#a20025;fontColor=#ffffff;strokeColor=#6F0000;container=0;" parent="9pnh7lvO98Alzu9_AtAS-34" vertex="1">
          <mxGeometry x="41.42811111111114" y="125.71428571428568" width="62.85644444444443" height="11.428571428571425" as="geometry" />
        </mxCell>
        <mxCell id="9pnh7lvO98Alzu9_AtAS-21" value="" style="rounded=0;whiteSpace=wrap;html=1;rotation=90;fillColor=#a20025;fontColor=#ffffff;strokeColor=#6F0000;container=0;" parent="9pnh7lvO98Alzu9_AtAS-34" vertex="1">
          <mxGeometry x="152.85544444444437" y="136.21142857142854" width="43.570944444444436" height="11.428571428571425" as="geometry" />
        </mxCell>
        <mxCell id="9pnh7lvO98Alzu9_AtAS-22" value="" style="rounded=0;whiteSpace=wrap;html=1;rotation=90;fillColor=#a20025;fontColor=#ffffff;strokeColor=#6F0000;container=0;" parent="9pnh7lvO98Alzu9_AtAS-34" vertex="1">
          <mxGeometry x="214.28333333333333" y="150.7142857142857" width="14.285555555555556" height="11.428571428571425" as="geometry" />
        </mxCell>
        <mxCell id="9pnh7lvO98Alzu9_AtAS-23" value="" style="endArrow=classic;html=1;rounded=0;" parent="9pnh7lvO98Alzu9_AtAS-34" edge="1">
          <mxGeometry width="50" height="50" relative="1" as="geometry">
            <mxPoint x="11.428444444444477" y="166.21142857142857" as="sourcePoint" />
            <mxPoint x="245.7115555555554" y="165.71428571428564" as="targetPoint" />
          </mxGeometry>
        </mxCell>
        <mxCell id="9pnh7lvO98Alzu9_AtAS-24" value="" style="rounded=0;whiteSpace=wrap;html=1;rotation=90;fillColor=#a20025;fontColor=#ffffff;strokeColor=#6F0000;container=0;" parent="9pnh7lvO98Alzu9_AtAS-34" vertex="1">
          <mxGeometry x="31.611077333333327" y="138.7485714285714" width="39.645273777777774" height="11.428571428571425" as="geometry" />
        </mxCell>
        <mxCell id="9pnh7lvO98Alzu9_AtAS-25" value="" style="rounded=0;whiteSpace=wrap;html=1;rotation=90;fillColor=#a20025;fontColor=#ffffff;strokeColor=#6F0000;container=0;" parent="9pnh7lvO98Alzu9_AtAS-34" vertex="1">
          <mxGeometry x="45.713777777777715" y="107.14285714285708" width="99.9988888888889" height="11.428571428571425" as="geometry" />
        </mxCell>
        <mxCell id="9pnh7lvO98Alzu9_AtAS-26" value="" style="rounded=0;whiteSpace=wrap;html=1;rotation=90;fillColor=#a20025;fontColor=#ffffff;strokeColor=#6F0000;container=0;" parent="9pnh7lvO98Alzu9_AtAS-34" vertex="1">
          <mxGeometry x="108.85593333333333" y="117.35428571428568" width="79.14197777777774" height="11.428571428571425" as="geometry" />
        </mxCell>
        <mxCell id="9pnh7lvO98Alzu9_AtAS-27" value="" style="rounded=0;whiteSpace=wrap;html=1;rotation=90;fillColor=#a20025;fontColor=#ffffff;strokeColor=#6F0000;container=0;" parent="9pnh7lvO98Alzu9_AtAS-34" vertex="1">
          <mxGeometry x="185.7122222222221" y="143.3542857142857" width="29.28538888888888" height="11.428571428571425" as="geometry" />
        </mxCell>
        <mxCell id="9pnh7lvO98Alzu9_AtAS-35" value="&lt;font style=&quot;font-size: 18px;&quot;&gt;Initial probabilities&lt;/font&gt;" style="text;html=1;strokeColor=none;fillColor=none;align=center;verticalAlign=middle;whiteSpace=wrap;rounded=0;" parent="9pnh7lvO98Alzu9_AtAS-60" vertex="1">
          <mxGeometry x="70" y="310" width="260" height="30" as="geometry" />
        </mxCell>
        <mxCell id="9pnh7lvO98Alzu9_AtAS-36" value="&lt;font style=&quot;font-size: 18px;&quot;&gt;Updated probabilities&lt;/font&gt;" style="text;html=1;strokeColor=none;fillColor=none;align=center;verticalAlign=middle;whiteSpace=wrap;rounded=0;" parent="9pnh7lvO98Alzu9_AtAS-60" vertex="1">
          <mxGeometry x="640" y="310" width="257.14" height="30" as="geometry" />
        </mxCell>
        <mxCell id="9pnh7lvO98Alzu9_AtAS-37" value="" style="shape=flexArrow;endArrow=classic;html=1;rounded=0;entryX=0;entryY=0.5;entryDx=0;entryDy=0;exitX=1;exitY=0.5;exitDx=0;exitDy=0;" parent="9pnh7lvO98Alzu9_AtAS-60" source="9pnh7lvO98Alzu9_AtAS-15" target="9pnh7lvO98Alzu9_AtAS-16" edge="1">
          <mxGeometry width="50" height="50" relative="1" as="geometry">
            <mxPoint x="400" y="250" as="sourcePoint" />
            <mxPoint x="450" y="200" as="targetPoint" />
          </mxGeometry>
        </mxCell>
        <mxCell id="9pnh7lvO98Alzu9_AtAS-39" value="&lt;font style=&quot;font-size: 18px;&quot;&gt;Query&lt;/font&gt;" style="rounded=0;whiteSpace=wrap;html=1;" parent="9pnh7lvO98Alzu9_AtAS-60" vertex="1">
          <mxGeometry x="416" y="200" width="120" height="40" as="geometry" />
        </mxCell>
        <mxCell id="9pnh7lvO98Alzu9_AtAS-50" value="" style="group" parent="9pnh7lvO98Alzu9_AtAS-60" vertex="1" connectable="0">
          <mxGeometry x="170" y="280" width="620" height="290" as="geometry" />
        </mxCell>
        <mxCell id="9pnh7lvO98Alzu9_AtAS-45" value="" style="group" parent="9pnh7lvO98Alzu9_AtAS-50" vertex="1" connectable="0">
          <mxGeometry x="1" y="133.5" width="617.5" height="130" as="geometry" />
        </mxCell>
        <mxCell id="9pnh7lvO98Alzu9_AtAS-46" value="" style="rounded=1;whiteSpace=wrap;html=1;fillColor=#00308F;fontColor=#ffffff;strokeColor=#001DBC;" parent="9pnh7lvO98Alzu9_AtAS-45" vertex="1">
          <mxGeometry x="-7.5" y="-10" width="625" height="140" as="geometry" />
        </mxCell>
        <mxCell id="9pnh7lvO98Alzu9_AtAS-40" value="" style="shape=image;verticalLabelPosition=bottom;labelBackgroundColor=default;verticalAlign=top;imageAspect=0;image=data:image/png,iVBORw0KGgoAAAANSUhEUgAAAxwAAAMrCAMAAAD0pmQvAAAABGdBTUEAALGPC/xhBQAAAAFzUkdCAK7OHOkAAAE4UExURWBgYAICAlxcXGRkZF5eXmJiYvv7+////wAAAP39/fn5+ff391paWvX19WZmZlhYWAQEBPPz8wYGBlZWVggICGhoaPHx8Q4ODgoKCu/v71RUVAwMDGpqahAQEBISEmxsbO3t7enp6VBQUFJSUhQUFG5ubuXl5evr6xYWFh4eHnBwcE5OTiAgIHZ2dkxMTHJycnR0dBoaGhgYGOfn5xwcHEhISEpKSt/f33p6euPj43h4eCIiIo+PjyYmJs/Pz0ZGRo2NjX5+fpWVlcvLy6Ojo6enp6urq62trYWFheHh4YuLi8fHx8nJyZ+fn9PT09XV1ampqdvb2z4+Pq+vr4ODg93d3bGxsYeHh0RERLW1tbm5ub29vZGRkXx8fJeXl8XFxZmZmZubm52dnc3NzaGhodHR0dfX1zo6OrTY5p4AACAASURBVHgB7b0Ll9s4liYI8SFCEkUqpFA8FLLDdthtZzpflVmZVVk7j+6e6T7TvT2zvTs7Z19nz8yZ2dn9//9gP1AiRZAU71XmpUOyLyKrBECfQfLifvgAkOI1SWJf2tHCctKSAbq2uz8KKo2zH6zlnB8Dh2bQGJ1kcdIG4bbHNBvMwTIvFzeyd6wWpXHFQe/siO7el9bMJovNJopDQ6Rw880mzoKIgJnVN6s0C7L4U+NeRDmOSV8HhQtdK3n0gjp/aRxsm6UwHnVcaVyEvkLXkv0vjjNm9ZXJ6eMK48LcfAUjk34c5unSJNPldhsHcQR8z18UPtkgyPI+jPsuyu1THOcp2Z40zqZhmEcm7bmG4vwoXGqiPAxTS7RjhHFRnOZx/GRxCb1/4jiTY8SzT2HvUdGvwjiTrtOVNQF1XHFcHBi7wsGJ6zVhaKxJ5vCDfJPGRMpi+xhF0ZqAxWsbPxpDNieOW2TrOAjDDXV+FG4ThkG8zhZUO9K4ODXmMbakfaVxa3Tqo41D6nqlcfCktV2HhjquNM6EOGy8jqjjpiYGOaY2jbMsC4iUhjaMViGBCoLYxvEmM4YCSuOWQRoFJo6o41K4KDZBlAZLqh1pnDEZiG1j6rjSuCBcReha6rCBNC5Oo7U1JqcOLI3LjbHrKCXtHMbZtUmSZRqEZkUxKTI2zeJHEhfbzDxlIclMaRwmJGvMdTLqOihchkbWmBxS7UjjojB7Mhl52Fgat3qMs9Qasr+kcds8iheYzVN2lsZFcbCIo3xLHTda5SMzHi8iuBS1DjRRCreKDblgNIsoWgUBCEokYZwFMdI8DYijguL9uACNwPExqPUnaRyG0FUULfoPim+lcSuobWoxBSeSNA5rrACrWPK40jhMLWyANTFxuWZtzMIkE3hpgOUlkeJoka3MKiNgUbDIQyx6yPakcUvMhYIsTKnzo3BpiBlmGi2pdqRxmIjGYb4IqONK44pOXUQxdVxpHPYBQpsFpJ9I40yQYRKZ5dT1pmmANUdiMXZg04BMFhqIrRQqWQgX9qrIJIzDzACHpI9L4nbNkMqxP5wgzpmNbg4TIFFchN7H0pNM0jgDXsAF6A4TxuGQ2IEiJxgws9utEieHYZJDFkc6/b77SZySo5Mo8uRwXsoYlN1QIIhDUxgKaE4ORA5VDs+72GTDmILBikzOvII4aafntqfK0dfTmM3xpl88HKkI+3MhcWxnRoPYwuu7xOI7dnvOHHRzn8+0SlYRsGRjKYwqR4/HnjU5GFwryCGI44700jhVjh4nRf+qctTtI7zQ5iqMtNNz2+OO9NI4VY660zXyqhy+QbjOLI1T5fD7wS+pcvj2UOXw7VGWmGsJrsKocpSG7fhU5fCNIq0I3PZUOfx+8EuqHL49VDl8e5QlVY7SEh2fzDvppCLsmyZx7K1XNCi9lSu4C8Xd1eKO9NI4VY4OX6+qVDkqUxQZVQ7fHmVJlaO0RMenKodvFEciQYWRVgRue6ocfrf6JVUO3x6qHL49ypIqR2mJjk9VDt8oqhy+PcoS8+ldfSq3NFjH51kvyPXZqnaPqXK0bVLVqHJUpigyqhy+PcqSKkdpifYnqQj7f0LinnMrV5Wj3bGqHG2bVDWqHJUpiowqh2+PsqTKUVqi/Ukqwv6fkDhVjrZxUcPdouXiuM9CSeP02arO7t1VnjU5BO9f6B3ybifQ3apuuxS1Z00OXXO0e07XHG2bVDW65qhMUWR0zeHboyzpmqO0RPuTVIT9PyFxuuZoGxc13LUEFye9luC2p2uOzu7dVZ41OXTN0e45piJwn9XSNUfbxFXNWZND1xxVP1UZXXNUpmhndM3h20TXHL49yhJTYVQ5SoN1fKpy+EbhrhGkcdw1gjRO1xx+/3ulsyaHrjm8vioKTEXQNUfbdFUN6fR7JInT3arKpvWMKkfdGq28vmXdM4k4iWR/4ad3yL3eqgq65qhM0c6ocvg2kVYEbnvSawlue6euOVhxyBG4+QHRmw+xqJf2+tou7NJFdB75YZ1vOWGe8c9Ecbdo8Lp2fscCTRM4XFZxZsf+ea2eFYec3d4I5uAkYRwO6i6YTNI4F4ac5SbSuMXSeS15vdaeEIc8i+5myXw+Tqo0nc2nSTKr1RRfXY+TcbOu+je1jDDu9n2S4HTwX3+icLs23t/642u7VMYh7z9aeU7vbylc4qw2vqZhwribCQ55R3eYNG6Krrqe0ZcrjUvmk5F585dNu0f9mpPikOdrW1zJZJ+mU+dG4zFsO3FkKOsTi6ueTa7K8rFPaZxNxvPJzeE8jh2XwiXJzQRDADsO+bHjlPVle2X52OfVZAbD2cqOnwqXJFe42mNHO9RL46Yghk1m08MRunPSODixXWc5ghH2/50Uhzxa397czyaHIQadmeyYj6s6jAA3X83govtvDtWtnDRulLyCHx5Or3XAfQWJG+P0XyUjKtpoGYf82HGq+n17VflIxpnyavaVs11vksbBYpNXX+06su/A0jh4yM3b5HXfIXffCeMms/ky+v7nb6n+PSkO+fq7B1jwMGtBznFiCu7jIsaHL+w0mdPcAH9lcXZH0MN5HDE7hds1MEGg0/6EsFhFvPIjh6mqy/aqimMZTFoRE/7Yt4d6Ydw0geEYh5XGwXnGjMM6JxPFwZAWkXERXbU/nRSHPE5xKdN5JYOYOk0m43nRaRNMrkpRdIaejGdVuaxvfkrjHsDQe/yveZxmmcJhhLzH/x6okaWMQ95sv1ku22vWN8tYvBVe2qxvlsVxbiCjZ3M4N1mcGzTgKjfN62uWpXGzabI05us3VP+eFId8tbWY1B8GsAS9DoNNMGMFGQ7197eY+c923x5q2zlpnL1H54Ec7SP5NRRud1n3ZPyxMg6533q7VLbX/savGcNoN5Nb8Ls/SeNucLjXd1f9B8W30rhkMn1129rN6TgNaVwyv1tFQeYvv9ul0+KQb9zeQjGH2l3BT389sv/4p9n/858x169vTy3mTqjpJIzDQnuW0H2M0YrCXbkdOEvGqd7HK6cvdNcejYPYzhcMmDBugj59cLsrRBLGuSNiQU4cFB4njUPfZtmGjH9+UhxyvFAcPn9w+z/li39Mxj8sLdZU4zppABuj/8irFsZZHLR+fseOT+KKVsakcmCzo3jL+rHjVPX79qrykYybWycTehYujYPVJm5adeS0DtXSOHTWqOizwyGO5GRxuFpEXm9LRaPmpFDLTXL888JiGvD/2q/eT3z+F07PMLYwjnT6veVJ3DORAxZjkWMAnJKjQQxXPI0cMby55vO4xYi9x+Tf/Rl1niYLKwL24FlKRDr9mZNDWhG47aH7lBy/mxyNaRXuwP+baTL+P/4Jroslx0GWhRVhR45a+0e099LJgStU5eju2wuYVjWU43+zD++ukvv/8T32MTBKHRJzpOcqAhd36eTgjvTSOJBSlUNaOf7pj9b+czGhwr0OZ+AyqXKUlth9FpNRxn0sVQ7fbofS5SlH8l/xOOf/OdltnramVZ6WHC6znhNWGFWOunExXvHJpsohrRxJ8i0edf7J7VRh0VHrGFWOmjGQVeXw7XEoySoCLM3aGsZQIL+Vu19z4NlR6MTfX6HTf7H2rw+XWuaEFUHXHKVhd59cReDiiimx3udoacdpW7nVbhUeJLgaJXgo99/cLm37FqcqR8ObnXjomsM3SlHijfRcReDihlQO/NZh8g/39j+4/dviXkfzqlU5fIswp1XckV4ap8rREo2i4jcpB5YXs+Q/2n8LD/hpcffXh12q0iVUOUpL7D6Z5HDywnl8ZACcLsg7+HEaOcr7HLgdfvUXe/cfJ7O/Hf1/6KpmUuXwLcIkh7QicNtT5ehgBqpOI0e55niN3l4m/+k/vRul//ze/QahkVQ5fIMwyTGAInCVSJWjgx+nkaParXLPfL9K7pMZfg/rPVW1cwpVjt9EDu5IL41T5ehgxm9WDvfbcUcK/Niv8/ewqhy/iRyqHL7ZaiXZXa0hd6tqJ92dVeXw7cKcVkkrArc9VQ5J5fC7vl1S5fBtwiSHKodvtlpJlaNmDD/LVCJ9tso3myqHb4+qNMi0qtytqo5yJKPK4RtGlcO3x6EkqwjncIf8cG1HcsyRnvvMFBenyuH3hyqHb4+qpMpRmaKVIUm0H+m7l2m1WuEXLOiao9VVZYWswgxCjvIOeXnKxz5VOXzLMKdV3JFeGqe7VbUBr5Y97SagrjlqpkNWlcMfBMoS92e33DWCNE6Vo+yp9ue5TqukFYHbniqHP+aVJVWONncwTrn/Pv1L3dxB9ancrg5h/sKPqzCqHJ1GLipVORq24U6DpHFcZ5bGDUIOXXOUirv71DVHg2X7IpdE0k7PbW8Qcuhu1aDk4K4RpHG65vC7tSzpmqNr7NM1R5dVMC7jT/JFDNyRXhqnytHdv65W1xwN20g7Pbc9aafntjcIOXTNUSru7lPXHA2W7YufEznmk+sgjWPX1b0p37rYEbxwZjP3ihIiQaITSdzSxeTFr6+Iw04oHJpAQ1OExiJSFMVhvhpRxyvbI3F4Zf08Wc4/Nc69j+8K4R6p48rjxpOXePsZlfDGQFEc3kH4kK22OdG7ZpvmI4OJxltGxHJrFy+L0OYjIrng69fX15aAjcRxL12Qe0a8eQqHJm4RoJ1MSxfo/RsS5k6J1R4sDCQnerwobmlHtxyzSeOKvnrhvIBKMKAoDodktfdHa25mizSIYzIMVLaysXnMfuiPwRkE4fWb9SbcZJ8a54TIKQeVSByaQENk2LNVFGYI5P5AHc+dkmuPxBWAjpfkdf5DORyiq7jw52SSx805h8UugCwOF7o0+Tanwtq9i6MFlOMhDMMopWTGfGvfBd9lT3Ec9v4Zu43fRWH0qXGIpncDP5yPiUThXBt4p+OCskcWrYJ368ASh3Pxdov2KNz46r7YDvrUODegTO093tHXn6RxsMsUFL/qP+rY2U8U5waqr9P1iurfOF9ZgyclVrmJyeiaq/jWBGFGKkzwTZrGQZZSzJTGLX7FCI0X+VJDIIWbulaSX0lyxHGA0ScmlaNsjzovfP9XTIERxf3kToyxRSuNS+b3LOUQx72aP3xMESuWSlF8ZybjJZQgIJXj6419TH/4hYw0uLV5mAYReXRpHKLEInQnHlAiEoVDE8lrvOmUst0qzkKz2pDKUbZHnBZijroxcjH95DhsBIzvOMohi3uFq11iPU5drzTODQWZCydLpDgIoBwTmwcRuVllVtkyCDZbLE/60+pt9vTnVbbqR8WxNA4/I0mSV6RwuB8W9uOm6A4YhbAdvk7Bj/UdwP1p314/qPh2Ph8/uE0hKoni7nG0ycILItF5fGlcMp7PLCc2tjBunCDG/Prnb6n+zdN4YSazEcZAmh1hZLE0MeBRfwotdobziJx+SeNsMneBdKbU1iCFc/S6whqQNJ4xQRzlljpe2R6FG7tlu5touPsEPX/SOExG3Z1v8rjSuKmb/NNHnZyK6zFdYVaY2abrmNzKDeMYygE/iLGAppzBmCLmB42zUQyvYTQniyPvfKP/XSJxUBZMzkhySP/YSfqZKW57hccw1hziOJiZFWxGGjfEHXI+OQyTHLI40ul33DhbcjhG6u859p3kf8iS6HnJIasIhqlEl04O7kgvjRNXBDev4SiRtCJw23tecsgqgsGsjzNNu3RyqHL4clErqXIcXaSoctT8BMMjc/rFxalydHveSb/n0DVHw4huzyEybp+nP+0X+P0gfMt0+gFwvGkQd7rExXGnQdK4551W6ZrDIwKTHNyRXhqnytEY9PZFVQ7Pi/eFZ9rKHUARuLtfqhwd/BiIHKocHudUOTxz1AqyC23u9Ot5p1W83SXuLhQXp7tVNbdzWf4aRpVDlWPnPCSJnmlaJb2W4Lana44OZqBqoGmVKoc3hjOnVSeM9Ny1BBenytHBj4HIoWuO30IO7kgvjVPl6GCGKofnwofCM02rVDkOXdDIyS7cn3dBrsrhdS5zWiWtCNz2VDlUOSp/PdcFuSpH1UXNjCpHN39Rq89Wec7CVQQuTpWj2/MGWpDrbpXvzcUtB84zWNzdJWmc7lZ18GMgcuia47eQgzvSS+NUOTqYgaqByKHK8VvIoWsOz2r1gq45uvmLWl1z1B1Ff8/hWcMr8Ej0vFu5qhx+l+maw7PHocBzZu4DhVzc85JD1xyH/kdO73N45qgVvkRyqHLUHIBNDl1zeFarF2RJpMpRt62fP9ebgNK7UNz2dLeqe7Wru1U+b3YlfbaqyypOAWXvh3DXCNI4VY7u/nW1qhwN20g7Pbc9aafntve85NA1h+d+zAW5rjk8q9ULuubonvnpfY66l7g8dy3BxYlPl1Q5jroybtqpcngOrcrhmaNWkFWEy5hW6X2OmgOgy9x/Y/LBQ+5IL41T5ege6HW3yvPifUF3q7qs4hj+5e1WceOQb38ZmacfAjLwRmyj7RuTkeHRpHFUfPEyeAyFc9FfNQ55aa3Dpws5JRuvXDa+ODde+TBxyB/s3Z39QAWNti5Y+Y929OlxVHzx8owoHDduuMYhLy3qfXLjlX9eccgRG/IqeYXdkv6U2KvkHqNMPwozZ2EcJvUIpIVhn0gkDk24iFz9wd2iSOOQdxuaH69cNr44N145zlo+DnlWvFB8jBl5f0KIUKR/6AfhW2ncQuOQ+4FZmXHNpeOLc9tzs9fPJg75d9mLewypZFD1q9vpjbtwv6faJWkcFV+8ZCuFK+OGd+9hHGo1DnlpUf+TG69cPL44N675EHHIsy0ieGOpSibMW6aYfpFJGEfFFy/pSeGwJ6NxyEtj1T6xHBeNVw4P+XzikOfbRTIFN6i1xBxOj0SGPJbGkfHF92wlcRqHfG8p/6NYRwrGK/+s4pDHkXtkDwtpIk1eXo2TOQlLpHFUfPGS1BSujBt+mEB15xDIWuOQu3sfzT9mXPNT44u3jtM4btleo7r1zwaJQ44IX/B42ukTwByLCA5hP0gWRz5tuz8hEldcpcYhb/Wf8zpOlFguDs702cQhP40cDBYV5JDDkU5/5uSAJaTfR8VtT9bpv0hyxKoc3gRLOGCm9DNT3PZASiWH17G7wknPVqlyNCwoTA5VjtZErqyQnX5hKIjh+VQ6jRyqHL49hcnBHemlcaocfreWpdPIcdKCHCankq45fAvpmsO3x6GkynGwRSPH3NW69AW5tCJw21PlKLXC/1TlaPCwKD7TVq6uObo6Y9cjolu+uuY4amh9+0jTNLpb5UvGvqTK0XQUV1bl6LKKs4vslu9ndRNQd6v8EUZ3q34fiT4rcuhu1aDk0DVHN9ecluua45htdLfKswx3F4qLE58ucadf0k7PbW+QBbkqhyqHPnjo+0BZinTNUZpi96lrDk/RqoIqR2WKdkb4zvfu0XaIP5Eu/SagrjmOdrCuOY6aRtccnmm4awkuTtcc/oSgLOl9Ds/t9gW9z9FlFSx38adrjpI7/qeuOXx7GF1z/D4ScXeXpHG6W9Xdb66WXJuocnQbT5WjMTrWiqocNWO4rCrH7yORtCJw21Pl6O43V6vK0bCNtCJw2+M6szRuEHLofQ5fOlQ5GizbF79Icugd8kHJofc5urmGWr3PcdQ0ep/DMw33/gUXJ75Fq8rh9Zdf0Dvkvj32u19+ZUdJf0PeYZSiSpXjmGW4b0YkF9r7A5C4Z9rK5Y700jhVDn+2XJb0DnkXI5+JHLrm6OqMok6V46hpdM3hmUaVwzNHvcAj0SBbubpbVSru7lN4K1eVo+7nXp7n9NxdrUHIofc5BiWHtCJw29M1h9+tZUnXHN4AtS/omqPLKhiX8ffFPZU7GUVxGLlJQm+Kcov4L5ywZ25PEvFYqVSsJeRwOLsEAUxu6MP2426S2RThRWyvMfBlGAdpFka7OFY9By3b64HsvprxQhAg3jZCLpKHLeIHTZMR2WG42JvJCCMCkbg4dMBkMiIac18jsLlF6EgSKY1DENuc4e9BYEZmPl7kaQg0kda7aLIuuFNvmltEnGWFR5PFwV3eu2iEvSeHLymcO3c0RIZazjGkxE/pC+p4ZXskzp372M4p3Nw1iCfEKBzG+V+d+1G4K+edCJQohUNr0+mCjHo3eQU+LqFGVJLGgZQvTPDuO8Ldo20QLA0s89KLsn608I21S2tHVLqzI3v76XF2Yf8Hi/+jTo/C4Xs0hP8j0g7xR87xivbI84LRRvaOgo2u0Ql39po+rt31K9Xgi/11SuGWdoEmF1Rzo7fuuA/0BUvjist9sH/YX3bPx4/WTJO7NI1DahZhskeMudOkFl+0O4tRaO6G3u5vD7XSOJzdjQvUfjhCd47CoYkJpgbktCqC7oZ5etd9lENt2d6hpjvn9MqFre/+9lB7hcF2lth31Mi3Xme/rEObUbhNujbv7NcULOLi0m385p1NZocz7s7dO8GCrbu/PdRK43DYRbT680fK4bPVamFmVzZeh+hpIm3ihwmi7ZKLhKs7TP4djYgkjbsb39DzV5wTB4em7ghzIFpmHIXRBlyjk2uPQjmDTSZ3xSynHzvFom6Zh5jV9f0F5uM2evMjxr3ev3ibZ+vvXv5rN0ns+2Pj4jjNsheMrpghZiqCDvdfK74Vxs2m02W8fiKj16yz2JpkYtMoTTP8eKf3b53b+zEjSmzy8qdXCcdPhXFY3M2wCiXJS+Fmk7lbktt+a5goXYebPHx8SXVu2R6FS8Y3yaufXpAwrMYxLH+1CYiU/7CO89BSuCg369Xq4Z0hmuPiglW8Tv/3uytycAQt3tvE6UJ/ksa59X3w+HHd6+zo/O/SbGGms0W2jtOUHCmLjRma6eNiLC3Uo/eqpXE4LPyG7BNMXAgcmnDbQZQ9NvE6DlOGcuzb6zUGvtxZDE9+UcnFFL6325hKeWq+Du23FOyH9E38gw0hhP2Ji8vy1beZpfvBSUbhKsT1DoCzWUwKh1kjtrgZY82RGxodhRZjahGKvHeDAVc8naGne0H4Uhp3/d459YTcdaFw2EMDN95fU+QIg1WaxWZJXWfZHoVzSwkIFmk3sGcG49Fb78akafBiRV1HHm3NZhmR02ouLsoCky+TK/J6MV8a3eNaiOTmVaK4yXiUvfkeYeT7U5amC7dbZdzsuR/qfjKNGxPYHyTT7lkoErZ/2lYMRz5tuz8SiSuukhOHHKMPjEJewL49CofhghcaGezgkMNEcRAbUgBxCQgfScP4uNDdW6autvhe9rEQmIX1wmkYTz5g5mnkoFnEfKDwS3lkHR4vTw7MDKik5Oi20GmPj5z2bBU9dAgrDKkI+zMicWzlgFFVOVqehUmIKsdR7xdWBFWOhqVPmVapcjSMh+Ig0ypVDn+UdKs0VQ7fJs4kqhxtQlY1qhyVKYoMc0Guaw7fbLUSb6H9rAtyVQ5/lFTl8O2xL6ly1Gjdyqpy+CZR5fDtcSjJKoIqx8GyzRy5C7X/ByROd6u6FYF7P0TXHE3XrJVVOWrGQFaVw7fHoaTKcbBFI7cjUaOyo8jEkYqwb5rEqXKocsACp90E1DvkvtMIL8h1t6pjYNxVySqM3uc4auizDUGgz1Yd7bMLIIcqhyoH/ajWF3oTUO9zDEoOVQ5VjoMFhHe1yIX2/sgk7pkW5LrmOLhGI3cB0ypVDlUOnVb5PlCWTvyxE8ZfIqly+AbS33P49jiUVDkOtmjk9D6Hb5BTHlnXXwL6tnOlQbZydbeqFNHdp97n8O2xL32ZDx7qmsN3BmFy6G5Ve5Df11zAtEqVY1By6G7VJZNDlWNQcqhyXDI5VDkGJYcqxyWTQ5VjUHKoclwyOVQ5BiWHKsclk0OVY1ByqHJcMjlUOQYlhyrHJZNDlWNQcqhyXDI5VDkGJYcqxyWTQ5VjUHKoclwyOVQ5BiWHKsc5kkPjkHu9UsYN95nQLj1fHPI5guuMyEhcCC2wyTKbtc/cr0FIwBAP75Khjri4cB3F6QMjtCGeLtY45Eci90jHK0e8lPcu7NmRw1XVFM5FTkNDZxuHHEyeTe7v6MDxoQny9EVOhYkN0jSN/hCJ4d4gaI55mJKByKXji3Pb0zjkPVGwLz0OuYvezQqjPUKw8jsXEb4/XcNWCxdgnkhcHAJ8f3CB0nu6oPhKOr44t73iMlkG1Djkh4DX+5wLLHjjYsER6bnikEM5rsaJJQPHB3EarfIfyZiAaWCC1R9yMiYgF/f0aN4gZP1Vy7CNintciMYhhxG6ksYh963i4q/y4pDfJzeJXRPcdbFD8ji1tNNj3hXYlFxzpExcED2Zx+sxHU5WOL44N165xiH3/c4rXXoccjAjSX66g6/C/Xv+gtwE36/t9xQui9P40WZrNq7voPhuG+KN09bpQn+Sji/Obc/tA2gc8iN9gwV5f7xyjHnnHId8ih0DN62ihnqEgY7MypLTKizbg4je/DJcXGAgMZberXJv4OAEnR0Ap3HIq+2pRubS45DDWZhbuWmWrr4iyRGZdfjm7UeKa2AaDxes4zRYMuLVS8cX57ancciPyIYbrdBvRVyAY5Di288kDrkGzGz3sr59pG2TskaOHFgSCwbM1DvkZQ+1Pi/gBQv6bJW/QaRvH/HtsS99ma/m0WerfGcQJocqR0sxygpVjtISrU9946FvEuxFYtrsqNmf8BhHrG889G3nSrrmaNukrNE1h88pPKAYxeTzAG55xcR9kQEzdc3R9CrRBbn+nqMcvlqfFzCt0jXHoOTQNUeLFGXFBZBDlWNQcqhylFxofV4AOVQ5BiWHKkeLFGXFBZBDlWNQcqhylFxofV4AOVQ5BiWHKkeLFGXFBZBDlWNQcqhylFxofV4AOVQ5BiWHKkeLFGXFBZBDlWNQcqhylFxofV4AOVQ5BiWHKkeLFGXFBZBDlWNQcqhylFxofV4AOVQ5BiWHKkeLFGXFBZBDlWNQcqhylFxofV4AOVQ5BiWHKkeLFGXFBZBDlWNQcqhylFxofV4AOVQ5BiWHKkeLFGXFBZBDlWNQcqhylFxoiKjiIAAAIABJREFUfV4AOVQ5BiWHKkeLFGXFBZBDlWNQcqhylFxofV4AOVQ5BiWHKkeLFGXFBZBDlWNQcqhylFxofV4AOVQ5BiWHKkeLFGXFBZBDlWNQcqhylFxofV4AOVQ5BiWHKkeLFGXFBZBDlWNQcqhylFxofV4AOVQ5BiWHKkeLFGXFM5Jjal2YXTJ4SWzuZogDU57w8c/RZIbXudJJGGcR78iFdaESjUMjCJ3kM6FdSsMYIZHia+p4xUmhPRqXjGeTEQ1DNOnk/R0Z6y9K4zQL6TjkscmDtQ3Jd+9ycWFqstViRl+HC5/l4lpTSRqHd+Wa7ImMz55G4cJMp9fZdm0CKiZcvkb/wv8aQUFbxcINJrOb1heNCmmcTSaIA0ufH4VzbxqeF29q7gm4hzfHRukq+PoxsI3LahXL9lpfNCpuZm7gAXWJBLIhppjNiLMzcYx44KlN3an2/eXZuzWio4V9GPcdF7cKHdmSGXEZY+dL8KibT467x1u408cN5e9bRDY0STJ6esI4BGMSaTFJJjNybJ68nM4RgYpM0ri7SUFd8rgkzg0AyeSOMEachSZIn/I78oD79kgcjDafviSl2Y0AV8mI7K8csf6C4G1EXUeaBkH6IRXDxdsoD18gfCWRoBnTF7ANlaRx6F27Jq8WI8sqXYIc9g8jIkC7+3ppEQb92j4woCMEaeckWdwLF5Ae8eapROAWMMatfUG1gu+XONY3JI7f3p3l9MM1euGFfUkeFx32cH1HXwiMhk59WFINcnFwkA92AU/hpLdAcpIoDqf2wDm/P1gzSe5WGye8RApCN22e0powwhD4mhoP8L0wDmf3PknuyQOTODSBhsg1B+YhUfTmaUkecN8eiYPRZjAKldAB8ykjDnluVtFq88cN0a0mT03w5o9vUinc5ofs6ZGxmLjBhY5cYFwiSeOgRPZd/j0ZSNQ8bRbmarqM4nUWo6t7U5At5nNyUoVJ5AIXXMwo+69aGrf4UxEJkzxDCocGMEH706LXGPgyyFfRu7VZ9F9lsRwv2qNwO6MtnC/0punYjQD2iTo/gzV2kL9wmy29CVHIw831hux/Li5aPz1FD72XsPtycnV1fUWTI5HG3c8fPr75nrTL96FZYFq1wGIc+y5EwuIOFzUdNyIXt4rFQhv7Va0vGhXSOHjp5BUm5FQiccn81QRGIcwRY9ERBKuVpY6H5X3RHoXDXhXsi+0CIrlOmEzsljo/dCo0wZL9ihVHYEbYriQSF5eH221sZzjH/nQPzYBHfXIcrGy32yAnLjfOVymmVXNrwhimJFL4dIsRi956u7q9gm+5ju5P0ji3QeI8q/+orkP6ca4J+KklzBHlcRiFYUzOg8r2qPNyJpvAKBRuPAfw/i2pHKEJERIce7REcpta2Mp1k8TexMVtV0H88QV5Ge4yXy2wtcBIsrjJ2G62+bb3YvFlGIZut8oioBW9z42ownA80vfQnNs2op1UGkeGM9v3AokrrpIThxyzdMFQy46TycSpM5Ew4hY7zdQiwcUE1DjkbWPCeAjgRlnPADIUORgsKkgkhyOdfm8mEvdM5IAllBxtV3Y1z3iHnKscpz1bRUuMsMKQTn/m5BhEOTSabJtuqhxtm5Q1JIlUOTqnHBpNttMsu0rE4y3cpnSyo5/CisBdm5BOvz9hEvdM5FDlOOpRFzCtOmlBLreW2JGDbo90+jMnh645Lpkcqhy+rrpnCs59t0rXHG3G6ZqjbZOyhlSYZ5pWqXKUPdT6vIBplSqHKgf5xBnENHR3CFoO3lUh6/TcLV9Vjq6+2NWpcjQ5jltiHKfHrWIW7oskhypH06t0zeFbpCipchwfmPePj9C7S9xdKC6OVIT9OZM4XXN0uLwbB1Q5Og3jKvU+R8M0ulvVMMiuqMqhyuGGUtFple5WHXUq2YX7IAtyXXP4I6UwOfQO+SWTQ++QD0oOVY5LJocqx6DkUOW4ZHKocgxKDlWOSyaHKseg5FDluGRyqHIMSg5VjksmhyrHoORQ5bhkcqhyDEoOVY5LJocqx6DkUOW4ZHKocgxKDlWOSyaHKseg5FDluGRyqHIMSg5VjksmhyrHoORQ5bhkcqhyDEoOVY5LJocqx6DkUOW4ZHKocgxKDlWOSyaHKseg5FDluGRyqHIMSg5VjnMkx2cTh9xFf0HwCiIheE0/bow3LCB4jc+EdknjkLdt4mo0DnlP8OginNmzxCFPipCFPadWfIX3jfXiwC33ve0N3o0fkGsccmeE9p/GIe8ZnaXji3PbW74uTgqy0J8o3K6B10sqZpzGIT9iIY1D3hs8Wja+OIKLs+Kaf3DhpRlIAndXNAMQmTQOeZeJNA553+AsHF+cG6/cxt8GT1lmjoxnVTWFM1n2FHxLv/hS45B3rzk0DnkPOaTji3Pbu32Tm8c4CmLT/7fH4QV+3X8IOv1o8je3VLRRjUN+xEIah/x4jOliQf4cccjDbRBsyMjC0YLChZsg2IYah7zS2l1G45AfGQxc9dnHIcf7B7erLGj0aauIPdpeXJCttnhfm8Yhb/iCxiHvnkYWtWcfhxy7irt3dPZcBL6yFG7/JsP+VvaHOvfIThqHvL0AGOR1oOd+h9w5few8uz8V5OjD7ZogbwLuOUaHadm/tb3dS40ajUPeMEhV1HflVqZoZpjRaUlF2HOGxH1OyqExAZvehKcjEotgCv0jKL518akMbgZjwA3JIfe0aRVOgUqF08vhSKc/c3Los1VHHUaV46hpVDl80+DxMQx+5GCGoQ/b2pzZITMojQavOa42qhwN2+ynX77ndpR0zdFhlKJKVhEwZozGjJnIINOqc/89B7ULdebTKv09xzEOMZ3+WclxCbtVBUEaI3yjSK5NnmlBrmuOSyaHKodPM+FplSrHJZNDlWNQcqhyXDI5VDkGJYcqxyWTQ5VjUHKoclwyOVQ5BiWHKsclk0OVY1ByqHJcMjlUOQYlhyrHJZNDlWNQcqhyXDI5VDkGJYcqxyWTQ5VjUHKoclwyOVQ5BiWHKsclk0OVY1ByqHJcMjlUOQYlhyrHJZNDlWNQcqhyXDI5VDkGJYcqxyWTQ5VjUHKoclwyOVQ5BiWHKsclk0OVY1ByqHJcMjlUOQYlhyrHJZNDlWNQcqhyXDI5VDkGJYcqxyWTQ5VjUHKoclwyOVQ5BiWHKsclk0OVY1ByqHKcITkmc2vCOGiEKmkXv7TgNa2oN42KMsjN0S7df4EYWMkYcc0pXBEe/er2isRNk+QKLwqnkgmjINw8pBQuiMIgengKxXCxSdf01brLfLXAlTCSLG4ytpttvm17uF8ThqF7y/oCzEAkPCKZ1F3xdHw84Nnum88l7Jlvqo7SPjwaZY9JMn+F1+UuKJxjEN54n5C42TSZJpaM7xbnWRz8YLOOM/eqsr98DDMbpl5lR4GLW6/DaGuTGXUd93ghNjxq+qlxsLLdboOccPc4X6XWXE2XUbzO4g57eFVptpgX0e0JqnMDXErjqECY+/CYhsJhJC0CZnaH0zzUljjCHMncvRR9/KcFhRsn7m9xQ+HAnvF08tXmcCadObN6t1rn5sXTkbig1T96E2Xmlx/Td1VF9z8wXNwv0TravIC8UWlydXV9hUumkjTufv7w8c33uefcHYXvQ7Mwk+RutYnol8xGYaEcuxj2fRf0mYRapkaWMiRznymK7+6T5H0xSFLI15hZjSgQxtp5Mr5CTJX+FG7Dp/yHX+xjPyyOv36zXn9tv6NiKYZMXPyXaJP+YDEkEMmNAqMpTQ5pHGhr3+Xfr/wFZEfpabNwwWv+MOqKtt6oW9q31l5bxGAn08jekRgHkMV9sO7k7lzDvelDP+6u+BogIt0xcQsY99a+IFpzX9/BIJy0BAh9QaXR6KW9W1Co3TFf0t1anBsDBydZ2OUdedwC8NbSJ+iAorhr13P4Pyr9wa05Rk9PAcLpkWkxSSYzckiYvMTQRutLIo1bvi6GKvLIFG7XwOslMfDtL5HGubERYSPuqPYStDifvqQjYqEhrDno6UixekGfEcl16MSSZnPTQxaumFC5SQaRgJu+YFyFNA69YdeUToILwSpdmun0OtuuDbldlbstCNfRRCoW5JPZDQEbS+NwdsWSiDouhUOfunYs1Q4fhyU5AqZQ7d3MnB9b0r44OfQCjbtJMJ9j4HByxV4adX5sXPJ67vqWbK+4iuTmk+PuERYreNx0LDO8qm2MULzJ1LrFSfcyrFYbmzu3AwGDE2k0mTEGBAiWLA4bJBja6COTuDGukbP1ysW5MXc3FBCGw37VhLPmQIM3b+k9UAy58wSxjoiE6QBcAP9HJC7OHXDyQJ+eM4uFBpJJGoeBymRPWc21O/ci0igs1hy8gJnnfoe8CHlF9rGbkADUgyu+HWPsI5IwjnuHHIfFFTBOjxu62Xk9gxxA8XGjPgNXduWFKUNnscKZcXG4ii8vmizl9Ps+OVdywJ2knZ7V3klOL0kirjNL4wYhhypHNeQVGVUO3x5liasw0k7PbW8Qcpz7s1WqHKV77j6ZSqTK0XGPA1VYhbutXNxQikIyrnWkytF0PjcTYkz+MaQxcJ/VmoMz/eKO9NI4VQ7fj+slXXPUrYE8dxokjZN2em57g5BDlcP3Kl1z+PYoS1wScZ1ZGjcIOXTNUXb/7lOYHG7uJbxFy2pPlUPXHJVjn+u0StccVRc1M3qfo2mRqmzdkIrxjUik0+//PYmTVwQnCpyFO2uk55KIq0SqHKocFbXOlRxcpwd3pUmEWTg9+IiTSHotwW1P1xwVF1qZcyUHd6TnkojbnrjTf5ELct2t8okmPP3iOr0qh98NtRJvbaLKUTNZI6vK0TAId6SXxnGnQdK4QcihyuF7lSqHb4+yxCWRtNNz2xuEHHqfo+z+3acwObhrBO70i9uerjl0t6py7HOdVnGdXtccVVc2M7rmaFqkLJNOvweSOHlFcIO43ucoO+rwyXNm7nSJixtkWqVrjkO3upwwiVQ5fPPWSrIkGoQcuuao9Zc8ObhrBC6JuO0BB3fB/6gkjeOO9NK4QcihyuG7jyqHb4+yxCWRtNNz2xuEHKocZffvPoXJwR3pVTn8bqiVeNOvQcihylHrB2SFycF1ehxWn63ye6IsPSM5VDnKTth9CpNDlcM3b63Ec/pnnVapctT6C1lhcqhy+OatlS6AHKoctf6SJ4cqh2/eWukCyKHKUesveXKocvjmrZUugByqHLX+kieHKodv3lrpAsihylHrL3lyqHL45q2VLoAcqhy1/pInhyqHb95a6QLIocpR6y95cqhy+OatlS6AHKoctf6SJ4cqh2/eWun5yPHZxCFPEDOHEV0HwWt6ca4JTtxwaVwRe4cTh9zF6BHE4XZNcrWgw55J43BY2fji3Pa+yDjk8JlXczKM9wQxj/txzLjh3PjiXBw7Djk3XjkXN0EUJjsl44GDkaI4jUNe08ZmVjoO+eJPEAQX6YtIFA4NQDrouOHSOG4ccmncK9jr/ZKMjpZI40A2jUN+1FeF45Xjp3bvkyJI5NEjFl+QuHtm3HBpXMKMQy6Nc3EUlzc0O4RxN+gNjUN+PNyzbBzyFwj3bUd0XGsCx40bLo3jxyHnxivn4VxUc7so/v94T+EbaVxxMNH44miR1d4XGIf8DpMh9zQ3lUhc0Qojbrg0jh2HnBuvnIdDGOhkcktHf5XGSccX57YHH/kS45BPsBzHpRMJvwjtxbklByduuDSOG4dcGoe40lP8TJa0mzgOgwsOq3HIO0dz8TjksDa5HHcdQuHQCCtuuDSOGYccZ8eKV87ETd2IsqQDgkvjNA55Jyv2lUVoAdxUoBITR75ypzxssanVc1h8xXyVjiiOfYfcTR/PPQ4554UNMLNofHFue4P8TFbvkPs0licRy+kdIznkOAEHdwGaStwXJ3BxXGeWxg1CDn22yncfYXKocvjmrZVkFWYQcqhy1PoLWWFynDDSq3L4PVGWeCQahByqHGUn7D6FyaHK4Zu3VuI5PXf6NQg5VDlq/YWsMDlUOXzz1koXQA5Vjlp/yZNDlcM3b610AeRQ5aj1lzw5VDl889ZKF0AOVY5af8mTQ5XDN2+tdAHkUOWo9Zc8OVQ5fPPWShdADlWOWn/Jk0OVwzdvrXQB5FDlqPWXPDlUOXzz1koXQA5Vjlp/yZNDlcM3b610AeRQ5aj1lzw5VDl889ZKF0AOVY5af8mTQ5XDN2+tdAHkUOWo9Zc8OVQ5fPPWShdADlWOWn/Jk0OVwzdvrXQB5FDlqPWXPDlUOXzz1koXQA5Vjlp/yZNDlcM3b610AeRQ5aj1lzw5VDl889ZKF0AOVY5af8mTQ5XDN2+tdAHkUOWo9Zc8OVQ5fPPWShdADlWOWn/Jk0OVwzdvrXQB5FDlqPWXPDlUOXzz1koXQA5Vjlp/yZNDlcM3b610AeRQ5aj1lzw5VDl889ZKF0AOVY5af8mTQ5XDN2+tdAHkUOWo9Zc8OVQ5fPPWShdADlWOWn/Jk0OVwzdvrXQB5FDlqPWXPDlUOXzz1koXQA5Vjlp/yZNDlcM3b610AeRQ5aj1lzw5VDl889ZKz0eOcXKX5iaODZGi0CIkEt5hTKTxCIFQbmqXdiQ7XSCITMIImsLEIRYOzo5ODNw44UWHEcbdwBijMWFevOB/UoRiksJdIdzaxFKtTRBoWRaHSFHJ6B6WJpI4bjIeZW++zwl3N1maLsx0tsjWcZpS4CBCkKpkijfEEsm+AmY8J64Zr/O9QogimmxcnDs7cJI0NoVDuHpHbdJdpHFzMHvyyp1df8L0CwmheojExZXhzIjm8PUuPJoUzl0GfbXFK4mlcTajtcCs48gaDBtplKZZZPr/1rm9HzPCik1v0W83NIdurpMrBDmEj/UnLs7e4OSmdOBHEufOan5D95s0bgJOjm9xcCKNb5JXP70gQPiaiQMMYc9+IntWGodh9r1lhMaWxsE7bfD4cd3v7VH0XZotzOzKxuswCCjl2MQPk8RpK5GmdnyP+Q09PXDu957SF4x/TNwoSa7Qw6RyUDhc4BwUG1FnJo2DyZL7sSXJ4QCTyR05CnBxaG169ZLo1OJrYRxmaS85MxFh3Gw6XcbrJ2oZEa+z2Jop1hxpHFLcMNkjvHRKBh0tQk3OMDOhnAth7aY/FR1NIJm40Wuc3hRhHYlE4YpGktckOcRxN27gQThPImFEQaxJSZwbS7GaJBKkSBR3j77HYSfEYTHSyuLQ3CJa/fkj5fDZarUwOPTL3ujs1ZffFJHaR0SyI8R8tw+WgI0QUN1+A6QY7l9adyHXZHsEDiHc0cy/JM9LGgeTLSyMR56/vQXqjoKhF7i4xZ29ZvSXlcWh+y2umbwQaVzhzg/2D5VbH838aM18vMjTMIyotDZufsNYQC/Sd28eP5INGpvHv6zTNXVcLs4G4TrfmJRqj8KlZpNjmmmpdqRx4cfHN+/SBal8Tr4nY0tveHBx2IdKrmf0NFgY57Ztlm7vjUjSOLjwCxO8+47q320QLLEgH0UxXJmSmSh3GzjklBhClAXrIDIx8Rcttuk6jbFL1o/k4m7zNAuiLbbo+tujcPk2CrI0v6XaORnXf1qxiWC2zA1ARHI71oxQy5iksXBFjyLmMZWkcTg7TA6n9IGlcZiT5gx/xyp85KZVJo5Cmhzsm4DY9kKLFNmMjeIgjqiFkeHibHFAxmEpnGsiwmKMSsI4Z4moUOd+N5W+k46bj27Tg95elMZhJ+ALjEPOJYdx5KBcEOTg4aw7bPG//iZJ3K4ZJjlwdlRitsclxwB30pUcHX2I/sB9Dq5ysJ+t4pKjUI6O02pU7RSmUdkukk6//yckjunMey5+cnKochxVVp4SYSjgTFhOI4f4tIqnCKocDWeY8NYSJyiMKkd7rMXMWpWjbRZVjgYb90Vdc7R9pazBYhGLNnrdhlka3IuxmGCuJVQ5Gr6qytEwSFV8xmmVrjnKcWL3Kaww3AW5rjkqMjQzz0gOVY6zIMcJawnWfQ60p2sOv2eLkq45OowivQvFbU+VoykEVZmnCNz7Jrpb1eX1u7pL38pV5ahI08zwSDQIOXTN4TNO1xxN59yVudM07kgvjRuEHLrmOAtyqHJ0cxK1qhy+hx5K5HRpDyVxwoqga47f6cxcp+fiVDkOpGnmLp0cqhy/k2yDkEPXHD7PhBVGd6t+p9Orcvj+WS+RirAHkzhhp5eeVqly/E4SqXLUaePnL50ceof8HMmhu1U+y4QVhjutUuU4R3LomuMsyKHKcY7kUOU4C3KocpwjOVQ5zoIcqhznSA5VjrMghyrHOZJDleMsyKHKcY7kUOU4C3KocpwjOVQ5zoIcqhznSA5VjrMghyrHOZJDleMsyKHKcY7kUOU4C3KocpwjOVQ5zoIcqhznSA5VjrMghyrHOZJDleMsyKHKcY7kUOU4C3KocnxCckjHIU8eVo+rNR2Ac/UicPGd3YPfvYmLs/nqMd6EZLwPCheHq/hxlZNvT5fGBcEahnsgQx0BoHHIO6JBucDErLjmzxuHPF5t3zxuYyJ9a8OvTZoTqDjm4hY/mO/yx/WGapDCbdaP+XfmhwXVjjRu+/hmu4rpyE6YViFpHPKmfjiz0NbDb2kBe7445D9+fAzTp4BKGxvm8fqHXApngxRs+/g11R6F+/qj+TpMA0u1I40LNmn4+PFHOq4cM764xiFv0mdXdlHUni0O+Rjel2XrPIz7/9If30TbjyboR4UxFzeKEcnPrExMHJfCoQlEF4xHVDsn44gLzddZBk6SMfIcezQOeYfjM+OVP3Mc8sd334X5IxWtM7Ph+pdsTUaT5eIs5jmBycgothQuzEyA2RkZTVYa95iH371DrHcqLrfGIe+20D34wolrDtgzxiF/QDDw6ztGPO0i4Lcc7oOL4r2k2yNwrglrP9DtSOPurhHanBMPnBtfnIuTjS+OKPSsuObS8cW57RVhx58rDvnVEmG5Xs3pXResnn7F8qhj48GrcqssDm5xgzFhnpDxtCncGI0kyc3CO4mOgjQumb+C4ZZXHYfyqjQOuWeOqsCNVw4jP2cccrchQE6dk+kIUeSTifPE3sTF2clsniDePJVo3FUyn3ECfQvjYDK8Uok6fbdjyYu7wcRJxxfntudc5AuMQ17E5XI7a/0JUdTQy/0Y9y0Th6UsGqPbI3FFK2PaS4Vx0ne+ue3BZI6TtOGkceisLzAOuXN6hrF3Tk93ChNHOv2ehiRO2OmdJWARDtl4ilCMKXRz7qAJRwClnZ7b3mdFDvazVUWvcJ1elWNvAe5IL40DiVQ5Op7ROC3sGfvZKkcOGJxKTEXYT6vI9khF2J8PieOP9G5wpodwfnvckV4ap+T43eRQ5fDpznd6FomkFYHbHk5OyfG7yaHKMSg5HIOYawRpnJLjd5NDlWNQcnBHemmcKkcHM1Claw7f3Xcl4ekSnM+JAmdtIq0I3PZUOTr4cRo5VDl8KvGdnkUOaUXgtqfK0cEMVQ7f16uSsNOrclSWbWY+o5uAqhx+5wqTiDvSS+NUOVQ5KsfW+xyVKXYZ3crtZIeuORp+UhSFFYE7rZJWBG57qhyd3NDdqi5ucJ15ABx3d0kap7tVHfxQ5ehihypHl1XcfrQsiT6rBw/1DrnvNPIkklYEbnuyTs8l0WdFDt2tGpQc3DWCNE5cEb5IcqhyDEoOOCl3pJfGqXLommPn2+e6lSutCNz2VDk6mIGq0xbkqhyqHJI/p9U1h+9PXon523D9DblnNbythTf94uJUOVQ5Kg8712mVrjmqLmpmZJ/BwgorxpyJSqdNq3S3yu804a1c7kgvjVPl6KbJaeTQNceg5FDl8M1bK6ly1IzhZ5lrE3K6tG+VxAkrApze+T35YydpReC2p8qhylER7lzJocpRdVEzo8rRtEhVVuWoTOEyXEXg4lQ5VDkqB1PlqEyxy3Af95DG6X2ORkfUi0xF0PscdaOpcvjW8Eq86dcgW7m6W+X1BKYjbplALrRPwEk/M8VtT5+t6phZnbaVq/c5BiUHd40gjdM1RwczUHUaOVQ5BiWHkyF946Fv4n2JN13irmFOmVZNZgghiUh63fyp1YaYQUzpyElF/BUETqlC7hzJ7HFHvj1Uc3E2mbvQNdPDv+zOUTgXfOVqjpUOkaRxY0SlceFciMNOpHGIhuOmVeRxuTjHcRecj0roLMxJp+RxpzAL4/QmXBzMbNN1nNc8uzMbxrE1GK3ygMGNKP3weub6j0jjh/GcNg0sI4zD+j5JXhVxhXrPkMRNX+HfMwJbSOMQtG0Oo/Se/O5LUdy9u9qF8+j+xMWhodl0Sfo8emsKI7tWiTSezywnZBcTN07urVn//G0nI2qVeRovzGS8RHDiIK3Vd2bjwK09nXT0/02XcND5ALjuIKJVLeKwvkY3k9FYS9yxy3Bd9Xqc2P6rHLuNzdNw1Zl2Z5IphpTpYtr97aFWHAfHG9/dk3aDnha4Y3Yr65Orm2R8Sw+PCKfuFOHmcGXdOQxVBde6vz3UVrjyRI58onttlmWbTievVcZBAOUY21Vu4qxW35kNgw/v7ycM6cAV/5XzMCoJ4xa/YsiauTiD/YnCTV0rya+L/lbcMCGLw/FgNjcAkUkU95M7HON3Glxc4SF0xOjxDEOLTf5EXmwyv+dZhYt7NX/4mK47fdyrjOI7kyQPCB8fBd4XHYXcuI6jR+bC0PdXB0ofyUnj4M03GK/mRw5XVVM41wYGtUX1D45kpHHjq3tYl+FVwjhcbjK1HOVg4uY/YZpGD6KwsXP6I+P7Qbdh56mdJVeHmu5chTvSX2U1zsx+na5XHS7uVcX5ypqb2SIN4thERIrjJS5nTDIdE0RWksbhsLhumIhIJA5NOAMSzRSHEsUVB4QbsJIcbpJMp4yrBXG5OFwAFnbUxgLGMndYssMmgNCd4YZtHg5ntzT5Y064e/QujhZQDlvENy+Cl/f837VFDPmFC2Dfn5a3DkYnaZx9aXFknCOVKByauEUK/fU4AAAgAElEQVRjZJLGFWa7XZLHFcYt7eiWYzYuDuc/sg+WcR1fOeQL+nph6Bf2Tg6Hpljt/dGa+eQ6SOOY3MrNH8HfK3qrdL4EhbFPR40c0jjsA7idAPK4FA5NoKHpkjp/cRyMNk+Wc/K4wjg3F7h6mJF24+ImyQ02S78mF7yh2awx+7qhrneMLaCXV+TpYYubh3P7pNlqS27lbtN85JTDxFFIkiM66SYg7uNSafdslRiOfKBwfz4kDmeElRWt5MI46Tvf3PZwsW6pQ/cDH4eNcEP6E5wu5hwW3fZ8NwGHIQfD2AU55HCk0585OWCJz+UOOchBz0Q+L3IM82wVPWIxFebSycEd6aVxIKUqh7dPtSucwbNVqhzV7FOVozJFI3MB0ypVDr/PdM3h26MsObvomqO0RuNTeC2x+7ETrTCXPq3CFeqao+FK+6IqR7ddUKtrDs80uubwzFEv8EiEFZb8S91O2sqlR3quInBxqhx1P0Ger0QDLMh1t6rRG/sic6TnKgIXd+nkkFYEbnsg0QDk0PscPeRQ5aiMw1+465qjMpqX4U2XuDcLB5lW6W6V12OO/pi5iN1J54700jhchCqH3ufY+TY5/RJ2+hNIpMrhDz9lSZWjtETrk7mGIZ1+3zCJeyZySCsCtz1Vjg7ZQJXeIW8xERXPRA4cV5Wjqz+4awkuTtcc3VZ2taocDdvomqNTOlQ5Gn5SFFU5uqziFJW7cNencrstiFrmGkEaRyrC/oRJ3DORg7tGkMad4PQnkEPvc3TzoyAHTE4lYRzp9GdODlhM1xzdPqO7Vd12QS1TiS6dHNKKwG1PlaNzyaG7VZ2EfKZplSpHZ2+4SlWOo6ZR5fBMw1UELk6VQ5WjcjBy+qXKUdnKy+huVTeLXC3eFVG4jWewrgJzpOeuJbg40un350rinokc3JFeGqfK0e3zep+ji9zPRA5dc3R1RlGna46jpmEqEakI+wOQuGcih7QicNtT5VDlqLh3ruRQ5ai6qJlR5WhapCqrclSmcBmuInBxqhyqHJWDqXJUpthl+LtQJzw+or8hb1h5X2SO9NxdKC6OdPry9PCQhnuK7mjSNUe3afgk0vdWdVsQtQU5+rxv/y+FcZdODlhMn63qdipdc3TbpSQbZtBEunRycNcI0jiQkjtd4uJUOY76qrAicJXo0smhynHUo55POZ45Djk3XjmJo+KLl0FSKJyLuKlxyEtrHT4RDM4pBxlFZuxiCNm4ewuoVpvH69QiwNzhCN05bnxxLk7jkB8dhIolUX+8cun44tz2EJbqc4hD7mL6vv6QksFrvv15bVyczp6u2n3FjC+eMHEah7wMHdrxqXHIfaOU8cX92naJjXPSawNSOjYIBu5e+tU+kl/zSuOQ94wfsOBf9XxdfkXFF+fipOOLc9vD+eEy6XfESeO48cW5OMy+7t9/CMLaDKo7u04/Pszh+lTixhfn4jQOuT/61EsLIl454mVqHPK6wfZ5F4yUFa/c7StaQwakXK3TrzEUzLqjih9qXfxSjUN+ZAThxit3hnYdSCUShyZE44tz2ytOXC6++M4OdHv8+OK8OOTFKmKJ8MREyhHQ1UW2pxI3vjgXh+NpHPKjcas1DrlnGm58cS5u5KLQF0HrvcO0CncuBPldq7qjQuOQd+/joZYbr5yKL14egMKJxxd38wJOXHPh+OJuAc2Ja86NL87FTXHcxD6S06p8u8oe0GjZL8c+ufHFuTiNQ96j1eTNQn22qtt6/Dvpeoe824Ko1Tvkvmn4ZNNnq3zLlaXnu0PuthbiKCRv2uhvyMu+2n/ynd49GULu0Uo/M8VtT5+t6t5p1t+QN/y9KAo7PZyPRQ4Hwnyk64z8Onkc94FCLg6Xob/n8DutLBXTKoxbVBLGkWuJ/fmQOL4zc52eheOO9NI4nBzX6bk4XXMc9X1dc/im4ZNNlcO3XFnSNUdpidYnU2FIRdg3TOL4zsxSBIBYOGlF4LaHk+MqAhenytFy4rJClaO0xO6TSQ7HIF1z+Kbbl1Q5Os3iKlU5PNNwFYGLU+XQ3arKwc51WqXKUXVRM6PK0bRIVVblqEzhMlxF4OJUOVQ5KgdT5ahMscsMsiDX+xwNK++LzJGeu5bg4kinL08Py163f3Q08RfQbiZE37Vjtscd6aVxqhyqHBUXSBIxnXlHMTlyOKbpblXVTfWMrjnq1vDyTCUinX7fKIl7JnJIKwK3PVUOVY6Kb+dKDlWOqouaGVWOpkWqsipHZQqX4SoCF6fKocpROZgqR2WKXUZ3qzrZcdoj6xoT0Pcq4bUJd6SXxqlydHJD45D73r4vCTs9nM8tJzhbvrpb1dkhGoe82yyuVtccnm1UOTxz1Au8hTueLY4xZ6LSadMqAy91wyCVCmdmAIVx5Fpif94kjj/ScxWBi1Pl6PYtntPDOUfFDd7uRqraQciha47KvkVGmETSisBtD8zl/k6Di9Pfc/ieUisJK8JuWoUOJBKpCPt/T+KEnd6dua45OiYxmNtYultdr/EUgYtT5TjOpHMlB3ekl8bBP7mKwMWpchx1P1UO3zSqHB2ygSpVDt9PvFJBIoyDVGLiSEXYH4fE8Z2ZO11i4aQVgdueKkc3d3W3qouYz0QOxyB9KrerQ3TN0WmVolKVw7MNVxG4OFUOVY7Kwc51WqXKUXVRM6O7VU2LVGVVjsoULsNVBC5OlUOVo3IwVY7KFLvMIFu5n8tvyCeLKApSQ0SpiuLNNaKBTendpcUcgxYjCeMQJXbm4qZQicZdIVAdJ3KlNA6iMEfEQjrJ4ibo0weENKMSEzdBS7PrDRn2zCCcLPqCPK47MxevnEpsHPo2yzakv6dpYM14vIhMRj+Itdra8Zzh9fe3kxtciwsE1Jukcfa+MCB5XApXNDC7J5+ilcfNkpvJ7X2v0fDlGMaVxN2gzdd39KjCxWHiNx/b7ap7snKozYJodUeHcERz01e3GK3IxMUl87tVFGSHM+nOrY1ZGMQPTIMwWsVUSuEv0/n0WHiqst6NuRMM4mX52Kc07gF+A88aHzteWU/h0A33+N9DiT/2KY1zcVXdGHnseGW9OG4XHrRs/ujnPozo0e/LL+AiuIyU8qb4zdcGATOns/LfHft00gKXujn2fVnPxc2mCJhpvn5DnWC0ykcGgWzTGAHTAyKtv3vA0OxOgUgWkbedwakkjMO63SXyBCncrgE6UIY0DiZzsYwpqzkfFcVNsSJ33kclLs71wOzhuzXhTkEamxXjsMUGhCQO12lXJk6p8wvj7NokcxuZfENSPVrf3tzPJqS+3Xw1u8EJkOyQxo0SBHy/IU8vIXFjnP4rwKgkjHMGu5l95WzXm6RxsNjk1Vdkd7l5Mg83md3f3K4jamT+9ufvo+V8thvS+q4Ys8i3yes+xO47Jm4ymy+j73/+ljq/1MQWyrHcbsOAXEDl6x1/Sxk79olRCNIxuTr2fVkvjcPibo7VDjktoXBOwedYtJXneexTGjefzGA4eloljUPUWcbVuj0WLg6+atc5tcET5FnhUcfsW9ZPwVssyMnpPBdXnF2WB9T5haGxZjZZbDZRHMam/y+L7iDocBsqXSPoLY1KEmHc7ftiTkVOqygcGsB/72+py5TGYbkEw11Th8X3srgbN3bf0R3GxY3n82R2F2WEO5nNX96Y0YRekSNMdeL2SanExSXzyci8+cuGOL84zNMlFuT2pR0hsDqRRtY+2JFdErDi61sAOUkUd4sjXjPOj8At0Yi1DtSfpHEwGX1Qd0rCOBzUXTCZuLglTvDBnSWVlnZhl7Tf2Ts0RLdm2bhFcWDq7PD9S0yruNFk2T+TNYhMS98EiopfutAj1rn/hrx7I7BW6+L0RpBoKkUx5rY0DK/FEMUhkHBsWCterNw5v06CEk2s8wEifVaPrD8rOdyWSn8i73zv/zmJc53Le1tIgSNcwBHjCyQHPTh+ob/nUOXwCHMKORgCUyiHIE6Vw+utqjDQ7zmGIIcqR63XLmBapcrRPc8p5pu0cXTNUbn7LuPWEoKKwFUYVY5GP+yLqhxd9NY1R5dV3ELshAU5PTjqmqOblEWtKkfDOKoc3aQELVkva+PiQHFslDWM3y6qcnR1hypHl1VUOdr8OdTgFVyF23Rbrlara46D0VxOd6t8e5Qlvc9RWqL9edq0SnerKgtexE1AXXPU5KKWVeWo/LjIqHL49ihLqhylJdqfqhwNmwgrAvcxk2G2clU5anJRy6py+F6vyuHboyypcpSWaH+qcjRsospRG2G97AVs5epulddjbovAPaDYcPF2UZWjbRNXo8rRbRdXq8rRsI0qhz/4HEqqHAdbNHJn/sbDhou3i6ocbZu4GlWObru4WlWOhm1UORqjYlVU5ahM0cyocvgsciQSfHp3mK3c4rkA/7ybJVWOpkUOZVWOgy2KnCpHc1gsy6ocpSVan6ocPotUOVousq/gkUifyj1mP7xOoohVjX3YY0mfyu22jP6ewx+k6iV9KrfhM3qfo2GQfdHZpXhKou49HXldc3QYZV+la46GbXTN0U027o+YuLhBplV6h9zvPFUO3x5lSZWjtETH5yAPHurvOSqdEVaYYbZy9ancDmagahBy0MGiyIX2/mxJ3F4Rui+uVqvKUTNGLavKUTNGMzsIOVQ5VDmajtYqP+NWrq45/N5Q5fDtUZZUOUpLdHyqclSDfJE55cHDz+ZF0rrm6GAGqgYhh645KsbpHfJuv3vWrVx9y7rfKUNMq1Q5fBvvSry1xCDkkI5DvkyjMF+TYaUCF2IJF7S7/p7/Z8Yrp+OL745B406LL06Fz0pDxCJNoyWFMyZANKEFaTd5XBiurt/3dMD+K41DXol3K8ONQz632+2bLEtbDTQqXChRBBcmA1px45VT8cXL3qdwRTidE+KQNy6rVQzSPM1MSv6cNg+CVRQtWv++WSGNy8J8YxaldY5/3uArTrxyjHcah7wMaNj8TGz+GGVRRkXrXN/CijB48983y4gmxIpr/gCu3Tu+EYnCgRwnxSGnrhPEMOsotxQuCrMnk5GwWBqXmyyLRpN7wmxQeIxjdDzPicYhPz7AJJO3v+TvNquYivP889tf0Qoj1C4zXrl7WSkSGTCTwu0a4Mchp64zCk0QpcGSwhmTbeLYknYTx23i7OcXpIDDsDAwJzwaDKhxyAtfbP/f6+t3eRZgAk2k7A5WHNOdwo1XTsYX358qiTsxvjhxmfEmRBzrdbagcDEmoo+xXX9q3GOQZsGCjuoKRdU45McWjvw45GuTZ7k51k5Zn2EUmoMfpJwz45pT8cXL41C4U+OLl9dz7DM1UR6GqT32fVkfp2kcP1kyfrc0zu2dvHNTVyJpHPKe4MzcOORXbzfrKNtse5oqAp4Ht3M3B6KlgxmvnIovXmochcM54T9+HHLiOg0CvJs4j15QuDgLsnT1zepT49J36Sb+8b40z9FPjUPeE535hDjkLlY5Ga8cEaiX+ONEmEaAbgbMRfE+wzjkO1t8wAeRrnH27o9KwjhYFl1B21fjkDf3DWtlhNLGimy36j06vLgvvrA75L22cF8WVhuTS1k8A4Af8JIwTH9kcTg/bjgzLk5/CXjUKQYhB81K8lH0/QmTOKYzc53+BByLHGhPGsd1ei4O5NBnq7r5MQg5zvfZqm4j1GqZZJNWBG57IBvX6bk4VY5a9/vZQcjhxt/+RCrC/p+TOKYzuzNyL5LuPyt8y8dJKwK3Pa7Tc3GqHEedYhByqHKU9uYqAhcH8nKdnotT5Sg7q/U5CDnc+NufSEXY/3MSxx/pcVKqHK1ecfbTNUfLLLuKQcihylFam6sIXJwqR21LtpbVOOSlx9U/VTnq1jjk+dMvVY6D1Ro5VQ7fIEyycUd6aZwqR00uallVDt+NdyWmM7tVkK45Ogzo7KJrjg7DuCpVDt8wTBJJKwK3PVWOmlzUsqocvhvvSkxnVuXoMh7qVDmOGMZVq3L4xmGSjTvSS+NUOWpyUcuqcvhuvCsxnVmVo8t4qFPlOGIYV63K4RuHSTZpReC2p8pRk4taVpXDd+NdienMqhxdxkOdKscRw7hqVQ7fOEyycUd6aZwqR00uallVDt+NdyWmM6tydBkPdaocRwzjqlU5fOMwySatCNz2VDlqclHLqnL4brwrMZ1ZlaPLeKhT5ThiGFetyuEbh0k27kgvjVPlqMlFLavK4bvxrsR0ZlWOLuOhTpXjiGFctSqHbxwm2aQVgdueKkdNLmpZVQ7fjXclpjOrcnQZD3WqHEcM46pVOXzjMMnGHemlcaocNbmoZVU5fDfelZjOrMrRZTzUqXIcMYyrVuXwjcMkm7QicNtT5ajJRS2ryuG78a7EdGZVji7joU6V44hhXLUqh28cJtm4I700TpWjJhe1rCqH78a7EtOZVTm6jIc6VY4jhnHVqhy+cZhkk1YEbnuqHDW5qGVVOXw33pWYzqzK0WU81KlyHDGMq1bl8I3DJBt3pJfGqXLU5KKWVeXw3XhXYjqzKkeX8VCnynHEMK5alcM3DpNs0orAbU+VoyYXtawqh+/GuxLTmVU5uoyHOlWOI4Zx1aocvnGYZOOO9NI4VY6aXNSyqhy+G+9KTGdW5egyHupUOY4YxlWrcvjGYZJNWhG47aly1OSillXl8N14V2I6sypHl/FQ95kpx0s7Qpx2IiGM+wNiuS8JmPvaYUiccKx5az8wDurOjsbh3AGiEwu3tNdoCSHuqTTigNCIMA5n5k6QTFzcEif44M6SSku7sEva7+wdGqJbs2zcojgwdXb4/qU1s8lis4nisKYondksupsl8/n4yHhRVV+93ayjbLPtbKRWufpmlWZBFteqOrNc3IsoR1v0dVC40LWSRy86T6ZWWeKqCz+SmSYJ/nt/e+TrWvV4nIyva+VjWVncDUb65I7s1oSLG8/nyewuymqm6sxu/vLGjCbzYxdZ1U9hvutZVTya4eKS+WRk3vxl03lStcowT5cmmS632zhAVPXevyhf76IKT4iU2LXJszzqbc1EUW6f4jhP6eMycTYNwzwyKXVcCpeaKA/D1BLtmBJHmAOudzPBkGIp3NVkBjewyafGJckV4+ywgmHj4L92ja7o/wvyrPAo6nqnIIZNZlMpXHF2WR70n11kwtBYk8zhB/kmjYkUrW9v7mcTcoh5ff0uzwKwjUhrGz8aQx425uIW2ToOwnBDHDamcJswDOJ1tqDaKXFHh7Lyi/FNkrxKRmXx2KcbHK9mXwHcn6Rx6NDJq6/ooZmNm8zub27XEWW/b3/+PlrOZ063+tMsuXmbvO7HuG+ZuMlsvoy+//lb6vxSE4McU5vGWZYFRFp/9wALYoZApMnbX/J3m1VMNBfENo43EF8p3DJIo8DEEdUehcMuRRClwZJqp8QR5thbbLKT3T4wJq3oiz7E7jth3NStoBmH5eLcBc8evltT9ktjs2IcFkrKiWcNhjNxMKJdmTilzi+Ms2uTJMs0CM2KYlKc4lKmc1LeEps/RlmUke3ZzDxlITnCxEyczaM15jrkcSlchkbWmPRR51/iKLnHiHuP/z1QuGQ2Lrz0k+Mw5DJmczg3Hg4ugvboGcGbryOzTKYz6nrdcAzPu5HCzabJ0piv31D9G63ykRmPFxFcqrYU6c6utnY8p0UQs7Tt9k2Wpd2t1GoXUbQKgrxW051l4iyIkeZp0N3IoZbCBWgEjm8P/6I7V+KooR7EgF/dk4Pk2M0LJrf3dHuyuBsc8PXdFXXYhIvDGD4f2+2q22qH2gzdf0evx9Hc9NXtrLBi/zlyccn8bhUF5IbB2piFSSbwvgDLSyLFG7dnMKXpsUyjMF8HRHNRsMjDGK4shVtiLhRkYUq1R+HSEDPMNFpS7ZS4/h5z315BFDgTF8wM5gu6OTeDkMRN0KcPU8Z8mYebuGnV9Sam7Gc2WWaTMXlcd2ZYkJN2YePQF1m2If0uTQOsOXBLO47C6MDp7lxkLIhBc4N7h9zYqNgj6z5arZaJK27MY4eESiTONYGLpdopDgUc2WuF1cYkjntHWxqHLp24aRXjOrg4hFpmdEQcxZzD4rwmozHj/Lg4XAUOTXdv7Harno0chkkOHo50+r05SNwzkQPdDxcgOeTGJ2kc1+m5OI1DfnSkKbwPty+oxFQErsKQTn/m5JBWBG57IBvX6bk4VY7fTw6eIkDcWApz6eQYQBG4CsN1ei5OleP3k0PXHHUbckd6aZwqR/cU51mfyuUqAhenylGnGvL8tQlXEbg4VY5GVxyKuuY42MLldLeqe2jW3apuuxS1zLWEKofPtRMUQdccDdMVReif/FZurPc5PKrvt3y77O/VqXJ4ZqsKqhyVKdoZVQ6PQwMogiqHb+FdSZWjzcWyhly4P9NNQOldKG57ICV3oc3F6X2OLlIWdewFOe/+ha45Gpbm70KpcjRMVxRVOUqdaH+qcjQ8RpWj7SSo0fscXWZ5pmmVrjkapD0UL+DBQ92t8qmku1UH963n3O7cTp59ezVLulvVtEitrLtVdZc65Y42dy3BxXEX2lyc3iH3e7ZWYi/I9dmqmtWK30DDq+pVnXnuLhQXp7tVtQG7ltU1R80YVVbXHJ2kPIFEqhzdFkStKodvGr1DXo07XkbXHJ45/IKuOZok4q4RpHHctQQXp8rh92ytpMpRMwayqhz+oFiWVDlKS3R8qnI0SSStCNz2uIrAxaly+D1bK6ly1IyBrCpHx8iIKlWObrsUtaocTRJxR3ppHFcRuDhVDr9nayVVjpoxkFXl6B4hVTm67aLK4fOnKMk/bctVGK4icHGqHB3du6tS5fBNo8rRPUKqcnTbRZXD509RUuXoMMrOMuf/OlB9Ktdnuj6V2+3MTimL2YNvrlZJlaNlkkOF7lb5zqXK4dvjUNLfcxxY08gx36m7G6zccN6fSNwzPXjIfYpWGnfCA4UnLMj1LesHbtdz7AW5/oa8bjY4KXd3SRrHdXou7rParZKOQ46A2pzA0S46tyDOhfq+puOfF9G+e3DcuOHSOJiCEay8iMktiuPGF+fiNA65N+Q1CtcIp82IUpUI427fF+E8yUhBFA4N4D86brg0LnFW0zjkDWdynfFZxSHH1cwmV1SAQ0QTEsUhhNZ8gsB11HEpHDduuDRO45B399xnFYf85quZi61IBnGTxo0Q7Du5oSWLxDHjhifCOGcwjUPeEg7nSZ9PHPLEThFQm+QGfjEoi3Nv8kUip1UUbtcA/WNuaRxMpnHIO7jhdufoX9a7GQMPh0M8ZxxynOh4Rk5vXHxVSdwDJu33+F+3OB9qKRy0hxU3XBqnccgPfVTPuUEIrvJ5xCG/v8XMf4ZtSSJJ4+x9oVbkcSlc0QArbjguUBQnG1+cG9f8Bpehccjb98aGiUO+mLuntOkkjMNCe4aQ32Sicdy44dI4iK1kfHE30+C0p3HIO0OmDxSHvLibRfMDk3/czRLDWTQGf6DJQeGKVhjTXGGc9J1vbnswGffmHhenz1Yd9cLC6Tle6sghh7t0csAS0ne+ue1xnZ6L+6zukOPnvCH5UFLEfipXVhESpsJcOjm4I700DqTkOj0Xp8qhyuFkT3T6xR3ppXFcp+fiVDn6yYHxjUpMRVDl8A2pyuHbo1biPdoOiuOnJO3tqUbNQO/KlV1L7MiBQZpIlz6tcjKEIZe4Snwtj+MqAhenynG0F4UVQZXDt7Qqh2+PWkmVo2YML6vK4ZnjFIXhKgIXp8rR6IpDUZXjYAuXY94PkVYEbns4P67Tc3Egh/4S0HeCslSQw7kEkYRxqhwNe/PXJlyn5+JUORpdcSiqchxs4XKqHI19oH3xy3z7iO5WeexgkgMk0t0qz3BVgbfQxjDEer8V9E9+K1fvkFe9VWT4Tu/8ntyj5a4RpHE4Oe50iYvTNYfvKbWS8FpC73PUbOuy8grDdXouTtccjS47FHXNcbCFyzEVRloRuO2pcnQvifQOue/GuxLTmblOfwJO1xxd/cFdS3Bx0D9dc3QbOiG3fJ+JHNyRXhqnyqHKUVHlXMkBJ1XlqHrJy/B2oVQ5PKN5BdLp92gSp8rh2bUq8He1dLeqMlozo7tVvkX4ZFPl8C1XllQ5Sku0Ppm7X6Qi7BsmcXxndjMh8v4Fd0EuvZbgtqdrDl1zVJw7V3LomqPqomZGlaNpkaqsylGZwmW4isDFqXKoclQOpspRmWKX4S+09Q55N4+M0bePtJzKzYR0zdEwC4yiu1VNm1Rl3a2qTFFk+At83a3yLVeWdM1RWqL1qWsOzyTctQQXp2uO7rmSPlvlud2+wB/pRadVrjHMR7rOyK+Tx3HXElycPpXr91itxBzpuW8V4eLIhfb+FEncM5GDO9JL41Q5VDkq9p4rOVQ5qi5qZnTN0bRIVWYqEen0+wZJnCpHZXovw9/y1d0qz3D1gu5W1a2BfU33H2vLV9ccvuXK0vMpx3xyHaRxTL5lPX/EYvEqmdZDUnXl50vEtkMQma7v6nXSuKWLyYtD14/RladwaAINTZdd/7ZeJ46D0ebJcl4/RlfedYIkzkWyunqgw9RxcVPX+fYx757JH2rz7Sp7cDEoiIT405OXVyRswsUhMt5DttqS57dN85HBlbxF6HcyXdtraxcIJU+kJaK5LwiM+1oaZ1+6IPc4RypRODRxi8bIJI0rzHa7JI8rjFva0S3HbFzcyPV+4Sz9V3JnX1h714/ZfQtDv+AguTgclNXeH625mS3SII5NZ+ynWmUcLzHGuPGjP80Yu5GuBWkcDouggBj2iUTi0AQaoq9CGlecty0CGxKXgK/lcJNkOmVcLaaGPFzhIktMRYiUY/B2HkWlCfqU7gw3deXhcLylwcGJ04vexdECyvEQhmGUHgSvO5cbd4qYPRMJVzJJ7q8I1HgsjVsg4ij8dU4dmMK5Nm6SZEG1I40bX93DcIhYSCVhnBtQpvaePC4bhzVWYg05bVmt06/dQEVdLuw8xVBAOhQX5wa+r9P1qtvLD7VxvrIGa8VVbuLsULlEclQAAAzMSURBVN2dC4MP7+8njIENV/xX1HDgvhfGLX6FpWd0HHIKN3WtJL+CQ/1JGoejwWxuACKTKO4ndzg3oBGJi0tmk/v3H4Kw24tqtdv048P8FXFUfD2/51mFi3s1f/iYIlYslaL4zkzGyziMA1I54sB13JQcYaYLty7+9DiMua85ykbhnJu8hq5RI5o4burGvsWUPK40Dgvo8R1HOZi4InB4QEaH2WRZ5jyKul7QZ7rEelwKh0NaHHpDcSMOAijHxOZBRG5WmSj98NqNqVQaP4zn6GYySeOwg5wkr1zP9CcSN3WjGeM5DmkchpQ5jNJ/9sW3orh7d7ULejHJxTn9fv0hJR3q25/Xxs3myOsdz7E8ZcTQZuLGyb0165+/pciRp/HCTGajOAsZ7IjBcwgCsfPmps1uRfvJcTaZOwuSW80UztHrCms76jqlcWO3DeCM52629fxJ49BZuz7rOWZxPkzc2M1sLSkcJo/XqXXXTBx3CghtlWRS4ojmnG/adB2Ta6IwjqEcWD2xoskaN+a64ZlIxU3AT48j73zvT5vEFVfJumkHa8jhpJ+Z4rZXOCdjzXECzt0hp9PQb1nHUDmf/au/+xu7WPy7/+ufv6u8FkOB/EvdTiMHzY4dicRwpNOfOTkc0zizuQFwTjnofnBDMg/nyEFOqzAiYy5CHxbd9pvukL9Krib/PV3+r/8Nuyv/amT/67DkOO0t69W5HM0IK8ylk4M70kvj4J9cp+fizoIc8Lu/tfa/z6eT5Orq7+/+vvJDXIUqR2UNP0OSCIOZ5HTJDY7M9j4j5aAfRxpaOcaz/9u++A/oe9x+mP/p7f9cecEg5FDlqOxbZPhOzyKHtCJw28PJcRWBizsL5Zj/rb37F++L3TDcosG+WJkGIYeuOUrz7j6FyeEY9PmsOZ5fOf5htPhfkuS9u+WGhCcyyjQIOVQ5SvPuPoXJwR3ppXGfq3L8lzv77/d3R35Krm4OfTcIOVQ5DgZ2OWFyqHL45q2VftNu1ZO9+wf3oOx09zBqoR9Fm4OQQ5Wj1l/ICpNDWhG47X2uymHtA+73zfFoTPFA/qHvBiGHKsfBwC4nTA5VDt+8tdJvUg67dI9qgB3zf28f/np8eKJpEHKoctT6C1lhcnBHemnc56oc/2I0Su7xNH4y/rcW2/eHNAg5VDkOBnY5YXKocvjmrZV+k3L8N2txb2M8xi+5PvxrPG1YtTcIOVQ5KvsWGWFySCsCt73PVTmSfxyFyQ3W4f/Z2v9Sf6p3EHKocgxKDlUO37y10m9SjlnyLxbf/094lPjvFvafoB9VGoQcqhyVfYuMKodvj7Lk7HIGDx7i/t8//e0veEVD9o9/h7scAy/IVTnK7t99CpNDlcM3b630m5SjeODANXLjiFFbkaty1EzbyJ7rg4fcNYI07rNdczT6vSoOQg5Vjsq+RUaVw7dHWSqmVc//bFV5Oq3PQcihaw7fzsLkkFYEbnuqHN0/WhwwPge6hkr6S0DfQvpUrm+PQ+k3rTkO/7yRU+VoGKRW1DVHzRgu+5n+nqNxlYfiIOTQNcfBwC4nPK1Ce/p7Dt/CZUmVo7RE65P5W3NSEfYNkzh5p3d+XzwF17q2WgV3jSCNU+XQNUflhudKDlWOqouaGVWOpkWqsipHZQqXUeXwzFEv8Eika466zfy8Kodvj2GmVXqfo2HlfZE50u+jxHa3Ua9ltkc6fXl6WPYWq+n6Mep5XXPUrXHI83e1zuPZqsOZ+zlVDt8e9RJJomcih6456r3k5XnTJYx4o2Lg8/5tuzAIOfQOuW9oYRJJryW47Q0zrXr+14H6nVUrDUIOvc9RszCywuRQ5fDNWyvxFEGVo2ayRpacLu3xJE7e6Z3f632O5u2EgV8k3XCPQ1GV42CLZu5cyaHK0eypqvx8ysGOQ751gx8dr9pFGpnNsTIikjTuxa/JGL/4uiIOO6FweEvezTj59QXVjjQuQWQiF6aFOq40Di89QzgXzEmIxMW5eDSJpeN8v/mbj8E1foNEHBY6fu9i576Sw42vg49/86YpZM3ySXHI7eIlXgVk7YhILmL09fX1p8e9deGl7Vvi9EYu6noPbrH/mjp/adyoMBqMR56/M64gbuTCt6NjqeNycXCRpX1JR6J/sG9xHbSfLBbL0WhhH6jz4+LcK96u39oHnCeRTohDnq0Qy+ox+yEgUnj9Zr0JNxkBC6RxozA0qyBaUcelcKsoWJkwHFHtSOMyGG395jqkjiuNixG+b2vTlDouF/dD9mhiu8qoON+ItZeOTJBTxw3Qq/adIWFcXB6YURpmZJz0k+KQm2/tu+C77ClG7Nm+P2O38bsojD41zqbh1qy3ed+5ue8oXL5dm22YW6odaRxM9i7eIgRdr3VDF6FOFIcxJTI2fKSOy8U9Zd8F7ywZj9JE6zS164w8rsnCzAbZljo/Lu4xW9s0WJORp06KQ76Kb00QZoYaEYJv0jQOsvRT4/4QbEwQwXmIROHiMArMJvgD0UwkjUuzIE7TbxDYtz+J48w63vwxJ+2WMnFw0sDcxqvmHL5ZjnITv1i9eeq/WvdtaL4KNjSMiXt6s3oRmxVJDnNKHPKvN/Yx/eEXMkzo1uZhGkRkFHRpnDVbszJZ0OyEZpnCBZlZxVtDhnyUxq2jIIVgbZvn2yxL48CK8BHRtpvHaZbZuF9+SB/t5uvmv2+Wg3dpYL/PwmZ9qxznkX3ckmQzTFycfW+D9B19vafEIV9lyyDYbIOYSKu32dOfV9mKgMXSuIcwN1sYiDouhYtyUCMPH6h2pHEw2Z/fZG9puwnjsiBf5d8YRBbuT1xcsN0EwTIjnRndlT6sAkwj+1MaxunLdPWuHxXHXJwJVg8pOrhFwkbFSXHIw8iGYYSZC5FC8BI+Sk6/pHE2g/bGASKq9ycKFwZxtAky298KhlthnAHbMJaS5y+NSyOsJuyKnlYxcYEB0GKOQ6Q0XEcLBAakUgpPglVyKRxenLCI1mFKnJ4bLfhxyI0pgnDSczULF2U8sWyEcbuX7DFOr3jspwfnvkIUYMp4u2Ykcc5s9GFxbqI4SC3nanFYJq6IhElazxiwCC7Q0xH7NoRxOKTFGE+e4ElvH+GTwzDJIYuTJQe95thzjPbmgmyc9mSdnkuiiOnM0jjjKI6tN9JLhXE4JPqMPuxA5PgclIPjzOhWbIKSnXsKORjNFU4viJN2em57qhx9noMtfQwKfYjdd0ycKkfDlMzpF9eZpXGqHI3+8opnveZgDM1sRcBVsxQGYwXjsKocnhcdCsy1ia45DiZr5UiFEXd6nAKXHM+xINc1R8tHXIWuObrM8pzkUOVo9whTEbhrGFWOtomrGlWOyhRFRnotwW1P1xx+P/glXXP49nALaFUO3yaupMrRtklVo7tVlSmKDHMXSu9z+GYrS3qfo7REx+dZT6tUOdo9psrRtklVo8pRmaLIqHL49ihLzDvpqhylwTo+VTl8o3AX0NI46bUEtz3drfL73yudNTn0PofXV0WBqQjc3S9VjraJq5qzJoeuOap+qjK65qhM0c7omsO3ia45fHuUJabCqHKUBuv4VOXwjSK9luC2x10jSON0zeH3v1c6a3LomsPrq6LAVARdc7RNV9WQTr9Hkjh9tqqyaT3DVQQuTloRuO2pctR7tZE/a3KocjR6C0VVjrZNqhrmM1ik0+8bJHGqHJXp6xmuInBx3JFeGqfKUe/VRv6syaHK0egtFFU52japalQ5KlMUGeGnd7kjvTROWhG47aly+O7klVQ5PHPgR4qyr9zhtietCNz29D6H3/9e6azJoXfIvb4qCnqHvG2TqkbvkFemKDJ6h9y3R1lirk1UOUqDdXyqcvhG4U6DpHHcNYI0Ttccfv97pbMmh+5WeX1VFJiKoGuOtumqGtLp90gSp/c5KpvWM6ocdWu08twXScu+yRBrVNabEUmn318PiXtOcqhytLyOqwhcnK452iauas6aHLpbVfVTldHdqsoU7Ywqh28T3a3y7VGWmGuTk5QDQahDswU9iZSliEoTkkFCo9SafIvQLkRz4jhrwmi7wl4EkShcHK1w+ogeQiRpHMLuIHi3pWMpSuMQ1TWwKdmxgTAuNlFg43RNmBlv5ZTFrdPYBm4BRaTtZu2C1yxzhEsEGDdL+/7yP0boOfzXi4qCH12Iohhs6/+Txr2I0jTLY9iy/2+HQ2DNI7A4zrM0jV4c+76sPxlX/sMjnwiXGa6iHzGoHDmxfb04zvXpH3P3Pt/eP5yYKM4EafoB0dGo6xXHrbIPCCzdf7H41rwxd2Y6tbeI0U4GaQfkekTDRks7wh8CqxNJGoew64jljlaJROHQxGLkQESSxj2f4ewIcevJ63V9L4lb4Ij2BX1YadzuoOhjKtmX9v8H72Hca4qTLw8AAAAASUVORK5CYII=;aspect=fixed;" parent="9pnh7lvO98Alzu9_AtAS-45" vertex="1">
          <mxGeometry x="10" width="120" height="120" as="geometry" />
        </mxCell>
        <mxCell id="9pnh7lvO98Alzu9_AtAS-41" value="" style="shape=image;verticalLabelPosition=bottom;labelBackgroundColor=default;verticalAlign=top;imageAspect=0;image=data:image/png,iVBORw0KGgoAAAANSUhEUgAAAxwAAAMrCAMAAAD0pmQvAAAABGdBTUEAALGPC/xhBQAAAAFzUkdCAK7OHOkAAAE4UExURWBgYAICAlxcXGRkZF5eXmJiYvv7+////wAAAP39/fn5+ff391paWvX19WZmZlhYWAQEBPPz8wYGBlZWVggICGhoaPHx8Q4ODgoKCu/v71RUVAwMDGpqahAQEBISEmxsbO3t7enp6VBQUFJSUhQUFG5ubuXl5evr6xYWFh4eHnBwcE5OTiAgIHZ2dkxMTHJycnR0dBoaGhgYGOfn5xwcHEhISEpKSt/f33p6euPj43h4eCIiIo+PjyYmJs/Pz0ZGRo2NjX5+fpWVlcvLy6Ojo6enp6urq62trYWFheHh4YuLi8fHx8nJyZ+fn9PT09XV1ampqdvb2z4+Pq+vr4ODg93d3bGxsYeHh0RERLW1tbm5ub29vZGRkXx8fJeXl8XFxZmZmZubm52dnc3NzaGhodHR0dfX1zo6OrTY5p4AACAASURBVHgB7b0Ll9s4liYI8SFCEkUqpFA8FLLDdthtZzpflVmZVVk7j+6e6T7TvT2zvTs7Z19nz8yZ2dn9//9gP1AiRZAU71XmpUOyLyKrBECfQfLifvgAkOI1SWJf2tHCctKSAbq2uz8KKo2zH6zlnB8Dh2bQGJ1kcdIG4bbHNBvMwTIvFzeyd6wWpXHFQe/siO7el9bMJovNJopDQ6Rw880mzoKIgJnVN6s0C7L4U+NeRDmOSV8HhQtdK3n0gjp/aRxsm6UwHnVcaVyEvkLXkv0vjjNm9ZXJ6eMK48LcfAUjk34c5unSJNPldhsHcQR8z18UPtkgyPI+jPsuyu1THOcp2Z40zqZhmEcm7bmG4vwoXGqiPAxTS7RjhHFRnOZx/GRxCb1/4jiTY8SzT2HvUdGvwjiTrtOVNQF1XHFcHBi7wsGJ6zVhaKxJ5vCDfJPGRMpi+xhF0ZqAxWsbPxpDNieOW2TrOAjDDXV+FG4ThkG8zhZUO9K4ODXmMbakfaVxa3Tqo41D6nqlcfCktV2HhjquNM6EOGy8jqjjpiYGOaY2jbMsC4iUhjaMViGBCoLYxvEmM4YCSuOWQRoFJo6o41K4KDZBlAZLqh1pnDEZiG1j6rjSuCBcReha6rCBNC5Oo7U1JqcOLI3LjbHrKCXtHMbZtUmSZRqEZkUxKTI2zeJHEhfbzDxlIclMaRwmJGvMdTLqOihchkbWmBxS7UjjojB7Mhl52Fgat3qMs9Qasr+kcds8iheYzVN2lsZFcbCIo3xLHTda5SMzHi8iuBS1DjRRCreKDblgNIsoWgUBCEokYZwFMdI8DYijguL9uACNwPExqPUnaRyG0FUULfoPim+lcSuobWoxBSeSNA5rrACrWPK40jhMLWyANTFxuWZtzMIkE3hpgOUlkeJoka3MKiNgUbDIQyx6yPakcUvMhYIsTKnzo3BpiBlmGi2pdqRxmIjGYb4IqONK44pOXUQxdVxpHPYBQpsFpJ9I40yQYRKZ5dT1pmmANUdiMXZg04BMFhqIrRQqWQgX9qrIJIzDzACHpI9L4nbNkMqxP5wgzpmNbg4TIFFchN7H0pNM0jgDXsAF6A4TxuGQ2IEiJxgws9utEieHYZJDFkc6/b77SZySo5Mo8uRwXsoYlN1QIIhDUxgKaE4ORA5VDs+72GTDmILBikzOvII4aafntqfK0dfTmM3xpl88HKkI+3MhcWxnRoPYwuu7xOI7dnvOHHRzn8+0SlYRsGRjKYwqR4/HnjU5GFwryCGI44700jhVjh4nRf+qctTtI7zQ5iqMtNNz2+OO9NI4VY660zXyqhy+QbjOLI1T5fD7wS+pcvj2UOXw7VGWmGsJrsKocpSG7fhU5fCNIq0I3PZUOfx+8EuqHL49VDl8e5QlVY7SEh2fzDvppCLsmyZx7K1XNCi9lSu4C8Xd1eKO9NI4VY4OX6+qVDkqUxQZVQ7fHmVJlaO0RMenKodvFEciQYWRVgRue6ocfrf6JVUO3x6qHL49ypIqR2mJjk9VDt8oqhy+PcoS8+ldfSq3NFjH51kvyPXZqnaPqXK0bVLVqHJUpigyqhy+PcqSKkdpifYnqQj7f0LinnMrV5Wj3bGqHG2bVDWqHJUpiowqh2+PsqTKUVqi/Ukqwv6fkDhVjrZxUcPdouXiuM9CSeP02arO7t1VnjU5BO9f6B3ybifQ3apuuxS1Z00OXXO0e07XHG2bVDW65qhMUWR0zeHboyzpmqO0RPuTVIT9PyFxuuZoGxc13LUEFye9luC2p2uOzu7dVZ41OXTN0e45piJwn9XSNUfbxFXNWZND1xxVP1UZXXNUpmhndM3h20TXHL49yhJTYVQ5SoN1fKpy+EbhrhGkcdw1gjRO1xx+/3ulsyaHrjm8vioKTEXQNUfbdFUN6fR7JInT3arKpvWMKkfdGq28vmXdM4k4iWR/4ad3yL3eqgq65qhM0c6ocvg2kVYEbnvSawlue6euOVhxyBG4+QHRmw+xqJf2+tou7NJFdB75YZ1vOWGe8c9Ecbdo8Lp2fscCTRM4XFZxZsf+ea2eFYec3d4I5uAkYRwO6i6YTNI4F4ac5SbSuMXSeS15vdaeEIc8i+5myXw+Tqo0nc2nSTKr1RRfXY+TcbOu+je1jDDu9n2S4HTwX3+icLs23t/642u7VMYh7z9aeU7vbylc4qw2vqZhwribCQ55R3eYNG6Krrqe0ZcrjUvmk5F585dNu0f9mpPikOdrW1zJZJ+mU+dG4zFsO3FkKOsTi6ueTa7K8rFPaZxNxvPJzeE8jh2XwiXJzQRDADsO+bHjlPVle2X52OfVZAbD2cqOnwqXJFe42mNHO9RL46Yghk1m08MRunPSODixXWc5ghH2/50Uhzxa397czyaHIQadmeyYj6s6jAA3X83govtvDtWtnDRulLyCHx5Or3XAfQWJG+P0XyUjKtpoGYf82HGq+n17VflIxpnyavaVs11vksbBYpNXX+06su/A0jh4yM3b5HXfIXffCeMms/ky+v7nb6n+PSkO+fq7B1jwMGtBznFiCu7jIsaHL+w0mdPcAH9lcXZH0MN5HDE7hds1MEGg0/6EsFhFvPIjh6mqy/aqimMZTFoRE/7Yt4d6Ydw0geEYh5XGwXnGjMM6JxPFwZAWkXERXbU/nRSHPE5xKdN5JYOYOk0m43nRaRNMrkpRdIaejGdVuaxvfkrjHsDQe/yveZxmmcJhhLzH/x6okaWMQ95sv1ku22vWN8tYvBVe2qxvlsVxbiCjZ3M4N1mcGzTgKjfN62uWpXGzabI05us3VP+eFId8tbWY1B8GsAS9DoNNMGMFGQ7197eY+c923x5q2zlpnL1H54Ec7SP5NRRud1n3ZPyxMg6533q7VLbX/savGcNoN5Nb8Ls/SeNucLjXd1f9B8W30rhkMn1129rN6TgNaVwyv1tFQeYvv9ul0+KQb9zeQjGH2l3BT389sv/4p9n/858x169vTy3mTqjpJIzDQnuW0H2M0YrCXbkdOEvGqd7HK6cvdNcejYPYzhcMmDBugj59cLsrRBLGuSNiQU4cFB4njUPfZtmGjH9+UhxyvFAcPn9w+z/li39Mxj8sLdZU4zppABuj/8irFsZZHLR+fseOT+KKVsakcmCzo3jL+rHjVPX79qrykYybWycTehYujYPVJm5adeS0DtXSOHTWqOizwyGO5GRxuFpEXm9LRaPmpFDLTXL888JiGvD/2q/eT3z+F07PMLYwjnT6veVJ3DORAxZjkWMAnJKjQQxXPI0cMby55vO4xYi9x+Tf/Rl1niYLKwL24FlKRDr9mZNDWhG47aH7lBy/mxyNaRXuwP+baTL+P/4Jroslx0GWhRVhR45a+0e099LJgStU5eju2wuYVjWU43+zD++ukvv/8T32MTBKHRJzpOcqAhd36eTgjvTSOJBSlUNaOf7pj9b+czGhwr0OZ+AyqXKUlth9FpNRxn0sVQ7fbofS5SlH8l/xOOf/OdltnramVZ6WHC6znhNWGFWOunExXvHJpsohrRxJ8i0edf7J7VRh0VHrGFWOmjGQVeXw7XEoySoCLM3aGsZQIL+Vu19z4NlR6MTfX6HTf7H2rw+XWuaEFUHXHKVhd59cReDiiimx3udoacdpW7nVbhUeJLgaJXgo99/cLm37FqcqR8ObnXjomsM3SlHijfRcReDihlQO/NZh8g/39j+4/dviXkfzqlU5fIswp1XckV4ap8rREo2i4jcpB5YXs+Q/2n8LD/hpcffXh12q0iVUOUpL7D6Z5HDywnl8ZACcLsg7+HEaOcr7HLgdfvUXe/cfJ7O/Hf1/6KpmUuXwLcIkh7QicNtT5ehgBqpOI0e55niN3l4m/+k/vRul//ze/QahkVQ5fIMwyTGAInCVSJWjgx+nkaParXLPfL9K7pMZfg/rPVW1cwpVjt9EDu5IL41T5ehgxm9WDvfbcUcK/Niv8/ewqhy/iRyqHL7ZaiXZXa0hd6tqJ92dVeXw7cKcVkkrArc9VQ5J5fC7vl1S5fBtwiSHKodvtlpJlaNmDD/LVCJ9tso3myqHb4+qNMi0qtytqo5yJKPK4RtGlcO3x6EkqwjncIf8cG1HcsyRnvvMFBenyuH3hyqHb4+qpMpRmaKVIUm0H+m7l2m1WuEXLOiao9VVZYWswgxCjvIOeXnKxz5VOXzLMKdV3JFeGqe7VbUBr5Y97SagrjlqpkNWlcMfBMoS92e33DWCNE6Vo+yp9ue5TqukFYHbniqHP+aVJVWONncwTrn/Pv1L3dxB9ancrg5h/sKPqzCqHJ1GLipVORq24U6DpHFcZ5bGDUIOXXOUirv71DVHg2X7IpdE0k7PbW8Qcuhu1aDk4K4RpHG65vC7tSzpmqNr7NM1R5dVMC7jT/JFDNyRXhqnytHdv65W1xwN20g7Pbc9aafntjcIOXTNUSru7lPXHA2W7YufEznmk+sgjWPX1b0p37rYEbxwZjP3ihIiQaITSdzSxeTFr6+Iw04oHJpAQ1OExiJSFMVhvhpRxyvbI3F4Zf08Wc4/Nc69j+8K4R6p48rjxpOXePsZlfDGQFEc3kH4kK22OdG7ZpvmI4OJxltGxHJrFy+L0OYjIrng69fX15aAjcRxL12Qe0a8eQqHJm4RoJ1MSxfo/RsS5k6J1R4sDCQnerwobmlHtxyzSeOKvnrhvIBKMKAoDodktfdHa25mizSIYzIMVLaysXnMfuiPwRkE4fWb9SbcZJ8a54TIKQeVSByaQENk2LNVFGYI5P5AHc+dkmuPxBWAjpfkdf5DORyiq7jw52SSx805h8UugCwOF7o0+Tanwtq9i6MFlOMhDMMopWTGfGvfBd9lT3Ec9v4Zu43fRWH0qXGIpncDP5yPiUThXBt4p+OCskcWrYJ368ASh3Pxdov2KNz46r7YDvrUODegTO093tHXn6RxsMsUFL/qP+rY2U8U5waqr9P1iurfOF9ZgyclVrmJyeiaq/jWBGFGKkzwTZrGQZZSzJTGLX7FCI0X+VJDIIWbulaSX0lyxHGA0ScmlaNsjzovfP9XTIERxf3kToyxRSuNS+b3LOUQx72aP3xMESuWSlF8ZybjJZQgIJXj6419TH/4hYw0uLV5mAYReXRpHKLEInQnHlAiEoVDE8lrvOmUst0qzkKz2pDKUbZHnBZijroxcjH95DhsBIzvOMohi3uFq11iPU5drzTODQWZCydLpDgIoBwTmwcRuVllVtkyCDZbLE/60+pt9vTnVbbqR8WxNA4/I0mSV6RwuB8W9uOm6A4YhbAdvk7Bj/UdwP1p314/qPh2Ph8/uE0hKoni7nG0ycILItF5fGlcMp7PLCc2tjBunCDG/Prnb6n+zdN4YSazEcZAmh1hZLE0MeBRfwotdobziJx+SeNsMneBdKbU1iCFc/S6whqQNJ4xQRzlljpe2R6FG7tlu5touPsEPX/SOExG3Z1v8rjSuKmb/NNHnZyK6zFdYVaY2abrmNzKDeMYygE/iLGAppzBmCLmB42zUQyvYTQniyPvfKP/XSJxUBZMzkhySP/YSfqZKW57hccw1hziOJiZFWxGGjfEHXI+OQyTHLI40ul33DhbcjhG6u859p3kf8iS6HnJIasIhqlEl04O7kgvjRNXBDev4SiRtCJw23tecsgqgsGsjzNNu3RyqHL4clErqXIcXaSoctT8BMMjc/rFxalydHveSb/n0DVHw4huzyEybp+nP+0X+P0gfMt0+gFwvGkQd7rExXGnQdK4551W6ZrDIwKTHNyRXhqnytEY9PZFVQ7Pi/eFZ9rKHUARuLtfqhwd/BiIHKocHudUOTxz1AqyC23u9Ot5p1W83SXuLhQXp7tVNbdzWf4aRpVDlWPnPCSJnmlaJb2W4Lana44OZqBqoGmVKoc3hjOnVSeM9Ny1BBenytHBj4HIoWuO30IO7kgvjVPl6GCGKofnwofCM02rVDkOXdDIyS7cn3dBrsrhdS5zWiWtCNz2VDlUOSp/PdcFuSpH1UXNjCpHN39Rq89Wec7CVQQuTpWj2/MGWpDrbpXvzcUtB84zWNzdJWmc7lZ18GMgcuia47eQgzvSS+NUOTqYgaqByKHK8VvIoWsOz2r1gq45uvmLWl1z1B1Ff8/hWcMr8Ej0vFu5qhx+l+maw7PHocBzZu4DhVzc85JD1xyH/kdO73N45qgVvkRyqHLUHIBNDl1zeFarF2RJpMpRt62fP9ebgNK7UNz2dLeqe7Wru1U+b3YlfbaqyypOAWXvh3DXCNI4VY7u/nW1qhwN20g7Pbc9aafntve85NA1h+d+zAW5rjk8q9ULuubonvnpfY66l7g8dy3BxYlPl1Q5jroybtqpcngOrcrhmaNWkFWEy5hW6X2OmgOgy9x/Y/LBQ+5IL41T5ege6HW3yvPifUF3q7qs4hj+5e1WceOQb38ZmacfAjLwRmyj7RuTkeHRpHFUfPEyeAyFc9FfNQ55aa3Dpws5JRuvXDa+ODde+TBxyB/s3Z39QAWNti5Y+Y929OlxVHzx8owoHDduuMYhLy3qfXLjlX9eccgRG/IqeYXdkv6U2KvkHqNMPwozZ2EcJvUIpIVhn0gkDk24iFz9wd2iSOOQdxuaH69cNr44N145zlo+DnlWvFB8jBl5f0KIUKR/6AfhW2ncQuOQ+4FZmXHNpeOLc9tzs9fPJg75d9mLewypZFD1q9vpjbtwv6faJWkcFV+8ZCuFK+OGd+9hHGo1DnlpUf+TG69cPL44N675EHHIsy0ieGOpSibMW6aYfpFJGEfFFy/pSeGwJ6NxyEtj1T6xHBeNVw4P+XzikOfbRTIFN6i1xBxOj0SGPJbGkfHF92wlcRqHfG8p/6NYRwrGK/+s4pDHkXtkDwtpIk1eXo2TOQlLpHFUfPGS1BSujBt+mEB15xDIWuOQu3sfzT9mXPNT44u3jtM4btleo7r1zwaJQ44IX/B42ukTwByLCA5hP0gWRz5tuz8hEldcpcYhb/Wf8zpOlFguDs702cQhP40cDBYV5JDDkU5/5uSAJaTfR8VtT9bpv0hyxKoc3gRLOGCm9DNT3PZASiWH17G7wknPVqlyNCwoTA5VjtZErqyQnX5hKIjh+VQ6jRyqHL49hcnBHemlcaocfreWpdPIcdKCHCankq45fAvpmsO3x6GkynGwRSPH3NW69AW5tCJw21PlKLXC/1TlaPCwKD7TVq6uObo6Y9cjolu+uuY4amh9+0jTNLpb5UvGvqTK0XQUV1bl6LKKs4vslu9ndRNQd6v8EUZ3q34fiT4rcuhu1aDk0DVHN9ecluua45htdLfKswx3F4qLE58ucadf0k7PbW+QBbkqhyqHPnjo+0BZinTNUZpi96lrDk/RqoIqR2WKdkb4zvfu0XaIP5Eu/SagrjmOdrCuOY6aRtccnmm4awkuTtcc/oSgLOl9Ds/t9gW9z9FlFSx38adrjpI7/qeuOXx7GF1z/D4ScXeXpHG6W9Xdb66WXJuocnQbT5WjMTrWiqocNWO4rCrH7yORtCJw21Pl6O43V6vK0bCNtCJw2+M6szRuEHLofQ5fOlQ5GizbF79Icugd8kHJofc5urmGWr3PcdQ0ep/DMw33/gUXJ75Fq8rh9Zdf0Dvkvj32u19+ZUdJf0PeYZSiSpXjmGW4b0YkF9r7A5C4Z9rK5Y700jhVDn+2XJb0DnkXI5+JHLrm6OqMok6V46hpdM3hmUaVwzNHvcAj0SBbubpbVSru7lN4K1eVo+7nXp7n9NxdrUHIofc5BiWHtCJw29M1h9+tZUnXHN4AtS/omqPLKhiX8ffFPZU7GUVxGLlJQm+Kcov4L5ywZ25PEvFYqVSsJeRwOLsEAUxu6MP2426S2RThRWyvMfBlGAdpFka7OFY9By3b64HsvprxQhAg3jZCLpKHLeIHTZMR2WG42JvJCCMCkbg4dMBkMiIac18jsLlF6EgSKY1DENuc4e9BYEZmPl7kaQg0kda7aLIuuFNvmltEnGWFR5PFwV3eu2iEvSeHLymcO3c0RIZazjGkxE/pC+p4ZXskzp372M4p3Nw1iCfEKBzG+V+d+1G4K+edCJQohUNr0+mCjHo3eQU+LqFGVJLGgZQvTPDuO8Ldo20QLA0s89KLsn608I21S2tHVLqzI3v76XF2Yf8Hi/+jTo/C4Xs0hP8j0g7xR87xivbI84LRRvaOgo2u0Ql39po+rt31K9Xgi/11SuGWdoEmF1Rzo7fuuA/0BUvjist9sH/YX3bPx4/WTJO7NI1DahZhskeMudOkFl+0O4tRaO6G3u5vD7XSOJzdjQvUfjhCd47CoYkJpgbktCqC7oZ5etd9lENt2d6hpjvn9MqFre/+9lB7hcF2lth31Mi3Xme/rEObUbhNujbv7NcULOLi0m385p1NZocz7s7dO8GCrbu/PdRK43DYRbT680fK4bPVamFmVzZeh+hpIm3ihwmi7ZKLhKs7TP4djYgkjbsb39DzV5wTB4em7ghzIFpmHIXRBlyjk2uPQjmDTSZ3xSynHzvFom6Zh5jV9f0F5uM2evMjxr3ev3ibZ+vvXv5rN0ns+2Pj4jjNsheMrpghZiqCDvdfK74Vxs2m02W8fiKj16yz2JpkYtMoTTP8eKf3b53b+zEjSmzy8qdXCcdPhXFY3M2wCiXJS+Fmk7lbktt+a5goXYebPHx8SXVu2R6FS8Y3yaufXpAwrMYxLH+1CYiU/7CO89BSuCg369Xq4Z0hmuPiglW8Tv/3uytycAQt3tvE6UJ/ksa59X3w+HHd6+zo/O/SbGGms0W2jtOUHCmLjRma6eNiLC3Uo/eqpXE4LPyG7BNMXAgcmnDbQZQ9NvE6DlOGcuzb6zUGvtxZDE9+UcnFFL6325hKeWq+Du23FOyH9E38gw0hhP2Ji8vy1beZpfvBSUbhKsT1DoCzWUwKh1kjtrgZY82RGxodhRZjahGKvHeDAVc8naGne0H4Uhp3/d459YTcdaFw2EMDN95fU+QIg1WaxWZJXWfZHoVzSwkIFmk3sGcG49Fb78akafBiRV1HHm3NZhmR02ouLsoCky+TK/J6MV8a3eNaiOTmVaK4yXiUvfkeYeT7U5amC7dbZdzsuR/qfjKNGxPYHyTT7lkoErZ/2lYMRz5tuz8SiSuukhOHHKMPjEJewL49CofhghcaGezgkMNEcRAbUgBxCQgfScP4uNDdW6autvhe9rEQmIX1wmkYTz5g5mnkoFnEfKDwS3lkHR4vTw7MDKik5Oi20GmPj5z2bBU9dAgrDKkI+zMicWzlgFFVOVqehUmIKsdR7xdWBFWOhqVPmVapcjSMh+Ig0ypVDn+UdKs0VQ7fJs4kqhxtQlY1qhyVKYoMc0Guaw7fbLUSb6H9rAtyVQ5/lFTl8O2xL6ly1Gjdyqpy+CZR5fDtcSjJKoIqx8GyzRy5C7X/ByROd6u6FYF7P0TXHE3XrJVVOWrGQFaVw7fHoaTKcbBFI7cjUaOyo8jEkYqwb5rEqXKocsACp90E1DvkvtMIL8h1t6pjYNxVySqM3uc4auizDUGgz1Yd7bMLIIcqhyoH/ajWF3oTUO9zDEoOVQ5VjoMFhHe1yIX2/sgk7pkW5LrmOLhGI3cB0ypVDlUOnVb5PlCWTvyxE8ZfIqly+AbS33P49jiUVDkOtmjk9D6Hb5BTHlnXXwL6tnOlQbZydbeqFNHdp97n8O2xL32ZDx7qmsN3BmFy6G5Ve5Df11zAtEqVY1By6G7VJZNDlWNQcqhyXDI5VDkGJYcqxyWTQ5VjUHKoclwyOVQ5BiWHKsclk0OVY1ByqHJcMjlUOQYlhyrHJZNDlWNQcqhyXDI5VDkGJYcqxyWTQ5VjUHKoclwyOVQ5BiWHKsc5kkPjkHu9UsYN95nQLj1fHPI5guuMyEhcCC2wyTKbtc/cr0FIwBAP75Khjri4cB3F6QMjtCGeLtY45Eci90jHK0e8lPcu7NmRw1XVFM5FTkNDZxuHHEyeTe7v6MDxoQny9EVOhYkN0jSN/hCJ4d4gaI55mJKByKXji3Pb0zjkPVGwLz0OuYvezQqjPUKw8jsXEb4/XcNWCxdgnkhcHAJ8f3CB0nu6oPhKOr44t73iMlkG1Djkh4DX+5wLLHjjYsER6bnikEM5rsaJJQPHB3EarfIfyZiAaWCC1R9yMiYgF/f0aN4gZP1Vy7CNintciMYhhxG6ksYh963i4q/y4pDfJzeJXRPcdbFD8ji1tNNj3hXYlFxzpExcED2Zx+sxHU5WOL44N165xiH3/c4rXXoccjAjSX66g6/C/Xv+gtwE36/t9xQui9P40WZrNq7voPhuG+KN09bpQn+Sji/Obc/tA2gc8iN9gwV5f7xyjHnnHId8ih0DN62ihnqEgY7MypLTKizbg4je/DJcXGAgMZberXJv4OAEnR0Ap3HIq+2pRubS45DDWZhbuWmWrr4iyRGZdfjm7UeKa2AaDxes4zRYMuLVS8cX57ancciPyIYbrdBvRVyAY5Di288kDrkGzGz3sr59pG2TskaOHFgSCwbM1DvkZQ+1Pi/gBQv6bJW/QaRvH/HtsS99ma/m0WerfGcQJocqR0sxygpVjtISrU9946FvEuxFYtrsqNmf8BhHrG889G3nSrrmaNukrNE1h88pPKAYxeTzAG55xcR9kQEzdc3R9CrRBbn+nqMcvlqfFzCt0jXHoOTQNUeLFGXFBZBDlWNQcqhylFxofV4AOVQ5BiWHKkeLFGXFBZBDlWNQcqhylFxofV4AOVQ5BiWHKkeLFGXFBZBDlWNQcqhylFxofV4AOVQ5BiWHKkeLFGXFBZBDlWNQcqhylFxofV4AOVQ5BiWHKkeLFGXFBZBDlWNQcqhylFxofV4AOVQ5BiWHKkeLFGXFBZBDlWNQcqhylFxofV4AOVQ5BiWHKkeLFGXFBZBDlWNQcqhylFxofV4AOVQ5BiWHKkeLFGXFBZBDlWNQcqhylFxoiKjiIAAAIABJREFUfV4AOVQ5BiWHKkeLFGXFBZBDlWNQcqhylFxofV4AOVQ5BiWHKkeLFGXFBZBDlWNQcqhylFxofV4AOVQ5BiWHKkeLFGXFBZBDlWNQcqhylFxofV4AOVQ5BiWHKkeLFGXFBZBDlWNQcqhylFxofV4AOVQ5BiWHKkeLFGXFM5Jjal2YXTJ4SWzuZogDU57w8c/RZIbXudJJGGcR78iFdaESjUMjCJ3kM6FdSsMYIZHia+p4xUmhPRqXjGeTEQ1DNOnk/R0Z6y9K4zQL6TjkscmDtQ3Jd+9ycWFqstViRl+HC5/l4lpTSRqHd+Wa7ImMz55G4cJMp9fZdm0CKiZcvkb/wv8aQUFbxcINJrOb1heNCmmcTSaIA0ufH4VzbxqeF29q7gm4hzfHRukq+PoxsI3LahXL9lpfNCpuZm7gAXWJBLIhppjNiLMzcYx44KlN3an2/eXZuzWio4V9GPcdF7cKHdmSGXEZY+dL8KibT467x1u408cN5e9bRDY0STJ6esI4BGMSaTFJJjNybJ68nM4RgYpM0ri7SUFd8rgkzg0AyeSOMEachSZIn/I78oD79kgcjDafviSl2Y0AV8mI7K8csf6C4G1EXUeaBkH6IRXDxdsoD18gfCWRoBnTF7ANlaRx6F27Jq8WI8sqXYIc9g8jIkC7+3ppEQb92j4woCMEaeckWdwLF5Ae8eapROAWMMatfUG1gu+XONY3JI7f3p3l9MM1euGFfUkeFx32cH1HXwiMhk59WFINcnFwkA92AU/hpLdAcpIoDqf2wDm/P1gzSe5WGye8RApCN22e0powwhD4mhoP8L0wDmf3PknuyQOTODSBhsg1B+YhUfTmaUkecN8eiYPRZjAKldAB8ykjDnluVtFq88cN0a0mT03w5o9vUinc5ofs6ZGxmLjBhY5cYFwiSeOgRPZd/j0ZSNQ8bRbmarqM4nUWo6t7U5At5nNyUoVJ5AIXXMwo+69aGrf4UxEJkzxDCocGMEH706LXGPgyyFfRu7VZ9F9lsRwv2qNwO6MtnC/0punYjQD2iTo/gzV2kL9wmy29CVHIw831hux/Li5aPz1FD72XsPtycnV1fUWTI5HG3c8fPr75nrTL96FZYFq1wGIc+y5EwuIOFzUdNyIXt4rFQhv7Va0vGhXSOHjp5BUm5FQiccn81QRGIcwRY9ERBKuVpY6H5X3RHoXDXhXsi+0CIrlOmEzsljo/dCo0wZL9ihVHYEbYriQSF5eH221sZzjH/nQPzYBHfXIcrGy32yAnLjfOVymmVXNrwhimJFL4dIsRi956u7q9gm+5ju5P0ji3QeI8q/+orkP6ca4J+KklzBHlcRiFYUzOg8r2qPNyJpvAKBRuPAfw/i2pHKEJERIce7REcpta2Mp1k8TexMVtV0H88QV5Ge4yXy2wtcBIsrjJ2G62+bb3YvFlGIZut8oioBW9z42ownA80vfQnNs2op1UGkeGM9v3AokrrpIThxyzdMFQy46TycSpM5Ew4hY7zdQiwcUE1DjkbWPCeAjgRlnPADIUORgsKkgkhyOdfm8mEvdM5IAllBxtV3Y1z3iHnKscpz1bRUuMsMKQTn/m5BhEOTSabJtuqhxtm5Q1JIlUOTqnHBpNttMsu0rE4y3cpnSyo5/CisBdm5BOvz9hEvdM5FDlOOpRFzCtOmlBLreW2JGDbo90+jMnh645Lpkcqhy+rrpnCs59t0rXHG3G6ZqjbZOyhlSYZ5pWqXKUPdT6vIBplSqHKgf5xBnENHR3CFoO3lUh6/TcLV9Vjq6+2NWpcjQ5jltiHKfHrWIW7oskhypH06t0zeFbpCipchwfmPePj9C7S9xdKC6OVIT9OZM4XXN0uLwbB1Q5Og3jKvU+R8M0ulvVMMiuqMqhyuGGUtFple5WHXUq2YX7IAtyXXP4I6UwOfQO+SWTQ++QD0oOVY5LJocqx6DkUOW4ZHKocgxKDlWOSyaHKseg5FDluGRyqHIMSg5VjksmhyrHoORQ5bhkcqhyDEoOVY5LJocqx6DkUOW4ZHKocgxKDlWOSyaHKseg5FDluGRyqHIMSg5VjksmhyrHoORQ5bhkcqhyDEoOVY5LJocqx6DkUOW4ZHKocgxKDlWOSyaHKseg5FDluGRyqHIMSg5VjnMkx2cTh9xFf0HwCiIheE0/bow3LCB4jc+EdknjkLdt4mo0DnlP8OginNmzxCFPipCFPadWfIX3jfXiwC33ve0N3o0fkGsccmeE9p/GIe8ZnaXji3PbW74uTgqy0J8o3K6B10sqZpzGIT9iIY1D3hs8Wja+OIKLs+Kaf3DhpRlIAndXNAMQmTQOeZeJNA553+AsHF+cG6/cxt8GT1lmjoxnVTWFM1n2FHxLv/hS45B3rzk0DnkPOaTji3Pbu32Tm8c4CmLT/7fH4QV+3X8IOv1o8je3VLRRjUN+xEIah/x4jOliQf4cccjDbRBsyMjC0YLChZsg2IYah7zS2l1G45AfGQxc9dnHIcf7B7erLGj0aauIPdpeXJCttnhfm8Yhb/iCxiHvnkYWtWcfhxy7irt3dPZcBL6yFG7/JsP+VvaHOvfIThqHvL0AGOR1oOd+h9w5few8uz8V5OjD7ZogbwLuOUaHadm/tb3dS40ajUPeMEhV1HflVqZoZpjRaUlF2HOGxH1OyqExAZvehKcjEotgCv0jKL518akMbgZjwA3JIfe0aRVOgUqF08vhSKc/c3Los1VHHUaV46hpVDl80+DxMQx+5GCGoQ/b2pzZITMojQavOa42qhwN2+ynX77ndpR0zdFhlKJKVhEwZozGjJnIINOqc/89B7ULdebTKv09xzEOMZ3+WclxCbtVBUEaI3yjSK5NnmlBrmuOSyaHKodPM+FplSrHJZNDlWNQcqhyXDI5VDkGJYcqxyWTQ5VjUHKoclwyOVQ5BiWHKsclk0OVY1ByqHJcMjlUOQYlhyrHJZNDlWNQcqhyXDI5VDkGJYcqxyWTQ5VjUHKoclwyOVQ5BiWHKsclk0OVY1ByqHJcMjlUOQYlhyrHJZNDlWNQcqhyXDI5VDkGJYcqxyWTQ5VjUHKoclwyOVQ5BiWHKsclk0OVY1ByqHJcMjlUOQYlhyrHJZNDlWNQcqhyXDI5VDkGJYcqxyWTQ5VjUHKoclwyOVQ5BiWHKsclk0OVY1ByqHKcITkmc2vCOGiEKmkXv7TgNa2oN42KMsjN0S7df4EYWMkYcc0pXBEe/er2isRNk+QKLwqnkgmjINw8pBQuiMIgengKxXCxSdf01brLfLXAlTCSLG4ytpttvm17uF8ThqF7y/oCzEAkPCKZ1F3xdHw84Nnum88l7Jlvqo7SPjwaZY9JMn+F1+UuKJxjEN54n5C42TSZJpaM7xbnWRz8YLOOM/eqsr98DDMbpl5lR4GLW6/DaGuTGXUd93ghNjxq+qlxsLLdboOccPc4X6XWXE2XUbzO4g57eFVptpgX0e0JqnMDXErjqECY+/CYhsJhJC0CZnaH0zzUljjCHMncvRR9/KcFhRsn7m9xQ+HAnvF08tXmcCadObN6t1rn5sXTkbig1T96E2Xmlx/Td1VF9z8wXNwv0TravIC8UWlydXV9hUumkjTufv7w8c33uefcHYXvQ7Mwk+RutYnol8xGYaEcuxj2fRf0mYRapkaWMiRznymK7+6T5H0xSFLI15hZjSgQxtp5Mr5CTJX+FG7Dp/yHX+xjPyyOv36zXn9tv6NiKYZMXPyXaJP+YDEkEMmNAqMpTQ5pHGhr3+Xfr/wFZEfpabNwwWv+MOqKtt6oW9q31l5bxGAn08jekRgHkMV9sO7k7lzDvelDP+6u+BogIt0xcQsY99a+IFpzX9/BIJy0BAh9QaXR6KW9W1Co3TFf0t1anBsDBydZ2OUdedwC8NbSJ+iAorhr13P4Pyr9wa05Rk9PAcLpkWkxSSYzckiYvMTQRutLIo1bvi6GKvLIFG7XwOslMfDtL5HGubERYSPuqPYStDifvqQjYqEhrDno6UixekGfEcl16MSSZnPTQxaumFC5SQaRgJu+YFyFNA69YdeUToILwSpdmun0OtuuDbldlbstCNfRRCoW5JPZDQEbS+NwdsWSiDouhUOfunYs1Q4fhyU5AqZQ7d3MnB9b0r44OfQCjbtJMJ9j4HByxV4adX5sXPJ67vqWbK+4iuTmk+PuERYreNx0LDO8qm2MULzJ1LrFSfcyrFYbmzu3AwGDE2k0mTEGBAiWLA4bJBja6COTuDGukbP1ysW5MXc3FBCGw37VhLPmQIM3b+k9UAy58wSxjoiE6QBcAP9HJC7OHXDyQJ+eM4uFBpJJGoeBymRPWc21O/ci0igs1hy8gJnnfoe8CHlF9rGbkADUgyu+HWPsI5IwjnuHHIfFFTBOjxu62Xk9gxxA8XGjPgNXduWFKUNnscKZcXG4ii8vmizl9Ps+OVdywJ2knZ7V3klOL0kirjNL4wYhhypHNeQVGVUO3x5liasw0k7PbW8Qcpz7s1WqHKV77j6ZSqTK0XGPA1VYhbutXNxQikIyrnWkytF0PjcTYkz+MaQxcJ/VmoMz/eKO9NI4VQ7fj+slXXPUrYE8dxokjZN2em57g5BDlcP3Kl1z+PYoS1wScZ1ZGjcIOXTNUXb/7lOYHG7uJbxFy2pPlUPXHJVjn+u0StccVRc1M3qfo2mRqmzdkIrxjUik0+//PYmTVwQnCpyFO2uk55KIq0SqHKocFbXOlRxcpwd3pUmEWTg9+IiTSHotwW1P1xwVF1qZcyUHd6TnkojbnrjTf5ELct2t8okmPP3iOr0qh98NtRJvbaLKUTNZI6vK0TAId6SXxnGnQdK4QcihyuF7lSqHb4+yxCWRtNNz2xuEHHqfo+z+3acwObhrBO70i9uerjl0t6py7HOdVnGdXtccVVc2M7rmaFqkLJNOvweSOHlFcIO43ucoO+rwyXNm7nSJixtkWqVrjkO3upwwiVQ5fPPWSrIkGoQcuuao9Zc8ObhrBC6JuO0BB3fB/6gkjeOO9NK4QcihyuG7jyqHb4+yxCWRtNNz2xuEHKocZffvPoXJwR3pVTn8bqiVeNOvQcihylHrB2SFycF1ehxWn63ye6IsPSM5VDnKTth9CpNDlcM3b63Ec/pnnVapctT6C1lhcqhy+OatlS6AHKoctf6SJ4cqh2/eWukCyKHKUesveXKocvjmrZUugByqHLX+kieHKodv3lrpAsihylHrL3lyqHL45q2VLoAcqhy1/pInhyqHb95a6QLIocpR6y95cqhy+OatlS6AHKoctf6SJ4cqh2/eWun5yPHZxCFPEDOHEV0HwWt6ca4JTtxwaVwRe4cTh9zF6BHE4XZNcrWgw55J43BY2fji3Pa+yDjk8JlXczKM9wQxj/txzLjh3PjiXBw7Djk3XjkXN0EUJjsl44GDkaI4jUNe08ZmVjoO+eJPEAQX6YtIFA4NQDrouOHSOG4ccmncK9jr/ZKMjpZI40A2jUN+1FeF45Xjp3bvkyJI5NEjFl+QuHtm3HBpXMKMQy6Nc3EUlzc0O4RxN+gNjUN+PNyzbBzyFwj3bUd0XGsCx40bLo3jxyHnxivn4VxUc7so/v94T+EbaVxxMNH44miR1d4XGIf8DpMh9zQ3lUhc0Qojbrg0jh2HnBuvnIdDGOhkcktHf5XGSccX57YHH/kS45BPsBzHpRMJvwjtxbklByduuDSOG4dcGoe40lP8TJa0mzgOgwsOq3HIO0dz8TjksDa5HHcdQuHQCCtuuDSOGYccZ8eKV87ETd2IsqQDgkvjNA55Jyv2lUVoAdxUoBITR75ypzxssanVc1h8xXyVjiiOfYfcTR/PPQ4554UNMLNofHFue4P8TFbvkPs0licRy+kdIznkOAEHdwGaStwXJ3BxXGeWxg1CDn22yncfYXKocvjmrZVkFWYQcqhy1PoLWWFynDDSq3L4PVGWeCQahByqHGUn7D6FyaHK4Zu3VuI5PXf6NQg5VDlq/YWsMDlUOXzz1koXQA5Vjlp/yZNDlcM3b610AeRQ5aj1lzw5VDl889ZKF0AOVY5af8mTQ5XDN2+tdAHkUOWo9Zc8OVQ5fPPWShdADlWOWn/Jk0OVwzdvrXQB5FDlqPWXPDlUOXzz1koXQA5Vjlp/yZNDlcM3b610AeRQ5aj1lzw5VDl889ZKF0AOVY5af8mTQ5XDN2+tdAHkUOWo9Zc8OVQ5fPPWShdADlWOWn/Jk0OVwzdvrXQB5FDlqPWXPDlUOXzz1koXQA5Vjlp/yZNDlcM3b610AeRQ5aj1lzw5VDl889ZKF0AOVY5af8mTQ5XDN2+tdAHkUOWo9Zc8OVQ5fPPWShdADlWOWn/Jk0OVwzdvrXQB5FDlqPWXPDlUOXzz1koXQA5Vjlp/yZNDlcM3b610AeRQ5aj1lzw5VDl889ZKF0AOVY5af8mTQ5XDN2+tdAHkUOWo9Zc8OVQ5fPPWShdADlWOWn/Jk0OVwzdvrXQB5FDlqPWXPDlUOXzz1koXQA5Vjlp/yZNDlcM3b610AeRQ5aj1lzw5VDl889ZKz0eOcXKX5iaODZGi0CIkEt5hTKTxCIFQbmqXdiQ7XSCITMIImsLEIRYOzo5ODNw44UWHEcbdwBijMWFevOB/UoRiksJdIdzaxFKtTRBoWRaHSFHJ6B6WJpI4bjIeZW++zwl3N1maLsx0tsjWcZpS4CBCkKpkijfEEsm+AmY8J64Zr/O9QogimmxcnDs7cJI0NoVDuHpHbdJdpHFzMHvyyp1df8L0CwmheojExZXhzIjm8PUuPJoUzl0GfbXFK4mlcTajtcCs48gaDBtplKZZZPr/1rm9HzPCik1v0W83NIdurpMrBDmEj/UnLs7e4OSmdOBHEufOan5D95s0bgJOjm9xcCKNb5JXP70gQPiaiQMMYc9+IntWGodh9r1lhMaWxsE7bfD4cd3v7VH0XZotzOzKxuswCCjl2MQPk8RpK5GmdnyP+Q09PXDu957SF4x/TNwoSa7Qw6RyUDhc4BwUG1FnJo2DyZL7sSXJ4QCTyR05CnBxaG169ZLo1OJrYRxmaS85MxFh3Gw6XcbrJ2oZEa+z2Jop1hxpHFLcMNkjvHRKBh0tQk3OMDOhnAth7aY/FR1NIJm40Wuc3hRhHYlE4YpGktckOcRxN27gQThPImFEQaxJSZwbS7GaJBKkSBR3j77HYSfEYTHSyuLQ3CJa/fkj5fDZarUwOPTL3ujs1ZffFJHaR0SyI8R8tw+WgI0QUN1+A6QY7l9adyHXZHsEDiHc0cy/JM9LGgeTLSyMR56/vQXqjoKhF7i4xZ29ZvSXlcWh+y2umbwQaVzhzg/2D5VbH838aM18vMjTMIyotDZufsNYQC/Sd28eP5INGpvHv6zTNXVcLs4G4TrfmJRqj8KlZpNjmmmpdqRx4cfHN+/SBal8Tr4nY0tveHBx2IdKrmf0NFgY57Ztlm7vjUjSOLjwCxO8+47q320QLLEgH0UxXJmSmSh3GzjklBhClAXrIDIx8Rcttuk6jbFL1o/k4m7zNAuiLbbo+tujcPk2CrI0v6XaORnXf1qxiWC2zA1ARHI71oxQy5iksXBFjyLmMZWkcTg7TA6n9IGlcZiT5gx/xyp85KZVJo5Cmhzsm4DY9kKLFNmMjeIgjqiFkeHibHFAxmEpnGsiwmKMSsI4Z4moUOd+N5W+k46bj27Tg95elMZhJ+ALjEPOJYdx5KBcEOTg4aw7bPG//iZJ3K4ZJjlwdlRitsclxwB30pUcHX2I/sB9Dq5ysJ+t4pKjUI6O02pU7RSmUdkukk6//yckjunMey5+cnKochxVVp4SYSjgTFhOI4f4tIqnCKocDWeY8NYSJyiMKkd7rMXMWpWjbRZVjgYb90Vdc7R9pazBYhGLNnrdhlka3IuxmGCuJVQ5Gr6qytEwSFV8xmmVrjnKcWL3Kaww3AW5rjkqMjQzz0gOVY6zIMcJawnWfQ60p2sOv2eLkq45OowivQvFbU+VoykEVZmnCNz7Jrpb1eX1u7pL38pV5ahI08zwSDQIOXTN4TNO1xxN59yVudM07kgvjRuEHLrmOAtyqHJ0cxK1qhy+hx5K5HRpDyVxwoqga47f6cxcp+fiVDkOpGnmLp0cqhy/k2yDkEPXHD7PhBVGd6t+p9Orcvj+WS+RirAHkzhhp5eeVqly/E4SqXLUaePnL50ceof8HMmhu1U+y4QVhjutUuU4R3LomuMsyKHKcY7kUOU4C3KocpwjOVQ5zoIcqhznSA5VjrMghyrHOZJDleMsyKHKcY7kUOU4C3KocpwjOVQ5zoIcqhznSA5VjrMghyrHOZJDleMsyKHKcY7kUOU4C3KocpwjOVQ5zoIcqhznSA5VjrMghyrHOZJDleMsyKHKcY7kUOU4C3KocnxCckjHIU8eVo+rNR2Ac/UicPGd3YPfvYmLs/nqMd6EZLwPCheHq/hxlZNvT5fGBcEahnsgQx0BoHHIO6JBucDErLjmzxuHPF5t3zxuYyJ9a8OvTZoTqDjm4hY/mO/yx/WGapDCbdaP+XfmhwXVjjRu+/hmu4rpyE6YViFpHPKmfjiz0NbDb2kBe7445D9+fAzTp4BKGxvm8fqHXApngxRs+/g11R6F+/qj+TpMA0u1I40LNmn4+PFHOq4cM764xiFv0mdXdlHUni0O+Rjel2XrPIz7/9If30TbjyboR4UxFzeKEcnPrExMHJfCoQlEF4xHVDsn44gLzddZBk6SMfIcezQOeYfjM+OVP3Mc8sd334X5IxWtM7Ph+pdsTUaT5eIs5jmBycgothQuzEyA2RkZTVYa95iH371DrHcqLrfGIe+20D34wolrDtgzxiF/QDDw6ztGPO0i4Lcc7oOL4r2k2yNwrglrP9DtSOPurhHanBMPnBtfnIuTjS+OKPSsuObS8cW57RVhx58rDvnVEmG5Xs3pXResnn7F8qhj48GrcqssDm5xgzFhnpDxtCncGI0kyc3CO4mOgjQumb+C4ZZXHYfyqjQOuWeOqsCNVw4jP2cccrchQE6dk+kIUeSTifPE3sTF2clsniDePJVo3FUyn3ECfQvjYDK8Uok6fbdjyYu7wcRJxxfntudc5AuMQ17E5XI7a/0JUdTQy/0Y9y0Th6UsGqPbI3FFK2PaS4Vx0ne+ue3BZI6TtOGkceisLzAOuXN6hrF3Tk93ChNHOv2ehiRO2OmdJWARDtl4ilCMKXRz7qAJRwClnZ7b3mdFDvazVUWvcJ1elWNvAe5IL40DiVQ5Op7ROC3sGfvZKkcOGJxKTEXYT6vI9khF2J8PieOP9G5wpodwfnvckV4ap+T43eRQ5fDpznd6FomkFYHbHk5OyfG7yaHKMSg5HIOYawRpnJLjd5NDlWNQcnBHemmcKkcHM1Claw7f3Xcl4ekSnM+JAmdtIq0I3PZUOTr4cRo5VDl8KvGdnkUOaUXgtqfK0cEMVQ7f16uSsNOrclSWbWY+o5uAqhx+5wqTiDvSS+NUOVQ5KsfW+xyVKXYZ3crtZIeuORp+UhSFFYE7rZJWBG57qhyd3NDdqi5ucJ15ABx3d0kap7tVHfxQ5ehihypHl1XcfrQsiT6rBw/1DrnvNPIkklYEbnuyTs8l0WdFDt2tGpQc3DWCNE5cEb5IcqhyDEoOOCl3pJfGqXLommPn2+e6lSutCNz2VDk6mIGq0xbkqhyqHJI/p9U1h+9PXon523D9DblnNbythTf94uJUOVQ5Kg8712mVrjmqLmpmZJ/BwgorxpyJSqdNq3S3yu804a1c7kgvjVPl6KbJaeTQNceg5FDl8M1bK6ly1IzhZ5lrE3K6tG+VxAkrApze+T35YydpReC2p8qhylER7lzJocpRdVEzo8rRtEhVVuWoTOEyXEXg4lQ5VDkqB1PlqEyxy3Af95DG6X2ORkfUi0xF0PscdaOpcvjW8Eq86dcgW7m6W+X1BKYjbplALrRPwEk/M8VtT5+t6phZnbaVq/c5BiUHd40gjdM1RwczUHUaOVQ5BiWHkyF946Fv4n2JN13irmFOmVZNZgghiUh63fyp1YaYQUzpyElF/BUETqlC7hzJ7HFHvj1Uc3E2mbvQNdPDv+zOUTgXfOVqjpUOkaRxY0SlceFciMNOpHGIhuOmVeRxuTjHcRecj0roLMxJp+RxpzAL4/QmXBzMbNN1nNc8uzMbxrE1GK3ygMGNKP3weub6j0jjh/GcNg0sI4zD+j5JXhVxhXrPkMRNX+HfMwJbSOMQtG0Oo/Se/O5LUdy9u9qF8+j+xMWhodl0Sfo8emsKI7tWiTSezywnZBcTN07urVn//G0nI2qVeRovzGS8RHDiIK3Vd2bjwK09nXT0/02XcND5ALjuIKJVLeKwvkY3k9FYS9yxy3Bd9Xqc2P6rHLuNzdNw1Zl2Z5IphpTpYtr97aFWHAfHG9/dk3aDnha4Y3Yr65Orm2R8Sw+PCKfuFOHmcGXdOQxVBde6vz3UVrjyRI58onttlmWbTievVcZBAOUY21Vu4qxW35kNgw/v7ycM6cAV/5XzMCoJ4xa/YsiauTiD/YnCTV0rya+L/lbcMCGLw/FgNjcAkUkU95M7HON3Glxc4SF0xOjxDEOLTf5EXmwyv+dZhYt7NX/4mK47fdyrjOI7kyQPCB8fBd4XHYXcuI6jR+bC0PdXB0ofyUnj4M03GK/mRw5XVVM41wYGtUX1D45kpHHjq3tYl+FVwjhcbjK1HOVg4uY/YZpGD6KwsXP6I+P7Qbdh56mdJVeHmu5chTvSX2U1zsx+na5XHS7uVcX5ypqb2SIN4thERIrjJS5nTDIdE0RWksbhsLhumIhIJA5NOAMSzRSHEsUVB4QbsJIcbpJMp4yrBXG5OFwAFnbUxgLGMndYssMmgNCd4YZtHg5ntzT5Y064e/QujhZQDlvENy+Cl/f837VFDPmFC2Dfn5a3DkYnaZx9aXFknCOVKByauEUK/fU4AAAgAElEQVRjZJLGFWa7XZLHFcYt7eiWYzYuDuc/sg+WcR1fOeQL+nph6Bf2Tg6Hpljt/dGa+eQ6SOOY3MrNH8HfK3qrdL4EhbFPR40c0jjsA7idAPK4FA5NoKHpkjp/cRyMNk+Wc/K4wjg3F7h6mJF24+ImyQ02S78mF7yh2awx+7qhrneMLaCXV+TpYYubh3P7pNlqS27lbtN85JTDxFFIkiM66SYg7uNSafdslRiOfKBwfz4kDmeElRWt5MI46Tvf3PZwsW6pQ/cDH4eNcEP6E5wu5hwW3fZ8NwGHIQfD2AU55HCk0585OWCJz+UOOchBz0Q+L3IM82wVPWIxFebSycEd6aVxIKUqh7dPtSucwbNVqhzV7FOVozJFI3MB0ypVDr/PdM3h26MsObvomqO0RuNTeC2x+7ETrTCXPq3CFeqao+FK+6IqR7ddUKtrDs80uubwzFEv8EiEFZb8S91O2sqlR3quInBxqhx1P0Ger0QDLMh1t6rRG/sic6TnKgIXd+nkkFYEbnsg0QDk0PscPeRQ5aiMw1+465qjMpqX4U2XuDcLB5lW6W6V12OO/pi5iN1J54700jhchCqH3ufY+TY5/RJ2+hNIpMrhDz9lSZWjtETrk7mGIZ1+3zCJeyZySCsCtz1Vjg7ZQJXeIW8xERXPRA4cV5Wjqz+4awkuTtcc3VZ2taocDdvomqNTOlQ5Gn5SFFU5uqziFJW7cNencrstiFrmGkEaRyrC/oRJ3DORg7tGkMad4PQnkEPvc3TzoyAHTE4lYRzp9GdODlhM1xzdPqO7Vd12QS1TiS6dHNKKwG1PlaNzyaG7VZ2EfKZplSpHZ2+4SlWOo6ZR5fBMw1UELk6VQ5WjcjBy+qXKUdnKy+huVTeLXC3eFVG4jWewrgJzpOeuJbg40un350rinokc3JFeGqfK0e3zep+ji9zPRA5dc3R1RlGna46jpmEqEakI+wOQuGcih7QicNtT5VDlqLh3ruRQ5ai6qJlR5WhapCqrclSmcBmuInBxqhyqHJWDqXJUpthl+LtQJzw+or8hb1h5X2SO9NxdKC6OdPry9PCQhnuK7mjSNUe3afgk0vdWdVsQtQU5+rxv/y+FcZdODlhMn63qdipdc3TbpSQbZtBEunRycNcI0jiQkjtd4uJUOY76qrAicJXo0smhynHUo55POZ45Djk3XjmJo+KLl0FSKJyLuKlxyEtrHT4RDM4pBxlFZuxiCNm4ewuoVpvH69QiwNzhCN05bnxxLk7jkB8dhIolUX+8cun44tz2EJbqc4hD7mL6vv6QksFrvv15bVyczp6u2n3FjC+eMHEah7wMHdrxqXHIfaOU8cX92naJjXPSawNSOjYIBu5e+tU+kl/zSuOQ94wfsOBf9XxdfkXFF+fipOOLc9vD+eEy6XfESeO48cW5OMy+7t9/CMLaDKo7u04/Pszh+lTixhfn4jQOuT/61EsLIl454mVqHPK6wfZ5F4yUFa/c7StaQwakXK3TrzEUzLqjih9qXfxSjUN+ZAThxit3hnYdSCUShyZE44tz2ytOXC6++M4OdHv8+OK8OOTFKmKJ8MREyhHQ1UW2pxI3vjgXh+NpHPKjcas1DrlnGm58cS5u5KLQF0HrvcO0CncuBPldq7qjQuOQd+/joZYbr5yKL14egMKJxxd38wJOXHPh+OJuAc2Ja86NL87FTXHcxD6S06p8u8oe0GjZL8c+ufHFuTiNQ96j1eTNQn22qtt6/Dvpeoe824Ko1Tvkvmn4ZNNnq3zLlaXnu0PuthbiKCRv2uhvyMu+2n/ynd49GULu0Uo/M8VtT5+t6t5p1t+QN/y9KAo7PZyPRQ4Hwnyk64z8Onkc94FCLg6Xob/n8DutLBXTKoxbVBLGkWuJ/fmQOL4zc52eheOO9NI4nBzX6bk4XXMc9X1dc/im4ZNNlcO3XFnSNUdpidYnU2FIRdg3TOL4zsxSBIBYOGlF4LaHk+MqAhenytFy4rJClaO0xO6TSQ7HIF1z+Kbbl1Q5Os3iKlU5PNNwFYGLU+XQ3arKwc51WqXKUXVRM6PK0bRIVVblqEzhMlxF4OJUOVQ5KgdT5ahMscsMsiDX+xwNK++LzJGeu5bg4kinL08Py163f3Q08RfQbiZE37Vjtscd6aVxqhyqHBUXSBIxnXlHMTlyOKbpblXVTfWMrjnq1vDyTCUinX7fKIl7JnJIKwK3PVUOVY6Kb+dKDlWOqouaGVWOpkWqsipHZQqX4SoCF6fKocpROZgqR2WKXUZ3qzrZcdoj6xoT0Pcq4bUJd6SXxqlydHJD45D73r4vCTs9nM8tJzhbvrpb1dkhGoe82yyuVtccnm1UOTxz1Au8hTueLY4xZ6LSadMqAy91wyCVCmdmAIVx5Fpif94kjj/ScxWBi1Pl6PYtntPDOUfFDd7uRqraQciha47KvkVGmETSisBtD8zl/k6Di9Pfc/ieUisJK8JuWoUOJBKpCPt/T+KEnd6dua45OiYxmNtYultdr/EUgYtT5TjOpHMlB3ekl8bBP7mKwMWpchx1P1UO3zSqHB2ygSpVDt9PvFJBIoyDVGLiSEXYH4fE8Z2ZO11i4aQVgdueKkc3d3W3qouYz0QOxyB9KrerQ3TN0WmVolKVw7MNVxG4OFUOVY7Kwc51WqXKUXVRM6O7VU2LVGVVjsoULsNVBC5OlUOVo3IwVY7KFLvMIFu5n8tvyCeLKApSQ0SpiuLNNaKBTendpcUcgxYjCeMQJXbm4qZQicZdIVAdJ3KlNA6iMEfEQjrJ4ibo0weENKMSEzdBS7PrDRn2zCCcLPqCPK47MxevnEpsHPo2yzakv6dpYM14vIhMRj+Itdra8Zzh9fe3kxtciwsE1Jukcfa+MCB5XApXNDC7J5+ilcfNkpvJ7X2v0fDlGMaVxN2gzdd39KjCxWHiNx/b7ap7snKozYJodUeHcERz01e3GK3IxMUl87tVFGSHM+nOrY1ZGMQPTIMwWsVUSuEv0/n0WHiqst6NuRMM4mX52Kc07gF+A88aHzteWU/h0A33+N9DiT/2KY1zcVXdGHnseGW9OG4XHrRs/ujnPozo0e/LL+AiuIyU8qb4zdcGATOns/LfHft00gKXujn2fVnPxc2mCJhpvn5DnWC0ykcGgWzTGAHTAyKtv3vA0OxOgUgWkbedwakkjMO63SXyBCncrgE6UIY0DiZzsYwpqzkfFcVNsSJ33kclLs71wOzhuzXhTkEamxXjsMUGhCQO12lXJk6p8wvj7NokcxuZfENSPVrf3tzPJqS+3Xw1u8EJkOyQxo0SBHy/IU8vIXFjnP4rwKgkjHMGu5l95WzXm6RxsNjk1Vdkd7l5Mg83md3f3K4jamT+9ufvo+V8thvS+q4Ys8i3yes+xO47Jm4ymy+j73/+ljq/1MQWyrHcbsOAXEDl6x1/Sxk79olRCNIxuTr2fVkvjcPibo7VDjktoXBOwedYtJXneexTGjefzGA4eloljUPUWcbVuj0WLg6+atc5tcET5FnhUcfsW9ZPwVssyMnpPBdXnF2WB9T5haGxZjZZbDZRHMam/y+L7iDocBsqXSPoLY1KEmHc7ftiTkVOqygcGsB/72+py5TGYbkEw11Th8X3srgbN3bf0R3GxY3n82R2F2WEO5nNX96Y0YRekSNMdeL2SanExSXzyci8+cuGOL84zNMlFuT2pR0hsDqRRtY+2JFdErDi61sAOUkUd4sjXjPOj8At0Yi1DtSfpHEwGX1Qd0rCOBzUXTCZuLglTvDBnSWVlnZhl7Tf2Ts0RLdm2bhFcWDq7PD9S0yruNFk2T+TNYhMS98EiopfutAj1rn/hrx7I7BW6+L0RpBoKkUx5rY0DK/FEMUhkHBsWCterNw5v06CEk2s8wEifVaPrD8rOdyWSn8i73zv/zmJc53Le1tIgSNcwBHjCyQHPTh+ob/nUOXwCHMKORgCUyiHIE6Vw+utqjDQ7zmGIIcqR63XLmBapcrRPc8p5pu0cXTNUbn7LuPWEoKKwFUYVY5GP+yLqhxd9NY1R5dV3ELshAU5PTjqmqOblEWtKkfDOKoc3aQELVkva+PiQHFslDWM3y6qcnR1hypHl1VUOdr8OdTgFVyF23Rbrlara46D0VxOd6t8e5Qlvc9RWqL9edq0SnerKgtexE1AXXPU5KKWVeWo/LjIqHL49ihLqhylJdqfqhwNmwgrAvcxk2G2clU5anJRy6py+F6vyuHboyypcpSWaH+qcjRsospRG2G97AVs5epulddjbovAPaDYcPF2UZWjbRNXo8rRbRdXq8rRsI0qhz/4HEqqHAdbNHJn/sbDhou3i6ocbZu4GlWObru4WlWOhm1UORqjYlVU5ahM0cyocvgsciQSfHp3mK3c4rkA/7ybJVWOpkUOZVWOgy2KnCpHc1gsy6ocpSVan6ocPotUOVousq/gkUifyj1mP7xOoohVjX3YY0mfyu22jP6ewx+k6iV9KrfhM3qfo2GQfdHZpXhKou49HXldc3QYZV+la46GbXTN0U027o+YuLhBplV6h9zvPFUO3x5lSZWjtETH5yAPHurvOSqdEVaYYbZy9ancDmagahBy0MGiyIX2/mxJ3F4Rui+uVqvKUTNGLavKUTNGMzsIOVQ5VDmajtYqP+NWrq45/N5Q5fDtUZZUOUpLdHyqclSDfJE55cHDz+ZF0rrm6GAGqgYhh645KsbpHfJuv3vWrVx9y7rfKUNMq1Q5fBvvSry1xCDkkI5DvkyjMF+TYaUCF2IJF7S7/p7/Z8Yrp+OL745B406LL06Fz0pDxCJNoyWFMyZANKEFaTd5XBiurt/3dMD+K41DXol3K8ONQz632+2bLEtbDTQqXChRBBcmA1px45VT8cXL3qdwRTidE+KQNy6rVQzSPM1MSv6cNg+CVRQtWv++WSGNy8J8YxaldY5/3uArTrxyjHcah7wMaNj8TGz+GGVRRkXrXN/CijB48983y4gmxIpr/gCu3Tu+EYnCgRwnxSGnrhPEMOsotxQuCrMnk5GwWBqXmyyLRpN7wmxQeIxjdDzPicYhPz7AJJO3v+TvNquYivP889tf0Qoj1C4zXrl7WSkSGTCTwu0a4Mchp64zCk0QpcGSwhmTbeLYknYTx23i7OcXpIDDsDAwJzwaDKhxyAtfbP/f6+t3eRZgAk2k7A5WHNOdwo1XTsYX358qiTsxvjhxmfEmRBzrdbagcDEmoo+xXX9q3GOQZsGCjuoKRdU45McWjvw45GuTZ7k51k5Zn2EUmoMfpJwz45pT8cXL41C4U+OLl9dz7DM1UR6GqT32fVkfp2kcP1kyfrc0zu2dvHNTVyJpHPKe4MzcOORXbzfrKNtse5oqAp4Ht3M3B6KlgxmvnIovXmochcM54T9+HHLiOg0CvJs4j15QuDgLsnT1zepT49J36Sb+8b40z9FPjUPeE535hDjkLlY5Ga8cEaiX+ONEmEaAbgbMRfE+wzjkO1t8wAeRrnH27o9KwjhYFl1B21fjkDf3DWtlhNLGimy36j06vLgvvrA75L22cF8WVhuTS1k8A4Af8JIwTH9kcTg/bjgzLk5/CXjUKQYhB81K8lH0/QmTOKYzc53+BByLHGhPGsd1ei4O5NBnq7r5MQg5zvfZqm4j1GqZZJNWBG57IBvX6bk4VY5a9/vZQcjhxt/+RCrC/p+TOKYzuzNyL5LuPyt8y8dJKwK3Pa7Tc3GqHEedYhByqHKU9uYqAhcH8nKdnotT5Sg7q/U5CDnc+NufSEXY/3MSxx/pcVKqHK1ecfbTNUfLLLuKQcihylFam6sIXJwqR21LtpbVOOSlx9U/VTnq1jjk+dMvVY6D1Ro5VQ7fIEyycUd6aZwqR00uallVDt+NdyWmM7tVkK45Ogzo7KJrjg7DuCpVDt8wTBJJKwK3PVWOmlzUsqocvhvvSkxnVuXoMh7qVDmOGMZVq3L4xmGSjTvSS+NUOWpyUcuqcvhuvCsxnVmVo8t4qFPlOGIYV63K4RuHSTZpReC2p8pRk4taVpXDd+NdienMqhxdxkOdKscRw7hqVQ7fOEyycUd6aZwqR00uallVDt+NdyWmM6tydBkPdaocRwzjqlU5fOMwySatCNz2VDlqclHLqnL4brwrMZ1ZlaPLeKhT5ThiGFetyuEbh0k27kgvjVPlqMlFLavK4bvxrsR0ZlWOLuOhTpXjiGFctSqHbxwm2aQVgdueKkdNLmpZVQ7fjXclpjOrcnQZD3WqHEcM46pVOXzjMMnGHemlcaocNbmoZVU5fDfelZjOrMrRZTzUqXIcMYyrVuXwjcMkm7QicNtT5ajJRS2ryuG78a7EdGZVji7joU6V44hhXLUqh28cJtm4I700TpWjJhe1rCqH78a7EtOZVTm6jIc6VY4jhnHVqhy+cZhkk1YEbnuqHDW5qGVVOXw33pWYzqzK0WU81KlyHDGMq1bl8I3DJBt3pJfGqXLU5KKWVeXw3XhXYjqzKkeX8VCnynHEMK5alcM3DpNs0orAbU+VoyYXtawqh+/GuxLTmVU5uoyHOlWOI4Zx1aocvnGYZOOO9NI4VY6aXNSyqhy+G+9KTGdW5egyHupUOY4YxlWrcvjGYZJNWhG47aly1OSillXl8N14V2I6sypHl/FQ95kpx0s7Qpx2IiGM+wNiuS8JmPvaYUiccKx5az8wDurOjsbh3AGiEwu3tNdoCSHuqTTigNCIMA5n5k6QTFzcEif44M6SSku7sEva7+wdGqJbs2zcojgwdXb4/qU1s8lis4nisKYondksupsl8/n4yHhRVV+93ayjbLPtbKRWufpmlWZBFteqOrNc3IsoR1v0dVC40LWSRy86T6ZWWeKqCz+SmSYJ/nt/e+TrWvV4nIyva+VjWVncDUb65I7s1oSLG8/nyewuymqm6sxu/vLGjCbzYxdZ1U9hvutZVTya4eKS+WRk3vxl03lStcowT5cmmS632zhAVPXevyhf76IKT4iU2LXJszzqbc1EUW6f4jhP6eMycTYNwzwyKXVcCpeaKA/D1BLtmBJHmAOudzPBkGIp3NVkBjewyafGJckV4+ywgmHj4L92ja7o/wvyrPAo6nqnIIZNZlMpXHF2WR70n11kwtBYk8zhB/kmjYkUrW9v7mcTcoh5ff0uzwKwjUhrGz8aQx425uIW2ToOwnBDHDamcJswDOJ1tqDaKXFHh7Lyi/FNkrxKRmXx2KcbHK9mXwHcn6Rx6NDJq6/ooZmNm8zub27XEWW/b3/+PlrOZ063+tMsuXmbvO7HuG+ZuMlsvoy+//lb6vxSE4McU5vGWZYFRFp/9wALYoZApMnbX/J3m1VMNBfENo43EF8p3DJIo8DEEdUehcMuRRClwZJqp8QR5thbbLKT3T4wJq3oiz7E7jth3NStoBmH5eLcBc8evltT9ktjs2IcFkrKiWcNhjNxMKJdmTilzi+Ms2uTJMs0CM2KYlKc4lKmc1LeEps/RlmUke3ZzDxlITnCxEyczaM15jrkcSlchkbWmPRR51/iKLnHiHuP/z1QuGQ2Lrz0k+Mw5DJmczg3Hg4ugvboGcGbryOzTKYz6nrdcAzPu5HCzabJ0piv31D9G63ykRmPFxFcqrYU6c6utnY8p0UQs7Tt9k2Wpd2t1GoXUbQKgrxW051l4iyIkeZp0N3IoZbCBWgEjm8P/6I7V+KooR7EgF/dk4Pk2M0LJrf3dHuyuBsc8PXdFXXYhIvDGD4f2+2q22qH2gzdf0evx9Hc9NXtrLBi/zlyccn8bhUF5IbB2piFSSbwvgDLSyLFG7dnMKXpsUyjMF8HRHNRsMjDGK4shVtiLhRkYUq1R+HSEDPMNFpS7ZS4/h5z315BFDgTF8wM5gu6OTeDkMRN0KcPU8Z8mYebuGnV9Sam7Gc2WWaTMXlcd2ZYkJN2YePQF1m2If0uTQOsOXBLO47C6MDp7lxkLIhBc4N7h9zYqNgj6z5arZaJK27MY4eESiTONYGLpdopDgUc2WuF1cYkjntHWxqHLp24aRXjOrg4hFpmdEQcxZzD4rwmozHj/Lg4XAUOTXdv7Harno0chkkOHo50+r05SNwzkQPdDxcgOeTGJ2kc1+m5OI1DfnSkKbwPty+oxFQErsKQTn/m5JBWBG57IBvX6bk4VY7fTw6eIkDcWApz6eQYQBG4CsN1ei5OleP3k0PXHHUbckd6aZwqR/cU51mfyuUqAhenylGnGvL8tQlXEbg4VY5GVxyKuuY42MLldLeqe2jW3apuuxS1zLWEKofPtRMUQdccDdMVReif/FZurPc5PKrvt3y77O/VqXJ4ZqsKqhyVKdoZVQ6PQwMogiqHb+FdSZWjzcWyhly4P9NNQOldKG57ICV3oc3F6X2OLlIWdewFOe/+ha45Gpbm70KpcjRMVxRVOUqdaH+qcjQ8RpWj7SSo0fscXWZ5pmmVrjkapD0UL+DBQ92t8qmku1UH963n3O7cTp59ezVLulvVtEitrLtVdZc65Y42dy3BxXEX2lyc3iH3e7ZWYi/I9dmqmtWK30DDq+pVnXnuLhQXp7tVtQG7ltU1R80YVVbXHJ2kPIFEqhzdFkStKodvGr1DXo07XkbXHJ45/IKuOZok4q4RpHHctQQXp8rh92ytpMpRMwayqhz+oFiWVDlKS3R8qnI0SSStCNz2uIrAxaly+D1bK6ly1IyBrCpHx8iIKlWObrsUtaocTRJxR3ppHFcRuDhVDr9nayVVjpoxkFXl6B4hVTm67aLK4fOnKMk/bctVGK4icHGqHB3du6tS5fBNo8rRPUKqcnTbRZXD509RUuXoMMrOMuf/OlB9Ktdnuj6V2+3MTimL2YNvrlZJlaNlkkOF7lb5zqXK4dvjUNLfcxxY08gx36m7G6zccN6fSNwzPXjIfYpWGnfCA4UnLMj1LesHbtdz7AW5/oa8bjY4KXd3SRrHdXou7rParZKOQ46A2pzA0S46tyDOhfq+puOfF9G+e3DcuOHSOJiCEay8iMktiuPGF+fiNA65N+Q1CtcIp82IUpUI427fF+E8yUhBFA4N4D86brg0LnFW0zjkDWdynfFZxSHH1cwmV1SAQ0QTEsUhhNZ8gsB11HEpHDduuDRO45B399xnFYf85quZi61IBnGTxo0Q7Du5oSWLxDHjhifCOGcwjUPeEg7nSZ9PHPLEThFQm+QGfjEoi3Nv8kUip1UUbtcA/WNuaRxMpnHIO7jhdufoX9a7GQMPh0M8ZxxynOh4Rk5vXHxVSdwDJu33+F+3OB9qKRy0hxU3XBqnccgPfVTPuUEIrvJ5xCG/v8XMf4ZtSSJJ4+x9oVbkcSlc0QArbjguUBQnG1+cG9f8Bpehccjb98aGiUO+mLuntOkkjMNCe4aQ32Sicdy44dI4iK1kfHE30+C0p3HIO0OmDxSHvLibRfMDk3/czRLDWTQGf6DJQeGKVhjTXGGc9J1vbnswGffmHhenz1Yd9cLC6Tle6sghh7t0csAS0ne+ue1xnZ6L+6zukOPnvCH5UFLEfipXVhESpsJcOjm4I700DqTkOj0Xp8qhyuFkT3T6xR3ppXFcp+fiVDn6yYHxjUpMRVDl8A2pyuHbo1biPdoOiuOnJO3tqUbNQO/KlV1L7MiBQZpIlz6tcjKEIZe4Snwtj+MqAhenynG0F4UVQZXDt7Qqh2+PWkmVo2YML6vK4ZnjFIXhKgIXp8rR6IpDUZXjYAuXY94PkVYEbns4P67Tc3Egh/4S0HeCslSQw7kEkYRxqhwNe/PXJlyn5+JUORpdcSiqchxs4XKqHI19oH3xy3z7iO5WeexgkgMk0t0qz3BVgbfQxjDEer8V9E9+K1fvkFe9VWT4Tu/8ntyj5a4RpHE4Oe50iYvTNYfvKbWS8FpC73PUbOuy8grDdXouTtccjS47FHXNcbCFyzEVRloRuO2pcnQvifQOue/GuxLTmblOfwJO1xxd/cFdS3Bx0D9dc3QbOiG3fJ+JHNyRXhqnyqHKUVHlXMkBJ1XlqHrJy/B2oVQ5PKN5BdLp92gSp8rh2bUq8He1dLeqMlozo7tVvkX4ZFPl8C1XllQ5Sku0Ppm7X6Qi7BsmcXxndjMh8v4Fd0EuvZbgtqdrDl1zVJw7V3LomqPqomZGlaNpkaqsylGZwmW4isDFqXKoclQOpspRmWKX4S+09Q55N4+M0bePtJzKzYR0zdEwC4yiu1VNm1Rl3a2qTFFk+At83a3yLVeWdM1RWqL1qWsOzyTctQQXp2uO7rmSPlvlud2+wB/pRadVrjHMR7rOyK+Tx3HXElycPpXr91itxBzpuW8V4eLIhfb+FEncM5GDO9JL41Q5VDkq9p4rOVQ5qi5qZnTN0bRIVWYqEen0+wZJnCpHZXovw9/y1d0qz3D1gu5W1a2BfU33H2vLV9ccvuXK0vMpx3xyHaRxTL5lPX/EYvEqmdZDUnXl50vEtkMQma7v6nXSuKWLyYtD14/RladwaAINTZdd/7ZeJ46D0ebJcl4/RlfedYIkzkWyunqgw9RxcVPX+fYx757JH2rz7Sp7cDEoiIT405OXVyRswsUhMt5DttqS57dN85HBlbxF6HcyXdtraxcIJU+kJaK5LwiM+1oaZ1+6IPc4RypRODRxi8bIJI0rzHa7JI8rjFva0S3HbFzcyPV+4Sz9V3JnX1h714/ZfQtDv+AguTgclNXeH625mS3SII5NZ+ynWmUcLzHGuPGjP80Yu5GuBWkcDouggBj2iUTi0AQaoq9CGlecty0CGxKXgK/lcJNkOmVcLaaGPFzhIktMRYiUY/B2HkWlCfqU7gw3deXhcLylwcGJ04vexdECyvEQhmGUHgSvO5cbd4qYPRMJVzJJ7q8I1HgsjVsg4ij8dU4dmMK5Nm6SZEG1I40bX93DcIhYSCVhnBtQpvaePC4bhzVWYg05bVmt06/dQEVdLuw8xVBAOhQX5wa+r9P1qtvLD7VxvrIGa8VVbuLsULlEclQAAAzMSURBVN2dC4MP7+8njIENV/xX1HDgvhfGLX6FpWd0HHIKN3WtJL+CQ/1JGoejwWxuACKTKO4ndzg3oBGJi0tmk/v3H4Kw24tqtdv048P8FXFUfD2/51mFi3s1f/iYIlYslaL4zkzGyziMA1I54sB13JQcYaYLty7+9DiMua85ykbhnJu8hq5RI5o4burGvsWUPK40Dgvo8R1HOZi4InB4QEaH2WRZ5jyKul7QZ7rEelwKh0NaHHpDcSMOAijHxOZBRG5WmSj98NqNqVQaP4zn6GYySeOwg5wkr1zP9CcSN3WjGeM5DmkchpQ5jNJ/9sW3orh7d7ULejHJxTn9fv0hJR3q25/Xxs3myOsdz7E8ZcTQZuLGyb0165+/pciRp/HCTGajOAsZ7IjBcwgCsfPmps1uRfvJcTaZOwuSW80UztHrCms76jqlcWO3DeCM52629fxJ49BZuz7rOWZxPkzc2M1sLSkcJo/XqXXXTBx3CghtlWRS4ojmnG/adB2Ta6IwjqEcWD2xoskaN+a64ZlIxU3AT48j73zvT5vEFVfJumkHa8jhpJ+Z4rZXOCdjzXECzt0hp9PQb1nHUDmf/au/+xu7WPy7/+ufv6u8FkOB/EvdTiMHzY4dicRwpNOfOTkc0zizuQFwTjnofnBDMg/nyEFOqzAiYy5CHxbd9pvukL9Krib/PV3+r/8Nuyv/amT/67DkOO0t69W5HM0IK8ylk4M70kvj4J9cp+fizoIc8Lu/tfa/z6eT5Orq7+/+vvJDXIUqR2UNP0OSCIOZ5HTJDY7M9j4j5aAfRxpaOcaz/9u++A/oe9x+mP/p7f9cecEg5FDlqOxbZPhOzyKHtCJw28PJcRWBizsL5Zj/rb37F++L3TDcosG+WJkGIYeuOUrz7j6FyeEY9PmsOZ5fOf5htPhfkuS9u+WGhCcyyjQIOVQ5SvPuPoXJwR3ppXGfq3L8lzv77/d3R35Krm4OfTcIOVQ5DgZ2OWFyqHL45q2VftNu1ZO9+wf3oOx09zBqoR9Fm4OQQ5Wj1l/ICpNDWhG47X2uymHtA+73zfFoTPFA/qHvBiGHKsfBwC4nTA5VDt+8tdJvUg67dI9qgB3zf28f/np8eKJpEHKoctT6C1lhcnBHemnc56oc/2I0Su7xNH4y/rcW2/eHNAg5VDkOBnY5YXKocvjmrZV+k3L8N2txb2M8xi+5PvxrPG1YtTcIOVQ5KvsWGWFySCsCt73PVTmSfxyFyQ3W4f/Z2v9Sf6p3EHKocgxKDlUO37y10m9SjlnyLxbf/094lPjvFvafoB9VGoQcqhyVfYuMKodvj7Lk7HIGDx7i/t8//e0veEVD9o9/h7scAy/IVTnK7t99CpNDlcM3b630m5SjeODANXLjiFFbkaty1EzbyJ7rg4fcNYI07rNdczT6vSoOQg5Vjsq+RUaVw7dHWSqmVc//bFV5Oq3PQcihaw7fzsLkkFYEbnuqHN0/WhwwPge6hkr6S0DfQvpUrm+PQ+k3rTkO/7yRU+VoGKRW1DVHzRgu+5n+nqNxlYfiIOTQNcfBwC4nPK1Ce/p7Dt/CZUmVo7RE65P5W3NSEfYNkzh5p3d+XzwF17q2WgV3jSCNU+XQNUflhudKDlWOqouaGVWOpkWqsipHZQqXUeXwzFEv8Eika466zfy8Kodvj2GmVXqfo2HlfZE50u+jxHa3Ua9ltkc6fXl6WPYWq+n6Mep5XXPUrXHI83e1zuPZqsOZ+zlVDt8e9RJJomcih6456r3k5XnTJYx4o2Lg8/5tuzAIOfQOuW9oYRJJryW47Q0zrXr+14H6nVUrDUIOvc9RszCywuRQ5fDNWyvxFEGVo2ayRpacLu3xJE7e6Z3f632O5u2EgV8k3XCPQ1GV42CLZu5cyaHK0eypqvx8ysGOQ751gx8dr9pFGpnNsTIikjTuxa/JGL/4uiIOO6FweEvezTj59QXVjjQuQWQiF6aFOq40Di89QzgXzEmIxMW5eDSJpeN8v/mbj8E1foNEHBY6fu9i576Sw42vg49/86YpZM3ySXHI7eIlXgVk7YhILmL09fX1p8e9deGl7Vvi9EYu6noPbrH/mjp/adyoMBqMR56/M64gbuTCt6NjqeNycXCRpX1JR6J/sG9xHbSfLBbL0WhhH6jz4+LcK96u39oHnCeRTohDnq0Qy+ox+yEgUnj9Zr0JNxkBC6RxozA0qyBaUcelcKsoWJkwHFHtSOMyGG395jqkjiuNixG+b2vTlDouF/dD9mhiu8qoON+ItZeOTJBTxw3Qq/adIWFcXB6YURpmZJz0k+KQm2/tu+C77ClG7Nm+P2O38bsojD41zqbh1qy3ed+5ue8oXL5dm22YW6odaRxM9i7eIgRdr3VDF6FOFIcxJTI2fKSOy8U9Zd8F7ywZj9JE6zS164w8rsnCzAbZljo/Lu4xW9s0WJORp06KQ76Kb00QZoYaEYJv0jQOsvRT4/4QbEwQwXmIROHiMArMJvgD0UwkjUuzIE7TbxDYtz+J48w63vwxJ+2WMnFw0sDcxqvmHL5ZjnITv1i9eeq/WvdtaL4KNjSMiXt6s3oRmxVJDnNKHPKvN/Yx/eEXMkzo1uZhGkRkFHRpnDVbszJZ0OyEZpnCBZlZxVtDhnyUxq2jIIVgbZvn2yxL48CK8BHRtpvHaZbZuF9+SB/t5uvmv2+Wg3dpYL/PwmZ9qxznkX3ckmQzTFycfW+D9B19vafEIV9lyyDYbIOYSKu32dOfV9mKgMXSuIcwN1sYiDouhYtyUCMPH6h2pHEw2Z/fZG9puwnjsiBf5d8YRBbuT1xcsN0EwTIjnRndlT6sAkwj+1MaxunLdPWuHxXHXJwJVg8pOrhFwkbFSXHIw8iGYYSZC5FC8BI+Sk6/pHE2g/bGASKq9ycKFwZxtAky298KhlthnAHbMJaS5y+NSyOsJuyKnlYxcYEB0GKOQ6Q0XEcLBAakUgpPglVyKRxenLCI1mFKnJ4bLfhxyI0pgnDSczULF2U8sWyEcbuX7DFOr3jspwfnvkIUYMp4u2Ykcc5s9GFxbqI4SC3nanFYJq6IhElazxiwCC7Q0xH7NoRxOKTFGE+e4ElvH+GTwzDJIYuTJQe95thzjPbmgmyc9mSdnkuiiOnM0jjjKI6tN9JLhXE4JPqMPuxA5PgclIPjzOhWbIKSnXsKORjNFU4viJN2em57qhx9noMtfQwKfYjdd0ycKkfDlMzpF9eZpXGqHI3+8opnveZgDM1sRcBVsxQGYwXjsKocnhcdCsy1ia45DiZr5UiFEXd6nAKXHM+xINc1R8tHXIWuObrM8pzkUOVo9whTEbhrGFWOtomrGlWOyhRFRnotwW1P1xx+P/glXXP49nALaFUO3yaupMrRtklVo7tVlSmKDHMXSu9z+GYrS3qfo7REx+dZT6tUOdo9psrRtklVo8pRmaLIqHL49ihLzDvpqhylwTo+VTl8o3AX0NI46bUEtz3drfL73yudNTn0PofXV0WBqQjc3S9VjraJq5qzJoeuOap+qjK65qhM0c7omsO3ia45fHuUJabCqHKUBuv4VOXwjSK9luC2x10jSON0zeH3v1c6a3LomsPrq6LAVARdc7RNV9WQTr9Hkjh9tqqyaT3DVQQuTloRuO2pctR7tZE/a3KocjR6C0VVjrZNqhrmM1ik0+8bJHGqHJXp6xmuInBx3JFeGqfKUe/VRv6syaHK0egtFFU52japalQ5KlMUGeGnd7kjvTROWhG47aly+O7klVQ5PHPgR4qyr9zhtietCNz29D6H3/9e6azJoXfIvb4qCnqHvG2TqkbvkFemKDJ6h9y3R1lirk1UOUqDdXyqcvhG4U6DpHHcNYI0Ttccfv97pbMmh+5WeX1VFJiKoGuOtumqGtLp90gSp/c5KpvWM6ocdWu08twXScu+yRBrVNabEUmn318PiXtOcqhytLyOqwhcnK452iauas6aHLpbVfVTldHdqsoU7Ywqh28T3a3y7VGWmGuTk5QDQahDswU9iZSliEoTkkFCo9SafIvQLkRz4jhrwmi7wl4EkShcHK1w+ogeQiRpHMLuIHi3pWMpSuMQ1TWwKdmxgTAuNlFg43RNmBlv5ZTFrdPYBm4BRaTtZu2C1yxzhEsEGDdL+/7yP0boOfzXi4qCH12Iohhs6/+Txr2I0jTLY9iy/2+HQ2DNI7A4zrM0jV4c+76sPxlX/sMjnwiXGa6iHzGoHDmxfb04zvXpH3P3Pt/eP5yYKM4EafoB0dGo6xXHrbIPCCzdf7H41rwxd2Y6tbeI0U4GaQfkekTDRks7wh8CqxNJGoew64jljlaJROHQxGLkQESSxj2f4ewIcevJ63V9L4lb4Ij2BX1YadzuoOhjKtmX9v8H72Hca4qTLw8AAAAASUVORK5CYII=;aspect=fixed;rotation=90;" parent="9pnh7lvO98Alzu9_AtAS-45" vertex="1">
          <mxGeometry x="150" width="120" height="120" as="geometry" />
        </mxCell>
        <mxCell id="9pnh7lvO98Alzu9_AtAS-42" value="" style="shape=image;verticalLabelPosition=bottom;labelBackgroundColor=default;verticalAlign=top;imageAspect=0;image=data:image/png,iVBORw0KGgoAAAANSUhEUgAAAxwAAAMrCAMAAAD0pmQvAAAABGdBTUEAALGPC/xhBQAAAAFzUkdCAK7OHOkAAAE4UExURWBgYAICAlxcXGRkZF5eXmJiYvv7+////wAAAP39/fn5+ff391paWvX19WZmZlhYWAQEBPPz8wYGBlZWVggICGhoaPHx8Q4ODgoKCu/v71RUVAwMDGpqahAQEBISEmxsbO3t7enp6VBQUFJSUhQUFG5ubuXl5evr6xYWFh4eHnBwcE5OTiAgIHZ2dkxMTHJycnR0dBoaGhgYGOfn5xwcHEhISEpKSt/f33p6euPj43h4eCIiIo+PjyYmJs/Pz0ZGRo2NjX5+fpWVlcvLy6Ojo6enp6urq62trYWFheHh4YuLi8fHx8nJyZ+fn9PT09XV1ampqdvb2z4+Pq+vr4ODg93d3bGxsYeHh0RERLW1tbm5ub29vZGRkXx8fJeXl8XFxZmZmZubm52dnc3NzaGhodHR0dfX1zo6OrTY5p4AACAASURBVHgB7b0Ll9s4liYI8SFCEkUqpFA8FLLDdthtZzpflVmZVVk7j+6e6T7TvT2zvTs7Z19nz8yZ2dn9//9gP1AiRZAU71XmpUOyLyKrBECfQfLifvgAkOI1SWJf2tHCctKSAbq2uz8KKo2zH6zlnB8Dh2bQGJ1kcdIG4bbHNBvMwTIvFzeyd6wWpXHFQe/siO7el9bMJovNJopDQ6Rw880mzoKIgJnVN6s0C7L4U+NeRDmOSV8HhQtdK3n0gjp/aRxsm6UwHnVcaVyEvkLXkv0vjjNm9ZXJ6eMK48LcfAUjk34c5unSJNPldhsHcQR8z18UPtkgyPI+jPsuyu1THOcp2Z40zqZhmEcm7bmG4vwoXGqiPAxTS7RjhHFRnOZx/GRxCb1/4jiTY8SzT2HvUdGvwjiTrtOVNQF1XHFcHBi7wsGJ6zVhaKxJ5vCDfJPGRMpi+xhF0ZqAxWsbPxpDNieOW2TrOAjDDXV+FG4ThkG8zhZUO9K4ODXmMbakfaVxa3Tqo41D6nqlcfCktV2HhjquNM6EOGy8jqjjpiYGOaY2jbMsC4iUhjaMViGBCoLYxvEmM4YCSuOWQRoFJo6o41K4KDZBlAZLqh1pnDEZiG1j6rjSuCBcReha6rCBNC5Oo7U1JqcOLI3LjbHrKCXtHMbZtUmSZRqEZkUxKTI2zeJHEhfbzDxlIclMaRwmJGvMdTLqOihchkbWmBxS7UjjojB7Mhl52Fgat3qMs9Qasr+kcds8iheYzVN2lsZFcbCIo3xLHTda5SMzHi8iuBS1DjRRCreKDblgNIsoWgUBCEokYZwFMdI8DYijguL9uACNwPExqPUnaRyG0FUULfoPim+lcSuobWoxBSeSNA5rrACrWPK40jhMLWyANTFxuWZtzMIkE3hpgOUlkeJoka3MKiNgUbDIQyx6yPakcUvMhYIsTKnzo3BpiBlmGi2pdqRxmIjGYb4IqONK44pOXUQxdVxpHPYBQpsFpJ9I40yQYRKZ5dT1pmmANUdiMXZg04BMFhqIrRQqWQgX9qrIJIzDzACHpI9L4nbNkMqxP5wgzpmNbg4TIFFchN7H0pNM0jgDXsAF6A4TxuGQ2IEiJxgws9utEieHYZJDFkc6/b77SZySo5Mo8uRwXsoYlN1QIIhDUxgKaE4ORA5VDs+72GTDmILBikzOvII4aafntqfK0dfTmM3xpl88HKkI+3MhcWxnRoPYwuu7xOI7dnvOHHRzn8+0SlYRsGRjKYwqR4/HnjU5GFwryCGI44700jhVjh4nRf+qctTtI7zQ5iqMtNNz2+OO9NI4VY660zXyqhy+QbjOLI1T5fD7wS+pcvj2UOXw7VGWmGsJrsKocpSG7fhU5fCNIq0I3PZUOfx+8EuqHL49VDl8e5QlVY7SEh2fzDvppCLsmyZx7K1XNCi9lSu4C8Xd1eKO9NI4VY4OX6+qVDkqUxQZVQ7fHmVJlaO0RMenKodvFEciQYWRVgRue6ocfrf6JVUO3x6qHL49ypIqR2mJjk9VDt8oqhy+PcoS8+ldfSq3NFjH51kvyPXZqnaPqXK0bVLVqHJUpigyqhy+PcqSKkdpifYnqQj7f0LinnMrV5Wj3bGqHG2bVDWqHJUpiowqh2+PsqTKUVqi/Ukqwv6fkDhVjrZxUcPdouXiuM9CSeP02arO7t1VnjU5BO9f6B3ybifQ3apuuxS1Z00OXXO0e07XHG2bVDW65qhMUWR0zeHboyzpmqO0RPuTVIT9PyFxuuZoGxc13LUEFye9luC2p2uOzu7dVZ41OXTN0e45piJwn9XSNUfbxFXNWZND1xxVP1UZXXNUpmhndM3h20TXHL49yhJTYVQ5SoN1fKpy+EbhrhGkcdw1gjRO1xx+/3ulsyaHrjm8vioKTEXQNUfbdFUN6fR7JInT3arKpvWMKkfdGq28vmXdM4k4iWR/4ad3yL3eqgq65qhM0c6ocvg2kVYEbnvSawlue6euOVhxyBG4+QHRmw+xqJf2+tou7NJFdB75YZ1vOWGe8c9Ecbdo8Lp2fscCTRM4XFZxZsf+ea2eFYec3d4I5uAkYRwO6i6YTNI4F4ac5SbSuMXSeS15vdaeEIc8i+5myXw+Tqo0nc2nSTKr1RRfXY+TcbOu+je1jDDu9n2S4HTwX3+icLs23t/642u7VMYh7z9aeU7vbylc4qw2vqZhwribCQ55R3eYNG6Krrqe0ZcrjUvmk5F585dNu0f9mpPikOdrW1zJZJ+mU+dG4zFsO3FkKOsTi6ueTa7K8rFPaZxNxvPJzeE8jh2XwiXJzQRDADsO+bHjlPVle2X52OfVZAbD2cqOnwqXJFe42mNHO9RL46Yghk1m08MRunPSODixXWc5ghH2/50Uhzxa397czyaHIQadmeyYj6s6jAA3X83govtvDtWtnDRulLyCHx5Or3XAfQWJG+P0XyUjKtpoGYf82HGq+n17VflIxpnyavaVs11vksbBYpNXX+06su/A0jh4yM3b5HXfIXffCeMms/ky+v7nb6n+PSkO+fq7B1jwMGtBznFiCu7jIsaHL+w0mdPcAH9lcXZH0MN5HDE7hds1MEGg0/6EsFhFvPIjh6mqy/aqimMZTFoRE/7Yt4d6Ydw0geEYh5XGwXnGjMM6JxPFwZAWkXERXbU/nRSHPE5xKdN5JYOYOk0m43nRaRNMrkpRdIaejGdVuaxvfkrjHsDQe/yveZxmmcJhhLzH/x6okaWMQ95sv1ku22vWN8tYvBVe2qxvlsVxbiCjZ3M4N1mcGzTgKjfN62uWpXGzabI05us3VP+eFId8tbWY1B8GsAS9DoNNMGMFGQ7197eY+c923x5q2zlpnL1H54Ec7SP5NRRud1n3ZPyxMg6533q7VLbX/savGcNoN5Nb8Ls/SeNucLjXd1f9B8W30rhkMn1129rN6TgNaVwyv1tFQeYvv9ul0+KQb9zeQjGH2l3BT389sv/4p9n/858x169vTy3mTqjpJIzDQnuW0H2M0YrCXbkdOEvGqd7HK6cvdNcejYPYzhcMmDBugj59cLsrRBLGuSNiQU4cFB4njUPfZtmGjH9+UhxyvFAcPn9w+z/li39Mxj8sLdZU4zppABuj/8irFsZZHLR+fseOT+KKVsakcmCzo3jL+rHjVPX79qrykYybWycTehYujYPVJm5adeS0DtXSOHTWqOizwyGO5GRxuFpEXm9LRaPmpFDLTXL888JiGvD/2q/eT3z+F07PMLYwjnT6veVJ3DORAxZjkWMAnJKjQQxXPI0cMby55vO4xYi9x+Tf/Rl1niYLKwL24FlKRDr9mZNDWhG47aH7lBy/mxyNaRXuwP+baTL+P/4Jroslx0GWhRVhR45a+0e099LJgStU5eju2wuYVjWU43+zD++ukvv/8T32MTBKHRJzpOcqAhd36eTgjvTSOJBSlUNaOf7pj9b+czGhwr0OZ+AyqXKUlth9FpNRxn0sVQ7fbofS5SlH8l/xOOf/OdltnramVZ6WHC6znhNWGFWOunExXvHJpsohrRxJ8i0edf7J7VRh0VHrGFWOmjGQVeXw7XEoySoCLM3aGsZQIL+Vu19z4NlR6MTfX6HTf7H2rw+XWuaEFUHXHKVhd59cReDiiimx3udoacdpW7nVbhUeJLgaJXgo99/cLm37FqcqR8ObnXjomsM3SlHijfRcReDihlQO/NZh8g/39j+4/dviXkfzqlU5fIswp1XckV4ap8rREo2i4jcpB5YXs+Q/2n8LD/hpcffXh12q0iVUOUpL7D6Z5HDywnl8ZACcLsg7+HEaOcr7HLgdfvUXe/cfJ7O/Hf1/6KpmUuXwLcIkh7QicNtT5ehgBqpOI0e55niN3l4m/+k/vRul//ze/QahkVQ5fIMwyTGAInCVSJWjgx+nkaParXLPfL9K7pMZfg/rPVW1cwpVjt9EDu5IL41T5ehgxm9WDvfbcUcK/Niv8/ewqhy/iRyqHL7ZaiXZXa0hd6tqJ92dVeXw7cKcVkkrArc9VQ5J5fC7vl1S5fBtwiSHKodvtlpJlaNmDD/LVCJ9tso3myqHb4+qNMi0qtytqo5yJKPK4RtGlcO3x6EkqwjncIf8cG1HcsyRnvvMFBenyuH3hyqHb4+qpMpRmaKVIUm0H+m7l2m1WuEXLOiao9VVZYWswgxCjvIOeXnKxz5VOXzLMKdV3JFeGqe7VbUBr5Y97SagrjlqpkNWlcMfBMoS92e33DWCNE6Vo+yp9ue5TqukFYHbniqHP+aVJVWONncwTrn/Pv1L3dxB9ancrg5h/sKPqzCqHJ1GLipVORq24U6DpHFcZ5bGDUIOXXOUirv71DVHg2X7IpdE0k7PbW8Qcuhu1aDk4K4RpHG65vC7tSzpmqNr7NM1R5dVMC7jT/JFDNyRXhqnytHdv65W1xwN20g7Pbc9aafntjcIOXTNUSru7lPXHA2W7YufEznmk+sgjWPX1b0p37rYEbxwZjP3ihIiQaITSdzSxeTFr6+Iw04oHJpAQ1OExiJSFMVhvhpRxyvbI3F4Zf08Wc4/Nc69j+8K4R6p48rjxpOXePsZlfDGQFEc3kH4kK22OdG7ZpvmI4OJxltGxHJrFy+L0OYjIrng69fX15aAjcRxL12Qe0a8eQqHJm4RoJ1MSxfo/RsS5k6J1R4sDCQnerwobmlHtxyzSeOKvnrhvIBKMKAoDodktfdHa25mizSIYzIMVLaysXnMfuiPwRkE4fWb9SbcZJ8a54TIKQeVSByaQENk2LNVFGYI5P5AHc+dkmuPxBWAjpfkdf5DORyiq7jw52SSx805h8UugCwOF7o0+Tanwtq9i6MFlOMhDMMopWTGfGvfBd9lT3Ec9v4Zu43fRWH0qXGIpncDP5yPiUThXBt4p+OCskcWrYJ368ASh3Pxdov2KNz46r7YDvrUODegTO093tHXn6RxsMsUFL/qP+rY2U8U5waqr9P1iurfOF9ZgyclVrmJyeiaq/jWBGFGKkzwTZrGQZZSzJTGLX7FCI0X+VJDIIWbulaSX0lyxHGA0ScmlaNsjzovfP9XTIERxf3kToyxRSuNS+b3LOUQx72aP3xMESuWSlF8ZybjJZQgIJXj6419TH/4hYw0uLV5mAYReXRpHKLEInQnHlAiEoVDE8lrvOmUst0qzkKz2pDKUbZHnBZijroxcjH95DhsBIzvOMohi3uFq11iPU5drzTODQWZCydLpDgIoBwTmwcRuVllVtkyCDZbLE/60+pt9vTnVbbqR8WxNA4/I0mSV6RwuB8W9uOm6A4YhbAdvk7Bj/UdwP1p314/qPh2Ph8/uE0hKoni7nG0ycILItF5fGlcMp7PLCc2tjBunCDG/Prnb6n+zdN4YSazEcZAmh1hZLE0MeBRfwotdobziJx+SeNsMneBdKbU1iCFc/S6whqQNJ4xQRzlljpe2R6FG7tlu5touPsEPX/SOExG3Z1v8rjSuKmb/NNHnZyK6zFdYVaY2abrmNzKDeMYygE/iLGAppzBmCLmB42zUQyvYTQniyPvfKP/XSJxUBZMzkhySP/YSfqZKW57hccw1hziOJiZFWxGGjfEHXI+OQyTHLI40ul33DhbcjhG6u859p3kf8iS6HnJIasIhqlEl04O7kgvjRNXBDev4SiRtCJw23tecsgqgsGsjzNNu3RyqHL4clErqXIcXaSoctT8BMMjc/rFxalydHveSb/n0DVHw4huzyEybp+nP+0X+P0gfMt0+gFwvGkQd7rExXGnQdK4551W6ZrDIwKTHNyRXhqnytEY9PZFVQ7Pi/eFZ9rKHUARuLtfqhwd/BiIHKocHudUOTxz1AqyC23u9Ot5p1W83SXuLhQXp7tVNbdzWf4aRpVDlWPnPCSJnmlaJb2W4Lana44OZqBqoGmVKoc3hjOnVSeM9Ny1BBenytHBj4HIoWuO30IO7kgvjVPl6GCGKofnwofCM02rVDkOXdDIyS7cn3dBrsrhdS5zWiWtCNz2VDlUOSp/PdcFuSpH1UXNjCpHN39Rq89Wec7CVQQuTpWj2/MGWpDrbpXvzcUtB84zWNzdJWmc7lZ18GMgcuia47eQgzvSS+NUOTqYgaqByKHK8VvIoWsOz2r1gq45uvmLWl1z1B1Ff8/hWcMr8Ej0vFu5qhx+l+maw7PHocBzZu4DhVzc85JD1xyH/kdO73N45qgVvkRyqHLUHIBNDl1zeFarF2RJpMpRt62fP9ebgNK7UNz2dLeqe7Wru1U+b3YlfbaqyypOAWXvh3DXCNI4VY7u/nW1qhwN20g7Pbc9aafntve85NA1h+d+zAW5rjk8q9ULuubonvnpfY66l7g8dy3BxYlPl1Q5jroybtqpcngOrcrhmaNWkFWEy5hW6X2OmgOgy9x/Y/LBQ+5IL41T5ege6HW3yvPifUF3q7qs4hj+5e1WceOQb38ZmacfAjLwRmyj7RuTkeHRpHFUfPEyeAyFc9FfNQ55aa3Dpws5JRuvXDa+ODde+TBxyB/s3Z39QAWNti5Y+Y929OlxVHzx8owoHDduuMYhLy3qfXLjlX9eccgRG/IqeYXdkv6U2KvkHqNMPwozZ2EcJvUIpIVhn0gkDk24iFz9wd2iSOOQdxuaH69cNr44N145zlo+DnlWvFB8jBl5f0KIUKR/6AfhW2ncQuOQ+4FZmXHNpeOLc9tzs9fPJg75d9mLewypZFD1q9vpjbtwv6faJWkcFV+8ZCuFK+OGd+9hHGo1DnlpUf+TG69cPL44N675EHHIsy0ieGOpSibMW6aYfpFJGEfFFy/pSeGwJ6NxyEtj1T6xHBeNVw4P+XzikOfbRTIFN6i1xBxOj0SGPJbGkfHF92wlcRqHfG8p/6NYRwrGK/+s4pDHkXtkDwtpIk1eXo2TOQlLpHFUfPGS1BSujBt+mEB15xDIWuOQu3sfzT9mXPNT44u3jtM4btleo7r1zwaJQ44IX/B42ukTwByLCA5hP0gWRz5tuz8hEldcpcYhb/Wf8zpOlFguDs702cQhP40cDBYV5JDDkU5/5uSAJaTfR8VtT9bpv0hyxKoc3gRLOGCm9DNT3PZASiWH17G7wknPVqlyNCwoTA5VjtZErqyQnX5hKIjh+VQ6jRyqHL49hcnBHemlcaocfreWpdPIcdKCHCankq45fAvpmsO3x6GkynGwRSPH3NW69AW5tCJw21PlKLXC/1TlaPCwKD7TVq6uObo6Y9cjolu+uuY4amh9+0jTNLpb5UvGvqTK0XQUV1bl6LKKs4vslu9ndRNQd6v8EUZ3q34fiT4rcuhu1aDk0DVHN9ecluua45htdLfKswx3F4qLE58ucadf0k7PbW+QBbkqhyqHPnjo+0BZinTNUZpi96lrDk/RqoIqR2WKdkb4zvfu0XaIP5Eu/SagrjmOdrCuOY6aRtccnmm4awkuTtcc/oSgLOl9Ds/t9gW9z9FlFSx38adrjpI7/qeuOXx7GF1z/D4ScXeXpHG6W9Xdb66WXJuocnQbT5WjMTrWiqocNWO4rCrH7yORtCJw21Pl6O43V6vK0bCNtCJw2+M6szRuEHLofQ5fOlQ5GizbF79Icugd8kHJofc5urmGWr3PcdQ0ep/DMw33/gUXJ75Fq8rh9Zdf0Dvkvj32u19+ZUdJf0PeYZSiSpXjmGW4b0YkF9r7A5C4Z9rK5Y700jhVDn+2XJb0DnkXI5+JHLrm6OqMok6V46hpdM3hmUaVwzNHvcAj0SBbubpbVSru7lN4K1eVo+7nXp7n9NxdrUHIofc5BiWHtCJw29M1h9+tZUnXHN4AtS/omqPLKhiX8ffFPZU7GUVxGLlJQm+Kcov4L5ywZ25PEvFYqVSsJeRwOLsEAUxu6MP2426S2RThRWyvMfBlGAdpFka7OFY9By3b64HsvprxQhAg3jZCLpKHLeIHTZMR2WG42JvJCCMCkbg4dMBkMiIac18jsLlF6EgSKY1DENuc4e9BYEZmPl7kaQg0kda7aLIuuFNvmltEnGWFR5PFwV3eu2iEvSeHLymcO3c0RIZazjGkxE/pC+p4ZXskzp372M4p3Nw1iCfEKBzG+V+d+1G4K+edCJQohUNr0+mCjHo3eQU+LqFGVJLGgZQvTPDuO8Ldo20QLA0s89KLsn608I21S2tHVLqzI3v76XF2Yf8Hi/+jTo/C4Xs0hP8j0g7xR87xivbI84LRRvaOgo2u0Ql39po+rt31K9Xgi/11SuGWdoEmF1Rzo7fuuA/0BUvjist9sH/YX3bPx4/WTJO7NI1DahZhskeMudOkFl+0O4tRaO6G3u5vD7XSOJzdjQvUfjhCd47CoYkJpgbktCqC7oZ5etd9lENt2d6hpjvn9MqFre/+9lB7hcF2lth31Mi3Xme/rEObUbhNujbv7NcULOLi0m385p1NZocz7s7dO8GCrbu/PdRK43DYRbT680fK4bPVamFmVzZeh+hpIm3ihwmi7ZKLhKs7TP4djYgkjbsb39DzV5wTB4em7ghzIFpmHIXRBlyjk2uPQjmDTSZ3xSynHzvFom6Zh5jV9f0F5uM2evMjxr3ev3ibZ+vvXv5rN0ns+2Pj4jjNsheMrpghZiqCDvdfK74Vxs2m02W8fiKj16yz2JpkYtMoTTP8eKf3b53b+zEjSmzy8qdXCcdPhXFY3M2wCiXJS+Fmk7lbktt+a5goXYebPHx8SXVu2R6FS8Y3yaufXpAwrMYxLH+1CYiU/7CO89BSuCg369Xq4Z0hmuPiglW8Tv/3uytycAQt3tvE6UJ/ksa59X3w+HHd6+zo/O/SbGGms0W2jtOUHCmLjRma6eNiLC3Uo/eqpXE4LPyG7BNMXAgcmnDbQZQ9NvE6DlOGcuzb6zUGvtxZDE9+UcnFFL6325hKeWq+Du23FOyH9E38gw0hhP2Ji8vy1beZpfvBSUbhKsT1DoCzWUwKh1kjtrgZY82RGxodhRZjahGKvHeDAVc8naGne0H4Uhp3/d459YTcdaFw2EMDN95fU+QIg1WaxWZJXWfZHoVzSwkIFmk3sGcG49Fb78akafBiRV1HHm3NZhmR02ouLsoCky+TK/J6MV8a3eNaiOTmVaK4yXiUvfkeYeT7U5amC7dbZdzsuR/qfjKNGxPYHyTT7lkoErZ/2lYMRz5tuz8SiSuukhOHHKMPjEJewL49CofhghcaGezgkMNEcRAbUgBxCQgfScP4uNDdW6autvhe9rEQmIX1wmkYTz5g5mnkoFnEfKDwS3lkHR4vTw7MDKik5Oi20GmPj5z2bBU9dAgrDKkI+zMicWzlgFFVOVqehUmIKsdR7xdWBFWOhqVPmVapcjSMh+Ig0ypVDn+UdKs0VQ7fJs4kqhxtQlY1qhyVKYoMc0Guaw7fbLUSb6H9rAtyVQ5/lFTl8O2xL6ly1Gjdyqpy+CZR5fDtcSjJKoIqx8GyzRy5C7X/ByROd6u6FYF7P0TXHE3XrJVVOWrGQFaVw7fHoaTKcbBFI7cjUaOyo8jEkYqwb5rEqXKocsACp90E1DvkvtMIL8h1t6pjYNxVySqM3uc4auizDUGgz1Yd7bMLIIcqhyoH/ajWF3oTUO9zDEoOVQ5VjoMFhHe1yIX2/sgk7pkW5LrmOLhGI3cB0ypVDlUOnVb5PlCWTvyxE8ZfIqly+AbS33P49jiUVDkOtmjk9D6Hb5BTHlnXXwL6tnOlQbZydbeqFNHdp97n8O2xL32ZDx7qmsN3BmFy6G5Ve5Df11zAtEqVY1By6G7VJZNDlWNQcqhyXDI5VDkGJYcqxyWTQ5VjUHKoclwyOVQ5BiWHKsclk0OVY1ByqHJcMjlUOQYlhyrHJZNDlWNQcqhyXDI5VDkGJYcqxyWTQ5VjUHKoclwyOVQ5BiWHKsc5kkPjkHu9UsYN95nQLj1fHPI5guuMyEhcCC2wyTKbtc/cr0FIwBAP75Khjri4cB3F6QMjtCGeLtY45Eci90jHK0e8lPcu7NmRw1XVFM5FTkNDZxuHHEyeTe7v6MDxoQny9EVOhYkN0jSN/hCJ4d4gaI55mJKByKXji3Pb0zjkPVGwLz0OuYvezQqjPUKw8jsXEb4/XcNWCxdgnkhcHAJ8f3CB0nu6oPhKOr44t73iMlkG1Djkh4DX+5wLLHjjYsER6bnikEM5rsaJJQPHB3EarfIfyZiAaWCC1R9yMiYgF/f0aN4gZP1Vy7CNintciMYhhxG6ksYh963i4q/y4pDfJzeJXRPcdbFD8ji1tNNj3hXYlFxzpExcED2Zx+sxHU5WOL44N165xiH3/c4rXXoccjAjSX66g6/C/Xv+gtwE36/t9xQui9P40WZrNq7voPhuG+KN09bpQn+Sji/Obc/tA2gc8iN9gwV5f7xyjHnnHId8ih0DN62ihnqEgY7MypLTKizbg4je/DJcXGAgMZberXJv4OAEnR0Ap3HIq+2pRubS45DDWZhbuWmWrr4iyRGZdfjm7UeKa2AaDxes4zRYMuLVS8cX57ancciPyIYbrdBvRVyAY5Di288kDrkGzGz3sr59pG2TskaOHFgSCwbM1DvkZQ+1Pi/gBQv6bJW/QaRvH/HtsS99ma/m0WerfGcQJocqR0sxygpVjtISrU9946FvEuxFYtrsqNmf8BhHrG889G3nSrrmaNukrNE1h88pPKAYxeTzAG55xcR9kQEzdc3R9CrRBbn+nqMcvlqfFzCt0jXHoOTQNUeLFGXFBZBDlWNQcqhylFxofV4AOVQ5BiWHKkeLFGXFBZBDlWNQcqhylFxofV4AOVQ5BiWHKkeLFGXFBZBDlWNQcqhylFxofV4AOVQ5BiWHKkeLFGXFBZBDlWNQcqhylFxofV4AOVQ5BiWHKkeLFGXFBZBDlWNQcqhylFxofV4AOVQ5BiWHKkeLFGXFBZBDlWNQcqhylFxofV4AOVQ5BiWHKkeLFGXFBZBDlWNQcqhylFxofV4AOVQ5BiWHKkeLFGXFBZBDlWNQcqhylFxoiKjiIAAAIABJREFUfV4AOVQ5BiWHKkeLFGXFBZBDlWNQcqhylFxofV4AOVQ5BiWHKkeLFGXFBZBDlWNQcqhylFxofV4AOVQ5BiWHKkeLFGXFBZBDlWNQcqhylFxofV4AOVQ5BiWHKkeLFGXFBZBDlWNQcqhylFxofV4AOVQ5BiWHKkeLFGXFM5Jjal2YXTJ4SWzuZogDU57w8c/RZIbXudJJGGcR78iFdaESjUMjCJ3kM6FdSsMYIZHia+p4xUmhPRqXjGeTEQ1DNOnk/R0Z6y9K4zQL6TjkscmDtQ3Jd+9ycWFqstViRl+HC5/l4lpTSRqHd+Wa7ImMz55G4cJMp9fZdm0CKiZcvkb/wv8aQUFbxcINJrOb1heNCmmcTSaIA0ufH4VzbxqeF29q7gm4hzfHRukq+PoxsI3LahXL9lpfNCpuZm7gAXWJBLIhppjNiLMzcYx44KlN3an2/eXZuzWio4V9GPcdF7cKHdmSGXEZY+dL8KibT467x1u408cN5e9bRDY0STJ6esI4BGMSaTFJJjNybJ68nM4RgYpM0ri7SUFd8rgkzg0AyeSOMEachSZIn/I78oD79kgcjDafviSl2Y0AV8mI7K8csf6C4G1EXUeaBkH6IRXDxdsoD18gfCWRoBnTF7ANlaRx6F27Jq8WI8sqXYIc9g8jIkC7+3ppEQb92j4woCMEaeckWdwLF5Ae8eapROAWMMatfUG1gu+XONY3JI7f3p3l9MM1euGFfUkeFx32cH1HXwiMhk59WFINcnFwkA92AU/hpLdAcpIoDqf2wDm/P1gzSe5WGye8RApCN22e0powwhD4mhoP8L0wDmf3PknuyQOTODSBhsg1B+YhUfTmaUkecN8eiYPRZjAKldAB8ykjDnluVtFq88cN0a0mT03w5o9vUinc5ofs6ZGxmLjBhY5cYFwiSeOgRPZd/j0ZSNQ8bRbmarqM4nUWo6t7U5At5nNyUoVJ5AIXXMwo+69aGrf4UxEJkzxDCocGMEH706LXGPgyyFfRu7VZ9F9lsRwv2qNwO6MtnC/0punYjQD2iTo/gzV2kL9wmy29CVHIw831hux/Li5aPz1FD72XsPtycnV1fUWTI5HG3c8fPr75nrTL96FZYFq1wGIc+y5EwuIOFzUdNyIXt4rFQhv7Va0vGhXSOHjp5BUm5FQiccn81QRGIcwRY9ERBKuVpY6H5X3RHoXDXhXsi+0CIrlOmEzsljo/dCo0wZL9ihVHYEbYriQSF5eH221sZzjH/nQPzYBHfXIcrGy32yAnLjfOVymmVXNrwhimJFL4dIsRi956u7q9gm+5ju5P0ji3QeI8q/+orkP6ca4J+KklzBHlcRiFYUzOg8r2qPNyJpvAKBRuPAfw/i2pHKEJERIce7REcpta2Mp1k8TexMVtV0H88QV5Ge4yXy2wtcBIsrjJ2G62+bb3YvFlGIZut8oioBW9z42ownA80vfQnNs2op1UGkeGM9v3AokrrpIThxyzdMFQy46TycSpM5Ew4hY7zdQiwcUE1DjkbWPCeAjgRlnPADIUORgsKkgkhyOdfm8mEvdM5IAllBxtV3Y1z3iHnKscpz1bRUuMsMKQTn/m5BhEOTSabJtuqhxtm5Q1JIlUOTqnHBpNttMsu0rE4y3cpnSyo5/CisBdm5BOvz9hEvdM5FDlOOpRFzCtOmlBLreW2JGDbo90+jMnh645Lpkcqhy+rrpnCs59t0rXHG3G6ZqjbZOyhlSYZ5pWqXKUPdT6vIBplSqHKgf5xBnENHR3CFoO3lUh6/TcLV9Vjq6+2NWpcjQ5jltiHKfHrWIW7oskhypH06t0zeFbpCipchwfmPePj9C7S9xdKC6OVIT9OZM4XXN0uLwbB1Q5Og3jKvU+R8M0ulvVMMiuqMqhyuGGUtFple5WHXUq2YX7IAtyXXP4I6UwOfQO+SWTQ++QD0oOVY5LJocqx6DkUOW4ZHKocgxKDlWOSyaHKseg5FDluGRyqHIMSg5VjksmhyrHoORQ5bhkcqhyDEoOVY5LJocqx6DkUOW4ZHKocgxKDlWOSyaHKseg5FDluGRyqHIMSg5VjksmhyrHoORQ5bhkcqhyDEoOVY5LJocqx6DkUOW4ZHKocgxKDlWOSyaHKseg5FDluGRyqHIMSg5VjnMkx2cTh9xFf0HwCiIheE0/bow3LCB4jc+EdknjkLdt4mo0DnlP8OginNmzxCFPipCFPadWfIX3jfXiwC33ve0N3o0fkGsccmeE9p/GIe8ZnaXji3PbW74uTgqy0J8o3K6B10sqZpzGIT9iIY1D3hs8Wja+OIKLs+Kaf3DhpRlIAndXNAMQmTQOeZeJNA553+AsHF+cG6/cxt8GT1lmjoxnVTWFM1n2FHxLv/hS45B3rzk0DnkPOaTji3Pbu32Tm8c4CmLT/7fH4QV+3X8IOv1o8je3VLRRjUN+xEIah/x4jOliQf4cccjDbRBsyMjC0YLChZsg2IYah7zS2l1G45AfGQxc9dnHIcf7B7erLGj0aauIPdpeXJCttnhfm8Yhb/iCxiHvnkYWtWcfhxy7irt3dPZcBL6yFG7/JsP+VvaHOvfIThqHvL0AGOR1oOd+h9w5few8uz8V5OjD7ZogbwLuOUaHadm/tb3dS40ajUPeMEhV1HflVqZoZpjRaUlF2HOGxH1OyqExAZvehKcjEotgCv0jKL518akMbgZjwA3JIfe0aRVOgUqF08vhSKc/c3Los1VHHUaV46hpVDl80+DxMQx+5GCGoQ/b2pzZITMojQavOa42qhwN2+ynX77ndpR0zdFhlKJKVhEwZozGjJnIINOqc/89B7ULdebTKv09xzEOMZ3+WclxCbtVBUEaI3yjSK5NnmlBrmuOSyaHKodPM+FplSrHJZNDlWNQcqhyXDI5VDkGJYcqxyWTQ5VjUHKoclwyOVQ5BiWHKsclk0OVY1ByqHJcMjlUOQYlhyrHJZNDlWNQcqhyXDI5VDkGJYcqxyWTQ5VjUHKoclwyOVQ5BiWHKsclk0OVY1ByqHJcMjlUOQYlhyrHJZNDlWNQcqhyXDI5VDkGJYcqxyWTQ5VjUHKoclwyOVQ5BiWHKsclk0OVY1ByqHJcMjlUOQYlhyrHJZNDlWNQcqhyXDI5VDkGJYcqxyWTQ5VjUHKoclwyOVQ5BiWHKsclk0OVY1ByqHKcITkmc2vCOGiEKmkXv7TgNa2oN42KMsjN0S7df4EYWMkYcc0pXBEe/er2isRNk+QKLwqnkgmjINw8pBQuiMIgengKxXCxSdf01brLfLXAlTCSLG4ytpttvm17uF8ThqF7y/oCzEAkPCKZ1F3xdHw84Nnum88l7Jlvqo7SPjwaZY9JMn+F1+UuKJxjEN54n5C42TSZJpaM7xbnWRz8YLOOM/eqsr98DDMbpl5lR4GLW6/DaGuTGXUd93ghNjxq+qlxsLLdboOccPc4X6XWXE2XUbzO4g57eFVptpgX0e0JqnMDXErjqECY+/CYhsJhJC0CZnaH0zzUljjCHMncvRR9/KcFhRsn7m9xQ+HAnvF08tXmcCadObN6t1rn5sXTkbig1T96E2Xmlx/Td1VF9z8wXNwv0TravIC8UWlydXV9hUumkjTufv7w8c33uefcHYXvQ7Mwk+RutYnol8xGYaEcuxj2fRf0mYRapkaWMiRznymK7+6T5H0xSFLI15hZjSgQxtp5Mr5CTJX+FG7Dp/yHX+xjPyyOv36zXn9tv6NiKYZMXPyXaJP+YDEkEMmNAqMpTQ5pHGhr3+Xfr/wFZEfpabNwwWv+MOqKtt6oW9q31l5bxGAn08jekRgHkMV9sO7k7lzDvelDP+6u+BogIt0xcQsY99a+IFpzX9/BIJy0BAh9QaXR6KW9W1Co3TFf0t1anBsDBydZ2OUdedwC8NbSJ+iAorhr13P4Pyr9wa05Rk9PAcLpkWkxSSYzckiYvMTQRutLIo1bvi6GKvLIFG7XwOslMfDtL5HGubERYSPuqPYStDifvqQjYqEhrDno6UixekGfEcl16MSSZnPTQxaumFC5SQaRgJu+YFyFNA69YdeUToILwSpdmun0OtuuDbldlbstCNfRRCoW5JPZDQEbS+NwdsWSiDouhUOfunYs1Q4fhyU5AqZQ7d3MnB9b0r44OfQCjbtJMJ9j4HByxV4adX5sXPJ67vqWbK+4iuTmk+PuERYreNx0LDO8qm2MULzJ1LrFSfcyrFYbmzu3AwGDE2k0mTEGBAiWLA4bJBja6COTuDGukbP1ysW5MXc3FBCGw37VhLPmQIM3b+k9UAy58wSxjoiE6QBcAP9HJC7OHXDyQJ+eM4uFBpJJGoeBymRPWc21O/ci0igs1hy8gJnnfoe8CHlF9rGbkADUgyu+HWPsI5IwjnuHHIfFFTBOjxu62Xk9gxxA8XGjPgNXduWFKUNnscKZcXG4ii8vmizl9Ps+OVdywJ2knZ7V3klOL0kirjNL4wYhhypHNeQVGVUO3x5liasw0k7PbW8Qcpz7s1WqHKV77j6ZSqTK0XGPA1VYhbutXNxQikIyrnWkytF0PjcTYkz+MaQxcJ/VmoMz/eKO9NI4VQ7fj+slXXPUrYE8dxokjZN2em57g5BDlcP3Kl1z+PYoS1wScZ1ZGjcIOXTNUXb/7lOYHG7uJbxFy2pPlUPXHJVjn+u0StccVRc1M3qfo2mRqmzdkIrxjUik0+//PYmTVwQnCpyFO2uk55KIq0SqHKocFbXOlRxcpwd3pUmEWTg9+IiTSHotwW1P1xwVF1qZcyUHd6TnkojbnrjTf5ELct2t8okmPP3iOr0qh98NtRJvbaLKUTNZI6vK0TAId6SXxnGnQdK4QcihyuF7lSqHb4+yxCWRtNNz2xuEHHqfo+z+3acwObhrBO70i9uerjl0t6py7HOdVnGdXtccVVc2M7rmaFqkLJNOvweSOHlFcIO43ucoO+rwyXNm7nSJixtkWqVrjkO3upwwiVQ5fPPWSrIkGoQcuuao9Zc8ObhrBC6JuO0BB3fB/6gkjeOO9NK4QcihyuG7jyqHb4+yxCWRtNNz2xuEHKocZffvPoXJwR3pVTn8bqiVeNOvQcihylHrB2SFycF1ehxWn63ye6IsPSM5VDnKTth9CpNDlcM3b63Ec/pnnVapctT6C1lhcqhy+OatlS6AHKoctf6SJ4cqh2/eWukCyKHKUesveXKocvjmrZUugByqHLX+kieHKodv3lrpAsihylHrL3lyqHL45q2VLoAcqhy1/pInhyqHb95a6QLIocpR6y95cqhy+OatlS6AHKoctf6SJ4cqh2/eWun5yPHZxCFPEDOHEV0HwWt6ca4JTtxwaVwRe4cTh9zF6BHE4XZNcrWgw55J43BY2fji3Pa+yDjk8JlXczKM9wQxj/txzLjh3PjiXBw7Djk3XjkXN0EUJjsl44GDkaI4jUNe08ZmVjoO+eJPEAQX6YtIFA4NQDrouOHSOG4ccmncK9jr/ZKMjpZI40A2jUN+1FeF45Xjp3bvkyJI5NEjFl+QuHtm3HBpXMKMQy6Nc3EUlzc0O4RxN+gNjUN+PNyzbBzyFwj3bUd0XGsCx40bLo3jxyHnxivn4VxUc7so/v94T+EbaVxxMNH44miR1d4XGIf8DpMh9zQ3lUhc0Qojbrg0jh2HnBuvnIdDGOhkcktHf5XGSccX57YHH/kS45BPsBzHpRMJvwjtxbklByduuDSOG4dcGoe40lP8TJa0mzgOgwsOq3HIO0dz8TjksDa5HHcdQuHQCCtuuDSOGYccZ8eKV87ETd2IsqQDgkvjNA55Jyv2lUVoAdxUoBITR75ypzxssanVc1h8xXyVjiiOfYfcTR/PPQ4554UNMLNofHFue4P8TFbvkPs0licRy+kdIznkOAEHdwGaStwXJ3BxXGeWxg1CDn22yncfYXKocvjmrZVkFWYQcqhy1PoLWWFynDDSq3L4PVGWeCQahByqHGUn7D6FyaHK4Zu3VuI5PXf6NQg5VDlq/YWsMDlUOXzz1koXQA5Vjlp/yZNDlcM3b610AeRQ5aj1lzw5VDl889ZKF0AOVY5af8mTQ5XDN2+tdAHkUOWo9Zc8OVQ5fPPWShdADlWOWn/Jk0OVwzdvrXQB5FDlqPWXPDlUOXzz1koXQA5Vjlp/yZNDlcM3b610AeRQ5aj1lzw5VDl889ZKF0AOVY5af8mTQ5XDN2+tdAHkUOWo9Zc8OVQ5fPPWShdADlWOWn/Jk0OVwzdvrXQB5FDlqPWXPDlUOXzz1koXQA5Vjlp/yZNDlcM3b610AeRQ5aj1lzw5VDl889ZKF0AOVY5af8mTQ5XDN2+tdAHkUOWo9Zc8OVQ5fPPWShdADlWOWn/Jk0OVwzdvrXQB5FDlqPWXPDlUOXzz1koXQA5Vjlp/yZNDlcM3b610AeRQ5aj1lzw5VDl889ZKF0AOVY5af8mTQ5XDN2+tdAHkUOWo9Zc8OVQ5fPPWShdADlWOWn/Jk0OVwzdvrXQB5FDlqPWXPDlUOXzz1koXQA5Vjlp/yZNDlcM3b610AeRQ5aj1lzw5VDl889ZKz0eOcXKX5iaODZGi0CIkEt5hTKTxCIFQbmqXdiQ7XSCITMIImsLEIRYOzo5ODNw44UWHEcbdwBijMWFevOB/UoRiksJdIdzaxFKtTRBoWRaHSFHJ6B6WJpI4bjIeZW++zwl3N1maLsx0tsjWcZpS4CBCkKpkijfEEsm+AmY8J64Zr/O9QogimmxcnDs7cJI0NoVDuHpHbdJdpHFzMHvyyp1df8L0CwmheojExZXhzIjm8PUuPJoUzl0GfbXFK4mlcTajtcCs48gaDBtplKZZZPr/1rm9HzPCik1v0W83NIdurpMrBDmEj/UnLs7e4OSmdOBHEufOan5D95s0bgJOjm9xcCKNb5JXP70gQPiaiQMMYc9+IntWGodh9r1lhMaWxsE7bfD4cd3v7VH0XZotzOzKxuswCCjl2MQPk8RpK5GmdnyP+Q09PXDu957SF4x/TNwoSa7Qw6RyUDhc4BwUG1FnJo2DyZL7sSXJ4QCTyR05CnBxaG169ZLo1OJrYRxmaS85MxFh3Gw6XcbrJ2oZEa+z2Jop1hxpHFLcMNkjvHRKBh0tQk3OMDOhnAth7aY/FR1NIJm40Wuc3hRhHYlE4YpGktckOcRxN27gQThPImFEQaxJSZwbS7GaJBKkSBR3j77HYSfEYTHSyuLQ3CJa/fkj5fDZarUwOPTL3ujs1ZffFJHaR0SyI8R8tw+WgI0QUN1+A6QY7l9adyHXZHsEDiHc0cy/JM9LGgeTLSyMR56/vQXqjoKhF7i4xZ29ZvSXlcWh+y2umbwQaVzhzg/2D5VbH838aM18vMjTMIyotDZufsNYQC/Sd28eP5INGpvHv6zTNXVcLs4G4TrfmJRqj8KlZpNjmmmpdqRx4cfHN+/SBal8Tr4nY0tveHBx2IdKrmf0NFgY57Ztlm7vjUjSOLjwCxO8+47q320QLLEgH0UxXJmSmSh3GzjklBhClAXrIDIx8Rcttuk6jbFL1o/k4m7zNAuiLbbo+tujcPk2CrI0v6XaORnXf1qxiWC2zA1ARHI71oxQy5iksXBFjyLmMZWkcTg7TA6n9IGlcZiT5gx/xyp85KZVJo5Cmhzsm4DY9kKLFNmMjeIgjqiFkeHibHFAxmEpnGsiwmKMSsI4Z4moUOd+N5W+k46bj27Tg95elMZhJ+ALjEPOJYdx5KBcEOTg4aw7bPG//iZJ3K4ZJjlwdlRitsclxwB30pUcHX2I/sB9Dq5ysJ+t4pKjUI6O02pU7RSmUdkukk6//yckjunMey5+cnKochxVVp4SYSjgTFhOI4f4tIqnCKocDWeY8NYSJyiMKkd7rMXMWpWjbRZVjgYb90Vdc7R9pazBYhGLNnrdhlka3IuxmGCuJVQ5Gr6qytEwSFV8xmmVrjnKcWL3Kaww3AW5rjkqMjQzz0gOVY6zIMcJawnWfQ60p2sOv2eLkq45OowivQvFbU+VoykEVZmnCNz7Jrpb1eX1u7pL38pV5ahI08zwSDQIOXTN4TNO1xxN59yVudM07kgvjRuEHLrmOAtyqHJ0cxK1qhy+hx5K5HRpDyVxwoqga47f6cxcp+fiVDkOpGnmLp0cqhy/k2yDkEPXHD7PhBVGd6t+p9Orcvj+WS+RirAHkzhhp5eeVqly/E4SqXLUaePnL50ceof8HMmhu1U+y4QVhjutUuU4R3LomuMsyKHKcY7kUOU4C3KocpwjOVQ5zoIcqhznSA5VjrMghyrHOZJDleMsyKHKcY7kUOU4C3KocpwjOVQ5zoIcqhznSA5VjrMghyrHOZJDleMsyKHKcY7kUOU4C3KocpwjOVQ5zoIcqhznSA5VjrMghyrHOZJDleMsyKHKcY7kUOU4C3KocnxCckjHIU8eVo+rNR2Ac/UicPGd3YPfvYmLs/nqMd6EZLwPCheHq/hxlZNvT5fGBcEahnsgQx0BoHHIO6JBucDErLjmzxuHPF5t3zxuYyJ9a8OvTZoTqDjm4hY/mO/yx/WGapDCbdaP+XfmhwXVjjRu+/hmu4rpyE6YViFpHPKmfjiz0NbDb2kBe7445D9+fAzTp4BKGxvm8fqHXApngxRs+/g11R6F+/qj+TpMA0u1I40LNmn4+PFHOq4cM764xiFv0mdXdlHUni0O+Rjel2XrPIz7/9If30TbjyboR4UxFzeKEcnPrExMHJfCoQlEF4xHVDsn44gLzddZBk6SMfIcezQOeYfjM+OVP3Mc8sd334X5IxWtM7Ph+pdsTUaT5eIs5jmBycgothQuzEyA2RkZTVYa95iH371DrHcqLrfGIe+20D34wolrDtgzxiF/QDDw6ztGPO0i4Lcc7oOL4r2k2yNwrglrP9DtSOPurhHanBMPnBtfnIuTjS+OKPSsuObS8cW57RVhx58rDvnVEmG5Xs3pXResnn7F8qhj48GrcqssDm5xgzFhnpDxtCncGI0kyc3CO4mOgjQumb+C4ZZXHYfyqjQOuWeOqsCNVw4jP2cccrchQE6dk+kIUeSTifPE3sTF2clsniDePJVo3FUyn3ECfQvjYDK8Uok6fbdjyYu7wcRJxxfntudc5AuMQ17E5XI7a/0JUdTQy/0Y9y0Th6UsGqPbI3FFK2PaS4Vx0ne+ue3BZI6TtOGkceisLzAOuXN6hrF3Tk93ChNHOv2ehiRO2OmdJWARDtl4ilCMKXRz7qAJRwClnZ7b3mdFDvazVUWvcJ1elWNvAe5IL40DiVQ5Op7ROC3sGfvZKkcOGJxKTEXYT6vI9khF2J8PieOP9G5wpodwfnvckV4ap+T43eRQ5fDpznd6FomkFYHbHk5OyfG7yaHKMSg5HIOYawRpnJLjd5NDlWNQcnBHemmcKkcHM1Claw7f3Xcl4ekSnM+JAmdtIq0I3PZUOTr4cRo5VDl8KvGdnkUOaUXgtqfK0cEMVQ7f16uSsNOrclSWbWY+o5uAqhx+5wqTiDvSS+NUOVQ5KsfW+xyVKXYZ3crtZIeuORp+UhSFFYE7rZJWBG57qhyd3NDdqi5ucJ15ABx3d0kap7tVHfxQ5ehihypHl1XcfrQsiT6rBw/1DrnvNPIkklYEbnuyTs8l0WdFDt2tGpQc3DWCNE5cEb5IcqhyDEoOOCl3pJfGqXLommPn2+e6lSutCNz2VDk6mIGq0xbkqhyqHJI/p9U1h+9PXon523D9DblnNbythTf94uJUOVQ5Kg8712mVrjmqLmpmZJ/BwgorxpyJSqdNq3S3yu804a1c7kgvjVPl6KbJaeTQNceg5FDl8M1bK6ly1IzhZ5lrE3K6tG+VxAkrApze+T35YydpReC2p8qhylER7lzJocpRdVEzo8rRtEhVVuWoTOEyXEXg4lQ5VDkqB1PlqEyxy3Af95DG6X2ORkfUi0xF0PscdaOpcvjW8Eq86dcgW7m6W+X1BKYjbplALrRPwEk/M8VtT5+t6phZnbaVq/c5BiUHd40gjdM1RwczUHUaOVQ5BiWHkyF946Fv4n2JN13irmFOmVZNZgghiUh63fyp1YaYQUzpyElF/BUETqlC7hzJ7HFHvj1Uc3E2mbvQNdPDv+zOUTgXfOVqjpUOkaRxY0SlceFciMNOpHGIhuOmVeRxuTjHcRecj0roLMxJp+RxpzAL4/QmXBzMbNN1nNc8uzMbxrE1GK3ygMGNKP3weub6j0jjh/GcNg0sI4zD+j5JXhVxhXrPkMRNX+HfMwJbSOMQtG0Oo/Se/O5LUdy9u9qF8+j+xMWhodl0Sfo8emsKI7tWiTSezywnZBcTN07urVn//G0nI2qVeRovzGS8RHDiIK3Vd2bjwK09nXT0/02XcND5ALjuIKJVLeKwvkY3k9FYS9yxy3Bd9Xqc2P6rHLuNzdNw1Zl2Z5IphpTpYtr97aFWHAfHG9/dk3aDnha4Y3Yr65Orm2R8Sw+PCKfuFOHmcGXdOQxVBde6vz3UVrjyRI58onttlmWbTievVcZBAOUY21Vu4qxW35kNgw/v7ycM6cAV/5XzMCoJ4xa/YsiauTiD/YnCTV0rya+L/lbcMCGLw/FgNjcAkUkU95M7HON3Glxc4SF0xOjxDEOLTf5EXmwyv+dZhYt7NX/4mK47fdyrjOI7kyQPCB8fBd4XHYXcuI6jR+bC0PdXB0ofyUnj4M03GK/mRw5XVVM41wYGtUX1D45kpHHjq3tYl+FVwjhcbjK1HOVg4uY/YZpGD6KwsXP6I+P7Qbdh56mdJVeHmu5chTvSX2U1zsx+na5XHS7uVcX5ypqb2SIN4thERIrjJS5nTDIdE0RWksbhsLhumIhIJA5NOAMSzRSHEsUVB4QbsJIcbpJMp4yrBXG5OFwAFnbUxgLGMndYssMmgNCd4YZtHg5ntzT5Y064e/QujhZQDlvENy+Cl/f837VFDPmFC2Dfn5a3DkYnaZx9aXFknCOVKByauEUK/fU4AAAgAElEQVRjZJLGFWa7XZLHFcYt7eiWYzYuDuc/sg+WcR1fOeQL+nph6Bf2Tg6Hpljt/dGa+eQ6SOOY3MrNH8HfK3qrdL4EhbFPR40c0jjsA7idAPK4FA5NoKHpkjp/cRyMNk+Wc/K4wjg3F7h6mJF24+ImyQ02S78mF7yh2awx+7qhrneMLaCXV+TpYYubh3P7pNlqS27lbtN85JTDxFFIkiM66SYg7uNSafdslRiOfKBwfz4kDmeElRWt5MI46Tvf3PZwsW6pQ/cDH4eNcEP6E5wu5hwW3fZ8NwGHIQfD2AU55HCk0585OWCJz+UOOchBz0Q+L3IM82wVPWIxFebSycEd6aVxIKUqh7dPtSucwbNVqhzV7FOVozJFI3MB0ypVDr/PdM3h26MsObvomqO0RuNTeC2x+7ETrTCXPq3CFeqao+FK+6IqR7ddUKtrDs80uubwzFEv8EiEFZb8S91O2sqlR3quInBxqhx1P0Ger0QDLMh1t6rRG/sic6TnKgIXd+nkkFYEbnsg0QDk0PscPeRQ5aiMw1+465qjMpqX4U2XuDcLB5lW6W6V12OO/pi5iN1J54700jhchCqH3ufY+TY5/RJ2+hNIpMrhDz9lSZWjtETrk7mGIZ1+3zCJeyZySCsCtz1Vjg7ZQJXeIW8xERXPRA4cV5Wjqz+4awkuTtcc3VZ2taocDdvomqNTOlQ5Gn5SFFU5uqziFJW7cNencrstiFrmGkEaRyrC/oRJ3DORg7tGkMad4PQnkEPvc3TzoyAHTE4lYRzp9GdODlhM1xzdPqO7Vd12QS1TiS6dHNKKwG1PlaNzyaG7VZ2EfKZplSpHZ2+4SlWOo6ZR5fBMw1UELk6VQ5WjcjBy+qXKUdnKy+huVTeLXC3eFVG4jWewrgJzpOeuJbg40un350rinokc3JFeGqfK0e3zep+ji9zPRA5dc3R1RlGna46jpmEqEakI+wOQuGcih7QicNtT5VDlqLh3ruRQ5ai6qJlR5WhapCqrclSmcBmuInBxqhyqHJWDqXJUpthl+LtQJzw+or8hb1h5X2SO9NxdKC6OdPry9PCQhnuK7mjSNUe3afgk0vdWdVsQtQU5+rxv/y+FcZdODlhMn63qdipdc3TbpSQbZtBEunRycNcI0jiQkjtd4uJUOY76qrAicJXo0smhynHUo55POZ45Djk3XjmJo+KLl0FSKJyLuKlxyEtrHT4RDM4pBxlFZuxiCNm4ewuoVpvH69QiwNzhCN05bnxxLk7jkB8dhIolUX+8cun44tz2EJbqc4hD7mL6vv6QksFrvv15bVyczp6u2n3FjC+eMHEah7wMHdrxqXHIfaOU8cX92naJjXPSawNSOjYIBu5e+tU+kl/zSuOQ94wfsOBf9XxdfkXFF+fipOOLc9vD+eEy6XfESeO48cW5OMy+7t9/CMLaDKo7u04/Pszh+lTixhfn4jQOuT/61EsLIl454mVqHPK6wfZ5F4yUFa/c7StaQwakXK3TrzEUzLqjih9qXfxSjUN+ZAThxit3hnYdSCUShyZE44tz2ytOXC6++M4OdHv8+OK8OOTFKmKJ8MREyhHQ1UW2pxI3vjgXh+NpHPKjcas1DrlnGm58cS5u5KLQF0HrvcO0CncuBPldq7qjQuOQd+/joZYbr5yKL14egMKJxxd38wJOXHPh+OJuAc2Ja86NL87FTXHcxD6S06p8u8oe0GjZL8c+ufHFuTiNQ96j1eTNQn22qtt6/Dvpeoe824Ko1Tvkvmn4ZNNnq3zLlaXnu0PuthbiKCRv2uhvyMu+2n/ynd49GULu0Uo/M8VtT5+t6t5p1t+QN/y9KAo7PZyPRQ4Hwnyk64z8Onkc94FCLg6Xob/n8DutLBXTKoxbVBLGkWuJ/fmQOL4zc52eheOO9NI4nBzX6bk4XXMc9X1dc/im4ZNNlcO3XFnSNUdpidYnU2FIRdg3TOL4zsxSBIBYOGlF4LaHk+MqAhenytFy4rJClaO0xO6TSQ7HIF1z+Kbbl1Q5Os3iKlU5PNNwFYGLU+XQ3arKwc51WqXKUXVRM6PK0bRIVVblqEzhMlxF4OJUOVQ5KgdT5ahMscsMsiDX+xwNK++LzJGeu5bg4kinL08Py163f3Q08RfQbiZE37Vjtscd6aVxqhyqHBUXSBIxnXlHMTlyOKbpblXVTfWMrjnq1vDyTCUinX7fKIl7JnJIKwK3PVUOVY6Kb+dKDlWOqouaGVWOpkWqsipHZQqX4SoCF6fKocpROZgqR2WKXUZ3qzrZcdoj6xoT0Pcq4bUJd6SXxqlydHJD45D73r4vCTs9nM8tJzhbvrpb1dkhGoe82yyuVtccnm1UOTxz1Au8hTueLY4xZ6LSadMqAy91wyCVCmdmAIVx5Fpif94kjj/ScxWBi1Pl6PYtntPDOUfFDd7uRqraQciha47KvkVGmETSisBtD8zl/k6Di9Pfc/ieUisJK8JuWoUOJBKpCPt/T+KEnd6dua45OiYxmNtYultdr/EUgYtT5TjOpHMlB3ekl8bBP7mKwMWpchx1P1UO3zSqHB2ygSpVDt9PvFJBIoyDVGLiSEXYH4fE8Z2ZO11i4aQVgdueKkc3d3W3qouYz0QOxyB9KrerQ3TN0WmVolKVw7MNVxG4OFUOVY7Kwc51WqXKUXVRM6O7VU2LVGVVjsoULsNVBC5OlUOVo3IwVY7KFLvMIFu5n8tvyCeLKApSQ0SpiuLNNaKBTendpcUcgxYjCeMQJXbm4qZQicZdIVAdJ3KlNA6iMEfEQjrJ4ibo0weENKMSEzdBS7PrDRn2zCCcLPqCPK47MxevnEpsHPo2yzakv6dpYM14vIhMRj+Itdra8Zzh9fe3kxtciwsE1Jukcfa+MCB5XApXNDC7J5+ilcfNkpvJ7X2v0fDlGMaVxN2gzdd39KjCxWHiNx/b7ap7snKozYJodUeHcERz01e3GK3IxMUl87tVFGSHM+nOrY1ZGMQPTIMwWsVUSuEv0/n0WHiqst6NuRMM4mX52Kc07gF+A88aHzteWU/h0A33+N9DiT/2KY1zcVXdGHnseGW9OG4XHrRs/ujnPozo0e/LL+AiuIyU8qb4zdcGATOns/LfHft00gKXujn2fVnPxc2mCJhpvn5DnWC0ykcGgWzTGAHTAyKtv3vA0OxOgUgWkbedwakkjMO63SXyBCncrgE6UIY0DiZzsYwpqzkfFcVNsSJ33kclLs71wOzhuzXhTkEamxXjsMUGhCQO12lXJk6p8wvj7NokcxuZfENSPVrf3tzPJqS+3Xw1u8EJkOyQxo0SBHy/IU8vIXFjnP4rwKgkjHMGu5l95WzXm6RxsNjk1Vdkd7l5Mg83md3f3K4jamT+9ufvo+V8thvS+q4Ys8i3yes+xO47Jm4ymy+j73/+ljq/1MQWyrHcbsOAXEDl6x1/Sxk79olRCNIxuTr2fVkvjcPibo7VDjktoXBOwedYtJXneexTGjefzGA4eloljUPUWcbVuj0WLg6+atc5tcET5FnhUcfsW9ZPwVssyMnpPBdXnF2WB9T5haGxZjZZbDZRHMam/y+L7iDocBsqXSPoLY1KEmHc7ftiTkVOqygcGsB/72+py5TGYbkEw11Th8X3srgbN3bf0R3GxY3n82R2F2WEO5nNX96Y0YRekSNMdeL2SanExSXzyci8+cuGOL84zNMlFuT2pR0hsDqRRtY+2JFdErDi61sAOUkUd4sjXjPOj8At0Yi1DtSfpHEwGX1Qd0rCOBzUXTCZuLglTvDBnSWVlnZhl7Tf2Ts0RLdm2bhFcWDq7PD9S0yruNFk2T+TNYhMS98EiopfutAj1rn/hrx7I7BW6+L0RpBoKkUx5rY0DK/FEMUhkHBsWCterNw5v06CEk2s8wEifVaPrD8rOdyWSn8i73zv/zmJc53Le1tIgSNcwBHjCyQHPTh+ob/nUOXwCHMKORgCUyiHIE6Vw+utqjDQ7zmGIIcqR63XLmBapcrRPc8p5pu0cXTNUbn7LuPWEoKKwFUYVY5GP+yLqhxd9NY1R5dV3ELshAU5PTjqmqOblEWtKkfDOKoc3aQELVkva+PiQHFslDWM3y6qcnR1hypHl1VUOdr8OdTgFVyF23Rbrlara46D0VxOd6t8e5Qlvc9RWqL9edq0SnerKgtexE1AXXPU5KKWVeWo/LjIqHL49ihLqhylJdqfqhwNmwgrAvcxk2G2clU5anJRy6py+F6vyuHboyypcpSWaH+qcjRsospRG2G97AVs5epulddjbovAPaDYcPF2UZWjbRNXo8rRbRdXq8rRsI0qhz/4HEqqHAdbNHJn/sbDhou3i6ocbZu4GlWObru4WlWOhm1UORqjYlVU5ahM0cyocvgsciQSfHp3mK3c4rkA/7ybJVWOpkUOZVWOgy2KnCpHc1gsy6ocpSVan6ocPotUOVousq/gkUifyj1mP7xOoohVjX3YY0mfyu22jP6ewx+k6iV9KrfhM3qfo2GQfdHZpXhKou49HXldc3QYZV+la46GbXTN0U027o+YuLhBplV6h9zvPFUO3x5lSZWjtETH5yAPHurvOSqdEVaYYbZy9ancDmagahBy0MGiyIX2/mxJ3F4Rui+uVqvKUTNGLavKUTNGMzsIOVQ5VDmajtYqP+NWrq45/N5Q5fDtUZZUOUpLdHyqclSDfJE55cHDz+ZF0rrm6GAGqgYhh645KsbpHfJuv3vWrVx9y7rfKUNMq1Q5fBvvSry1xCDkkI5DvkyjMF+TYaUCF2IJF7S7/p7/Z8Yrp+OL745B406LL06Fz0pDxCJNoyWFMyZANKEFaTd5XBiurt/3dMD+K41DXol3K8ONQz632+2bLEtbDTQqXChRBBcmA1px45VT8cXL3qdwRTidE+KQNy6rVQzSPM1MSv6cNg+CVRQtWv++WSGNy8J8YxaldY5/3uArTrxyjHcah7wMaNj8TGz+GGVRRkXrXN/CijB48983y4gmxIpr/gCu3Tu+EYnCgRwnxSGnrhPEMOsotxQuCrMnk5GwWBqXmyyLRpN7wmxQeIxjdDzPicYhPz7AJJO3v+TvNquYivP889tf0Qoj1C4zXrl7WSkSGTCTwu0a4Mchp64zCk0QpcGSwhmTbeLYknYTx23i7OcXpIDDsDAwJzwaDKhxyAtfbP/f6+t3eRZgAk2k7A5WHNOdwo1XTsYX358qiTsxvjhxmfEmRBzrdbagcDEmoo+xXX9q3GOQZsGCjuoKRdU45McWjvw45GuTZ7k51k5Zn2EUmoMfpJwz45pT8cXL41C4U+OLl9dz7DM1UR6GqT32fVkfp2kcP1kyfrc0zu2dvHNTVyJpHPKe4MzcOORXbzfrKNtse5oqAp4Ht3M3B6KlgxmvnIovXmochcM54T9+HHLiOg0CvJs4j15QuDgLsnT1zepT49J36Sb+8b40z9FPjUPeE535hDjkLlY5Ga8cEaiX+ONEmEaAbgbMRfE+wzjkO1t8wAeRrnH27o9KwjhYFl1B21fjkDf3DWtlhNLGimy36j06vLgvvrA75L22cF8WVhuTS1k8A4Af8JIwTH9kcTg/bjgzLk5/CXjUKQYhB81K8lH0/QmTOKYzc53+BByLHGhPGsd1ei4O5NBnq7r5MQg5zvfZqm4j1GqZZJNWBG57IBvX6bk4VY5a9/vZQcjhxt/+RCrC/p+TOKYzuzNyL5LuPyt8y8dJKwK3Pa7Tc3GqHEedYhByqHKU9uYqAhcH8nKdnotT5Sg7q/U5CDnc+NufSEXY/3MSxx/pcVKqHK1ecfbTNUfLLLuKQcihylFam6sIXJwqR21LtpbVOOSlx9U/VTnq1jjk+dMvVY6D1Ro5VQ7fIEyycUd6aZwqR00uallVDt+NdyWmM7tVkK45Ogzo7KJrjg7DuCpVDt8wTBJJKwK3PVWOmlzUsqocvhvvSkxnVuXoMh7qVDmOGMZVq3L4xmGSjTvSS+NUOWpyUcuqcvhuvCsxnVmVo8t4qFPlOGIYV63K4RuHSTZpReC2p8pRk4taVpXDd+NdienMqhxdxkOdKscRw7hqVQ7fOEyycUd6aZwqR00uallVDt+NdyWmM6tydBkPdaocRwzjqlU5fOMwySatCNz2VDlqclHLqnL4brwrMZ1ZlaPLeKhT5ThiGFetyuEbh0k27kgvjVPlqMlFLavK4bvxrsR0ZlWOLuOhTpXjiGFctSqHbxwm2aQVgdueKkdNLmpZVQ7fjXclpjOrcnQZD3WqHEcM46pVOXzjMMnGHemlcaocNbmoZVU5fDfelZjOrMrRZTzUqXIcMYyrVuXwjcMkm7QicNtT5ajJRS2ryuG78a7EdGZVji7joU6V44hhXLUqh28cJtm4I700TpWjJhe1rCqH78a7EtOZVTm6jIc6VY4jhnHVqhy+cZhkk1YEbnuqHDW5qGVVOXw33pWYzqzK0WU81KlyHDGMq1bl8I3DJBt3pJfGqXLU5KKWVeXw3XhXYjqzKkeX8VCnynHEMK5alcM3DpNs0orAbU+VoyYXtawqh+/GuxLTmVU5uoyHOlWOI4Zx1aocvnGYZOOO9NI4VY6aXNSyqhy+G+9KTGdW5egyHupUOY4YxlWrcvjGYZJNWhG47aly1OSillXl8N14V2I6sypHl/FQ95kpx0s7Qpx2IiGM+wNiuS8JmPvaYUiccKx5az8wDurOjsbh3AGiEwu3tNdoCSHuqTTigNCIMA5n5k6QTFzcEif44M6SSku7sEva7+wdGqJbs2zcojgwdXb4/qU1s8lis4nisKYondksupsl8/n4yHhRVV+93ayjbLPtbKRWufpmlWZBFteqOrNc3IsoR1v0dVC40LWSRy86T6ZWWeKqCz+SmSYJ/nt/e+TrWvV4nIyva+VjWVncDUb65I7s1oSLG8/nyewuymqm6sxu/vLGjCbzYxdZ1U9hvutZVTya4eKS+WRk3vxl03lStcowT5cmmS632zhAVPXevyhf76IKT4iU2LXJszzqbc1EUW6f4jhP6eMycTYNwzwyKXVcCpeaKA/D1BLtmBJHmAOudzPBkGIp3NVkBjewyafGJckV4+ywgmHj4L92ja7o/wvyrPAo6nqnIIZNZlMpXHF2WR70n11kwtBYk8zhB/kmjYkUrW9v7mcTcoh5ff0uzwKwjUhrGz8aQx425uIW2ToOwnBDHDamcJswDOJ1tqDaKXFHh7Lyi/FNkrxKRmXx2KcbHK9mXwHcn6Rx6NDJq6/ooZmNm8zub27XEWW/b3/+PlrOZ063+tMsuXmbvO7HuG+ZuMlsvoy+//lb6vxSE4McU5vGWZYFRFp/9wALYoZApMnbX/J3m1VMNBfENo43EF8p3DJIo8DEEdUehcMuRRClwZJqp8QR5thbbLKT3T4wJq3oiz7E7jth3NStoBmH5eLcBc8evltT9ktjs2IcFkrKiWcNhjNxMKJdmTilzi+Ms2uTJMs0CM2KYlKc4lKmc1LeEps/RlmUke3ZzDxlITnCxEyczaM15jrkcSlchkbWmPRR51/iKLnHiHuP/z1QuGQ2Lrz0k+Mw5DJmczg3Hg4ugvboGcGbryOzTKYz6nrdcAzPu5HCzabJ0piv31D9G63ykRmPFxFcqrYU6c6utnY8p0UQs7Tt9k2Wpd2t1GoXUbQKgrxW051l4iyIkeZp0N3IoZbCBWgEjm8P/6I7V+KooR7EgF/dk4Pk2M0LJrf3dHuyuBsc8PXdFXXYhIvDGD4f2+2q22qH2gzdf0evx9Hc9NXtrLBi/zlyccn8bhUF5IbB2piFSSbwvgDLSyLFG7dnMKXpsUyjMF8HRHNRsMjDGK4shVtiLhRkYUq1R+HSEDPMNFpS7ZS4/h5z315BFDgTF8wM5gu6OTeDkMRN0KcPU8Z8mYebuGnV9Sam7Gc2WWaTMXlcd2ZYkJN2YePQF1m2If0uTQOsOXBLO47C6MDp7lxkLIhBc4N7h9zYqNgj6z5arZaJK27MY4eESiTONYGLpdopDgUc2WuF1cYkjntHWxqHLp24aRXjOrg4hFpmdEQcxZzD4rwmozHj/Lg4XAUOTXdv7Harno0chkkOHo50+r05SNwzkQPdDxcgOeTGJ2kc1+m5OI1DfnSkKbwPty+oxFQErsKQTn/m5JBWBG57IBvX6bk4VY7fTw6eIkDcWApz6eQYQBG4CsN1ei5OleP3k0PXHHUbckd6aZwqR/cU51mfyuUqAhenylGnGvL8tQlXEbg4VY5GVxyKuuY42MLldLeqe2jW3apuuxS1zLWEKofPtRMUQdccDdMVReif/FZurPc5PKrvt3y77O/VqXJ4ZqsKqhyVKdoZVQ6PQwMogiqHb+FdSZWjzcWyhly4P9NNQOldKG57ICV3oc3F6X2OLlIWdewFOe/+ha45Gpbm70KpcjRMVxRVOUqdaH+qcjQ8RpWj7SSo0fscXWZ5pmmVrjkapD0UL+DBQ92t8qmku1UH963n3O7cTp59ezVLulvVtEitrLtVdZc65Y42dy3BxXEX2lyc3iH3e7ZWYi/I9dmqmtWK30DDq+pVnXnuLhQXp7tVtQG7ltU1R80YVVbXHJ2kPIFEqhzdFkStKodvGr1DXo07XkbXHJ45/IKuOZok4q4RpHHctQQXp8rh92ytpMpRMwayqhz+oFiWVDlKS3R8qnI0SSStCNz2uIrAxaly+D1bK6ly1IyBrCpHx8iIKlWObrsUtaocTRJxR3ppHFcRuDhVDr9nayVVjpoxkFXl6B4hVTm67aLK4fOnKMk/bctVGK4icHGqHB3du6tS5fBNo8rRPUKqcnTbRZXD509RUuXoMMrOMuf/OlB9Ktdnuj6V2+3MTimL2YNvrlZJlaNlkkOF7lb5zqXK4dvjUNLfcxxY08gx36m7G6zccN6fSNwzPXjIfYpWGnfCA4UnLMj1LesHbtdz7AW5/oa8bjY4KXd3SRrHdXou7rParZKOQ46A2pzA0S46tyDOhfq+puOfF9G+e3DcuOHSOJiCEay8iMktiuPGF+fiNA65N+Q1CtcIp82IUpUI427fF+E8yUhBFA4N4D86brg0LnFW0zjkDWdynfFZxSHH1cwmV1SAQ0QTEsUhhNZ8gsB11HEpHDduuDRO45B399xnFYf85quZi61IBnGTxo0Q7Du5oSWLxDHjhifCOGcwjUPeEg7nSZ9PHPLEThFQm+QGfjEoi3Nv8kUip1UUbtcA/WNuaRxMpnHIO7jhdufoX9a7GQMPh0M8ZxxynOh4Rk5vXHxVSdwDJu33+F+3OB9qKRy0hxU3XBqnccgPfVTPuUEIrvJ5xCG/v8XMf4ZtSSJJ4+x9oVbkcSlc0QArbjguUBQnG1+cG9f8Bpehccjb98aGiUO+mLuntOkkjMNCe4aQ32Sicdy44dI4iK1kfHE30+C0p3HIO0OmDxSHvLibRfMDk3/czRLDWTQGf6DJQeGKVhjTXGGc9J1vbnswGffmHhenz1Yd9cLC6Tle6sghh7t0csAS0ne+ue1xnZ6L+6zukOPnvCH5UFLEfipXVhESpsJcOjm4I700DqTkOj0Xp8qhyuFkT3T6xR3ppXFcp+fiVDn6yYHxjUpMRVDl8A2pyuHbo1biPdoOiuOnJO3tqUbNQO/KlV1L7MiBQZpIlz6tcjKEIZe4Snwtj+MqAhenynG0F4UVQZXDt7Qqh2+PWkmVo2YML6vK4ZnjFIXhKgIXp8rR6IpDUZXjYAuXY94PkVYEbns4P67Tc3Egh/4S0HeCslSQw7kEkYRxqhwNe/PXJlyn5+JUORpdcSiqchxs4XKqHI19oH3xy3z7iO5WeexgkgMk0t0qz3BVgbfQxjDEer8V9E9+K1fvkFe9VWT4Tu/8ntyj5a4RpHE4Oe50iYvTNYfvKbWS8FpC73PUbOuy8grDdXouTtccjS47FHXNcbCFyzEVRloRuO2pcnQvifQOue/GuxLTmblOfwJO1xxd/cFdS3Bx0D9dc3QbOiG3fJ+JHNyRXhqnyqHKUVHlXMkBJ1XlqHrJy/B2oVQ5PKN5BdLp92gSp8rh2bUq8He1dLeqMlozo7tVvkX4ZFPl8C1XllQ5Sku0Ppm7X6Qi7BsmcXxndjMh8v4Fd0EuvZbgtqdrDl1zVJw7V3LomqPqomZGlaNpkaqsylGZwmW4isDFqXKoclQOpspRmWKX4S+09Q55N4+M0bePtJzKzYR0zdEwC4yiu1VNm1Rl3a2qTFFk+At83a3yLVeWdM1RWqL1qWsOzyTctQQXp2uO7rmSPlvlud2+wB/pRadVrjHMR7rOyK+Tx3HXElycPpXr91itxBzpuW8V4eLIhfb+FEncM5GDO9JL41Q5VDkq9p4rOVQ5qi5qZnTN0bRIVWYqEen0+wZJnCpHZXovw9/y1d0qz3D1gu5W1a2BfU33H2vLV9ccvuXK0vMpx3xyHaRxTL5lPX/EYvEqmdZDUnXl50vEtkMQma7v6nXSuKWLyYtD14/RladwaAINTZdd/7ZeJ46D0ebJcl4/RlfedYIkzkWyunqgw9RxcVPX+fYx757JH2rz7Sp7cDEoiIT405OXVyRswsUhMt5DttqS57dN85HBlbxF6HcyXdtraxcIJU+kJaK5LwiM+1oaZ1+6IPc4RypRODRxi8bIJI0rzHa7JI8rjFva0S3HbFzcyPV+4Sz9V3JnX1h714/ZfQtDv+AguTgclNXeH625mS3SII5NZ+ynWmUcLzHGuPGjP80Yu5GuBWkcDouggBj2iUTi0AQaoq9CGlecty0CGxKXgK/lcJNkOmVcLaaGPFzhIktMRYiUY/B2HkWlCfqU7gw3deXhcLylwcGJ04vexdECyvEQhmGUHgSvO5cbd4qYPRMJVzJJ7q8I1HgsjVsg4ij8dU4dmMK5Nm6SZEG1I40bX93DcIhYSCVhnBtQpvaePC4bhzVWYg05bVmt06/dQEVdLuw8xVBAOhQX5wa+r9P1qtvLD7VxvrIGa8VVbuLsULlEclQAAAzMSURBVN2dC4MP7+8njIENV/xX1HDgvhfGLX6FpWd0HHIKN3WtJL+CQ/1JGoejwWxuACKTKO4ndzg3oBGJi0tmk/v3H4Kw24tqtdv048P8FXFUfD2/51mFi3s1f/iYIlYslaL4zkzGyziMA1I54sB13JQcYaYLty7+9DiMua85ykbhnJu8hq5RI5o4burGvsWUPK40Dgvo8R1HOZi4InB4QEaH2WRZ5jyKul7QZ7rEelwKh0NaHHpDcSMOAijHxOZBRG5WmSj98NqNqVQaP4zn6GYySeOwg5wkr1zP9CcSN3WjGeM5DmkchpQ5jNJ/9sW3orh7d7ULejHJxTn9fv0hJR3q25/Xxs3myOsdz7E8ZcTQZuLGyb0165+/pciRp/HCTGajOAsZ7IjBcwgCsfPmps1uRfvJcTaZOwuSW80UztHrCms76jqlcWO3DeCM52629fxJ49BZuz7rOWZxPkzc2M1sLSkcJo/XqXXXTBx3CghtlWRS4ojmnG/adB2Ta6IwjqEcWD2xoskaN+a64ZlIxU3AT48j73zvT5vEFVfJumkHa8jhpJ+Z4rZXOCdjzXECzt0hp9PQb1nHUDmf/au/+xu7WPy7/+ufv6u8FkOB/EvdTiMHzY4dicRwpNOfOTkc0zizuQFwTjnofnBDMg/nyEFOqzAiYy5CHxbd9pvukL9Krib/PV3+r/8Nuyv/amT/67DkOO0t69W5HM0IK8ylk4M70kvj4J9cp+fizoIc8Lu/tfa/z6eT5Orq7+/+vvJDXIUqR2UNP0OSCIOZ5HTJDY7M9j4j5aAfRxpaOcaz/9u++A/oe9x+mP/p7f9cecEg5FDlqOxbZPhOzyKHtCJw28PJcRWBizsL5Zj/rb37F++L3TDcosG+WJkGIYeuOUrz7j6FyeEY9PmsOZ5fOf5htPhfkuS9u+WGhCcyyjQIOVQ5SvPuPoXJwR3ppXGfq3L8lzv77/d3R35Krm4OfTcIOVQ5DgZ2OWFyqHL45q2VftNu1ZO9+wf3oOx09zBqoR9Fm4OQQ5Wj1l/ICpNDWhG47X2uymHtA+73zfFoTPFA/qHvBiGHKsfBwC4nTA5VDt+8tdJvUg67dI9qgB3zf28f/np8eKJpEHKoctT6C1lhcnBHemnc56oc/2I0Su7xNH4y/rcW2/eHNAg5VDkOBnY5YXKocvjmrZV+k3L8N2txb2M8xi+5PvxrPG1YtTcIOVQ5KvsWGWFySCsCt73PVTmSfxyFyQ3W4f/Z2v9Sf6p3EHKocgxKDlUO37y10m9SjlnyLxbf/094lPjvFvafoB9VGoQcqhyVfYuMKodvj7Lk7HIGDx7i/t8//e0veEVD9o9/h7scAy/IVTnK7t99CpNDlcM3b630m5SjeODANXLjiFFbkaty1EzbyJ7rg4fcNYI07rNdczT6vSoOQg5Vjsq+RUaVw7dHWSqmVc//bFV5Oq3PQcihaw7fzsLkkFYEbnuqHN0/WhwwPge6hkr6S0DfQvpUrm+PQ+k3rTkO/7yRU+VoGKRW1DVHzRgu+5n+nqNxlYfiIOTQNcfBwC4nPK1Ce/p7Dt/CZUmVo7RE65P5W3NSEfYNkzh5p3d+XzwF17q2WgV3jSCNU+XQNUflhudKDlWOqouaGVWOpkWqsipHZQqXUeXwzFEv8Eika466zfy8Kodvj2GmVXqfo2HlfZE50u+jxHa3Ua9ltkc6fXl6WPYWq+n6Mep5XXPUrXHI83e1zuPZqsOZ+zlVDt8e9RJJomcih6456r3k5XnTJYx4o2Lg8/5tuzAIOfQOuW9oYRJJryW47Q0zrXr+14H6nVUrDUIOvc9RszCywuRQ5fDNWyvxFEGVo2ayRpacLu3xJE7e6Z3f632O5u2EgV8k3XCPQ1GV42CLZu5cyaHK0eypqvx8ysGOQ751gx8dr9pFGpnNsTIikjTuxa/JGL/4uiIOO6FweEvezTj59QXVjjQuQWQiF6aFOq40Di89QzgXzEmIxMW5eDSJpeN8v/mbj8E1foNEHBY6fu9i576Sw42vg49/86YpZM3ySXHI7eIlXgVk7YhILmL09fX1p8e9deGl7Vvi9EYu6noPbrH/mjp/adyoMBqMR56/M64gbuTCt6NjqeNycXCRpX1JR6J/sG9xHbSfLBbL0WhhH6jz4+LcK96u39oHnCeRTohDnq0Qy+ox+yEgUnj9Zr0JNxkBC6RxozA0qyBaUcelcKsoWJkwHFHtSOMyGG395jqkjiuNixG+b2vTlDouF/dD9mhiu8qoON+ItZeOTJBTxw3Qq/adIWFcXB6YURpmZJz0k+KQm2/tu+C77ClG7Nm+P2O38bsojD41zqbh1qy3ed+5ue8oXL5dm22YW6odaRxM9i7eIgRdr3VDF6FOFIcxJTI2fKSOy8U9Zd8F7ywZj9JE6zS164w8rsnCzAbZljo/Lu4xW9s0WJORp06KQ76Kb00QZoYaEYJv0jQOsvRT4/4QbEwQwXmIROHiMArMJvgD0UwkjUuzIE7TbxDYtz+J48w63vwxJ+2WMnFw0sDcxqvmHL5ZjnITv1i9eeq/WvdtaL4KNjSMiXt6s3oRmxVJDnNKHPKvN/Yx/eEXMkzo1uZhGkRkFHRpnDVbszJZ0OyEZpnCBZlZxVtDhnyUxq2jIIVgbZvn2yxL48CK8BHRtpvHaZbZuF9+SB/t5uvmv2+Wg3dpYL/PwmZ9qxznkX3ckmQzTFycfW+D9B19vafEIV9lyyDYbIOYSKu32dOfV9mKgMXSuIcwN1sYiDouhYtyUCMPH6h2pHEw2Z/fZG9puwnjsiBf5d8YRBbuT1xcsN0EwTIjnRndlT6sAkwj+1MaxunLdPWuHxXHXJwJVg8pOrhFwkbFSXHIw8iGYYSZC5FC8BI+Sk6/pHE2g/bGASKq9ycKFwZxtAky298KhlthnAHbMJaS5y+NSyOsJuyKnlYxcYEB0GKOQ6Q0XEcLBAakUgpPglVyKRxenLCI1mFKnJ4bLfhxyI0pgnDSczULF2U8sWyEcbuX7DFOr3jspwfnvkIUYMp4u2Ykcc5s9GFxbqI4SC3nanFYJq6IhElazxiwCC7Q0xH7NoRxOKTFGE+e4ElvH+GTwzDJIYuTJQe95thzjPbmgmyc9mSdnkuiiOnM0jjjKI6tN9JLhXE4JPqMPuxA5PgclIPjzOhWbIKSnXsKORjNFU4viJN2em57qhx9noMtfQwKfYjdd0ycKkfDlMzpF9eZpXGqHI3+8opnveZgDM1sRcBVsxQGYwXjsKocnhcdCsy1ia45DiZr5UiFEXd6nAKXHM+xINc1R8tHXIWuObrM8pzkUOVo9whTEbhrGFWOtomrGlWOyhRFRnotwW1P1xx+P/glXXP49nALaFUO3yaupMrRtklVo7tVlSmKDHMXSu9z+GYrS3qfo7REx+dZT6tUOdo9psrRtklVo8pRmaLIqHL49ihLzDvpqhylwTo+VTl8o3AX0NI46bUEtz3drfL73yudNTn0PofXV0WBqQjc3S9VjraJq5qzJoeuOap+qjK65qhM0c7omsO3ia45fHuUJabCqHKUBuv4VOXwjSK9luC2x10jSON0zeH3v1c6a3LomsPrq6LAVARdc7RNV9WQTr9Hkjh9tqqyaT3DVQQuTloRuO2pctR7tZE/a3KocjR6C0VVjrZNqhrmM1ik0+8bJHGqHJXp6xmuInBx3JFeGqfKUe/VRv6syaHK0egtFFU52japalQ5KlMUGeGnd7kjvTROWhG47aly+O7klVQ5PHPgR4qyr9zhtietCNz29D6H3/9e6azJoXfIvb4qCnqHvG2TqkbvkFemKDJ6h9y3R1lirk1UOUqDdXyqcvhG4U6DpHHcNYI0Ttccfv97pbMmh+5WeX1VFJiKoGuOtumqGtLp90gSp/c5KpvWM6ocdWu08twXScu+yRBrVNabEUmn318PiXtOcqhytLyOqwhcnK452iauas6aHLpbVfVTldHdqsoU7Ywqh28T3a3y7VGWmGuTk5QDQahDswU9iZSliEoTkkFCo9SafIvQLkRz4jhrwmi7wl4EkShcHK1w+ogeQiRpHMLuIHi3pWMpSuMQ1TWwKdmxgTAuNlFg43RNmBlv5ZTFrdPYBm4BRaTtZu2C1yxzhEsEGDdL+/7yP0boOfzXi4qCH12Iohhs6/+Txr2I0jTLY9iy/2+HQ2DNI7A4zrM0jV4c+76sPxlX/sMjnwiXGa6iHzGoHDmxfb04zvXpH3P3Pt/eP5yYKM4EafoB0dGo6xXHrbIPCCzdf7H41rwxd2Y6tbeI0U4GaQfkekTDRks7wh8CqxNJGoew64jljlaJROHQxGLkQESSxj2f4ewIcevJ63V9L4lb4Ij2BX1YadzuoOhjKtmX9v8H72Hca4qTLw8AAAAASUVORK5CYII=;aspect=fixed;rotation=-180;" parent="9pnh7lvO98Alzu9_AtAS-45" vertex="1">
          <mxGeometry x="290" width="120" height="120" as="geometry" />
        </mxCell>
        <mxCell id="9pnh7lvO98Alzu9_AtAS-43" value="" style="shape=image;verticalLabelPosition=bottom;labelBackgroundColor=default;verticalAlign=top;imageAspect=0;image=data:image/png,iVBORw0KGgoAAAANSUhEUgAAAxwAAAMrCAMAAAD0pmQvAAAABGdBTUEAALGPC/xhBQAAAAFzUkdCAK7OHOkAAAE4UExURWBgYAICAlxcXGRkZF5eXmJiYvv7+////wAAAP39/fn5+ff391paWvX19WZmZlhYWAQEBPPz8wYGBlZWVggICGhoaPHx8Q4ODgoKCu/v71RUVAwMDGpqahAQEBISEmxsbO3t7enp6VBQUFJSUhQUFG5ubuXl5evr6xYWFh4eHnBwcE5OTiAgIHZ2dkxMTHJycnR0dBoaGhgYGOfn5xwcHEhISEpKSt/f33p6euPj43h4eCIiIo+PjyYmJs/Pz0ZGRo2NjX5+fpWVlcvLy6Ojo6enp6urq62trYWFheHh4YuLi8fHx8nJyZ+fn9PT09XV1ampqdvb2z4+Pq+vr4ODg93d3bGxsYeHh0RERLW1tbm5ub29vZGRkXx8fJeXl8XFxZmZmZubm52dnc3NzaGhodHR0dfX1zo6OrTY5p4AACAASURBVHgB7b0Ll9s4liYI8SFCEkUqpFA8FLLDdthtZzpflVmZVVk7j+6e6T7TvT2zvTs7Z19nz8yZ2dn9//9gP1AiRZAU71XmpUOyLyKrBECfQfLifvgAkOI1SWJf2tHCctKSAbq2uz8KKo2zH6zlnB8Dh2bQGJ1kcdIG4bbHNBvMwTIvFzeyd6wWpXHFQe/siO7el9bMJovNJopDQ6Rw880mzoKIgJnVN6s0C7L4U+NeRDmOSV8HhQtdK3n0gjp/aRxsm6UwHnVcaVyEvkLXkv0vjjNm9ZXJ6eMK48LcfAUjk34c5unSJNPldhsHcQR8z18UPtkgyPI+jPsuyu1THOcp2Z40zqZhmEcm7bmG4vwoXGqiPAxTS7RjhHFRnOZx/GRxCb1/4jiTY8SzT2HvUdGvwjiTrtOVNQF1XHFcHBi7wsGJ6zVhaKxJ5vCDfJPGRMpi+xhF0ZqAxWsbPxpDNieOW2TrOAjDDXV+FG4ThkG8zhZUO9K4ODXmMbakfaVxa3Tqo41D6nqlcfCktV2HhjquNM6EOGy8jqjjpiYGOaY2jbMsC4iUhjaMViGBCoLYxvEmM4YCSuOWQRoFJo6o41K4KDZBlAZLqh1pnDEZiG1j6rjSuCBcReha6rCBNC5Oo7U1JqcOLI3LjbHrKCXtHMbZtUmSZRqEZkUxKTI2zeJHEhfbzDxlIclMaRwmJGvMdTLqOihchkbWmBxS7UjjojB7Mhl52Fgat3qMs9Qasr+kcds8iheYzVN2lsZFcbCIo3xLHTda5SMzHi8iuBS1DjRRCreKDblgNIsoWgUBCEokYZwFMdI8DYijguL9uACNwPExqPUnaRyG0FUULfoPim+lcSuobWoxBSeSNA5rrACrWPK40jhMLWyANTFxuWZtzMIkE3hpgOUlkeJoka3MKiNgUbDIQyx6yPakcUvMhYIsTKnzo3BpiBlmGi2pdqRxmIjGYb4IqONK44pOXUQxdVxpHPYBQpsFpJ9I40yQYRKZ5dT1pmmANUdiMXZg04BMFhqIrRQqWQgX9qrIJIzDzACHpI9L4nbNkMqxP5wgzpmNbg4TIFFchN7H0pNM0jgDXsAF6A4TxuGQ2IEiJxgws9utEieHYZJDFkc6/b77SZySo5Mo8uRwXsoYlN1QIIhDUxgKaE4ORA5VDs+72GTDmILBikzOvII4aafntqfK0dfTmM3xpl88HKkI+3MhcWxnRoPYwuu7xOI7dnvOHHRzn8+0SlYRsGRjKYwqR4/HnjU5GFwryCGI44700jhVjh4nRf+qctTtI7zQ5iqMtNNz2+OO9NI4VY660zXyqhy+QbjOLI1T5fD7wS+pcvj2UOXw7VGWmGsJrsKocpSG7fhU5fCNIq0I3PZUOfx+8EuqHL49VDl8e5QlVY7SEh2fzDvppCLsmyZx7K1XNCi9lSu4C8Xd1eKO9NI4VY4OX6+qVDkqUxQZVQ7fHmVJlaO0RMenKodvFEciQYWRVgRue6ocfrf6JVUO3x6qHL49ypIqR2mJjk9VDt8oqhy+PcoS8+ldfSq3NFjH51kvyPXZqnaPqXK0bVLVqHJUpigyqhy+PcqSKkdpifYnqQj7f0LinnMrV5Wj3bGqHG2bVDWqHJUpiowqh2+PsqTKUVqi/Ukqwv6fkDhVjrZxUcPdouXiuM9CSeP02arO7t1VnjU5BO9f6B3ybifQ3apuuxS1Z00OXXO0e07XHG2bVDW65qhMUWR0zeHboyzpmqO0RPuTVIT9PyFxuuZoGxc13LUEFye9luC2p2uOzu7dVZ41OXTN0e45piJwn9XSNUfbxFXNWZND1xxVP1UZXXNUpmhndM3h20TXHL49yhJTYVQ5SoN1fKpy+EbhrhGkcdw1gjRO1xx+/3ulsyaHrjm8vioKTEXQNUfbdFUN6fR7JInT3arKpvWMKkfdGq28vmXdM4k4iWR/4ad3yL3eqgq65qhM0c6ocvg2kVYEbnvSawlue6euOVhxyBG4+QHRmw+xqJf2+tou7NJFdB75YZ1vOWGe8c9Ecbdo8Lp2fscCTRM4XFZxZsf+ea2eFYec3d4I5uAkYRwO6i6YTNI4F4ac5SbSuMXSeS15vdaeEIc8i+5myXw+Tqo0nc2nSTKr1RRfXY+TcbOu+je1jDDu9n2S4HTwX3+icLs23t/642u7VMYh7z9aeU7vbylc4qw2vqZhwribCQ55R3eYNG6Krrqe0ZcrjUvmk5F585dNu0f9mpPikOdrW1zJZJ+mU+dG4zFsO3FkKOsTi6ueTa7K8rFPaZxNxvPJzeE8jh2XwiXJzQRDADsO+bHjlPVle2X52OfVZAbD2cqOnwqXJFe42mNHO9RL46Yghk1m08MRunPSODixXWc5ghH2/50Uhzxa397czyaHIQadmeyYj6s6jAA3X83govtvDtWtnDRulLyCHx5Or3XAfQWJG+P0XyUjKtpoGYf82HGq+n17VflIxpnyavaVs11vksbBYpNXX+06su/A0jh4yM3b5HXfIXffCeMms/ky+v7nb6n+PSkO+fq7B1jwMGtBznFiCu7jIsaHL+w0mdPcAH9lcXZH0MN5HDE7hds1MEGg0/6EsFhFvPIjh6mqy/aqimMZTFoRE/7Yt4d6Ydw0geEYh5XGwXnGjMM6JxPFwZAWkXERXbU/nRSHPE5xKdN5JYOYOk0m43nRaRNMrkpRdIaejGdVuaxvfkrjHsDQe/yveZxmmcJhhLzH/x6okaWMQ95sv1ku22vWN8tYvBVe2qxvlsVxbiCjZ3M4N1mcGzTgKjfN62uWpXGzabI05us3VP+eFId8tbWY1B8GsAS9DoNNMGMFGQ7197eY+c923x5q2zlpnL1H54Ec7SP5NRRud1n3ZPyxMg6533q7VLbX/savGcNoN5Nb8Ls/SeNucLjXd1f9B8W30rhkMn1129rN6TgNaVwyv1tFQeYvv9ul0+KQb9zeQjGH2l3BT389sv/4p9n/858x169vTy3mTqjpJIzDQnuW0H2M0YrCXbkdOEvGqd7HK6cvdNcejYPYzhcMmDBugj59cLsrRBLGuSNiQU4cFB4njUPfZtmGjH9+UhxyvFAcPn9w+z/li39Mxj8sLdZU4zppABuj/8irFsZZHLR+fseOT+KKVsakcmCzo3jL+rHjVPX79qrykYybWycTehYujYPVJm5adeS0DtXSOHTWqOizwyGO5GRxuFpEXm9LRaPmpFDLTXL888JiGvD/2q/eT3z+F07PMLYwjnT6veVJ3DORAxZjkWMAnJKjQQxXPI0cMby55vO4xYi9x+Tf/Rl1niYLKwL24FlKRDr9mZNDWhG47aH7lBy/mxyNaRXuwP+baTL+P/4Jroslx0GWhRVhR45a+0e099LJgStU5eju2wuYVjWU43+zD++ukvv/8T32MTBKHRJzpOcqAhd36eTgjvTSOJBSlUNaOf7pj9b+czGhwr0OZ+AyqXKUlth9FpNRxn0sVQ7fbofS5SlH8l/xOOf/OdltnramVZ6WHC6znhNWGFWOunExXvHJpsohrRxJ8i0edf7J7VRh0VHrGFWOmjGQVeXw7XEoySoCLM3aGsZQIL+Vu19z4NlR6MTfX6HTf7H2rw+XWuaEFUHXHKVhd59cReDiiimx3udoacdpW7nVbhUeJLgaJXgo99/cLm37FqcqR8ObnXjomsM3SlHijfRcReDihlQO/NZh8g/39j+4/dviXkfzqlU5fIswp1XckV4ap8rREo2i4jcpB5YXs+Q/2n8LD/hpcffXh12q0iVUOUpL7D6Z5HDywnl8ZACcLsg7+HEaOcr7HLgdfvUXe/cfJ7O/Hf1/6KpmUuXwLcIkh7QicNtT5ehgBqpOI0e55niN3l4m/+k/vRul//ze/QahkVQ5fIMwyTGAInCVSJWjgx+nkaParXLPfL9K7pMZfg/rPVW1cwpVjt9EDu5IL41T5ehgxm9WDvfbcUcK/Niv8/ewqhy/iRyqHL7ZaiXZXa0hd6tqJ92dVeXw7cKcVkkrArc9VQ5J5fC7vl1S5fBtwiSHKodvtlpJlaNmDD/LVCJ9tso3myqHb4+qNMi0qtytqo5yJKPK4RtGlcO3x6EkqwjncIf8cG1HcsyRnvvMFBenyuH3hyqHb4+qpMpRmaKVIUm0H+m7l2m1WuEXLOiao9VVZYWswgxCjvIOeXnKxz5VOXzLMKdV3JFeGqe7VbUBr5Y97SagrjlqpkNWlcMfBMoS92e33DWCNE6Vo+yp9ue5TqukFYHbniqHP+aVJVWONncwTrn/Pv1L3dxB9ancrg5h/sKPqzCqHJ1GLipVORq24U6DpHFcZ5bGDUIOXXOUirv71DVHg2X7IpdE0k7PbW8Qcuhu1aDk4K4RpHG65vC7tSzpmqNr7NM1R5dVMC7jT/JFDNyRXhqnytHdv65W1xwN20g7Pbc9aafntjcIOXTNUSru7lPXHA2W7YufEznmk+sgjWPX1b0p37rYEbxwZjP3ihIiQaITSdzSxeTFr6+Iw04oHJpAQ1OExiJSFMVhvhpRxyvbI3F4Zf08Wc4/Nc69j+8K4R6p48rjxpOXePsZlfDGQFEc3kH4kK22OdG7ZpvmI4OJxltGxHJrFy+L0OYjIrng69fX15aAjcRxL12Qe0a8eQqHJm4RoJ1MSxfo/RsS5k6J1R4sDCQnerwobmlHtxyzSeOKvnrhvIBKMKAoDodktfdHa25mizSIYzIMVLaysXnMfuiPwRkE4fWb9SbcZJ8a54TIKQeVSByaQENk2LNVFGYI5P5AHc+dkmuPxBWAjpfkdf5DORyiq7jw52SSx805h8UugCwOF7o0+Tanwtq9i6MFlOMhDMMopWTGfGvfBd9lT3Ec9v4Zu43fRWH0qXGIpncDP5yPiUThXBt4p+OCskcWrYJ368ASh3Pxdov2KNz46r7YDvrUODegTO093tHXn6RxsMsUFL/qP+rY2U8U5waqr9P1iurfOF9ZgyclVrmJyeiaq/jWBGFGKkzwTZrGQZZSzJTGLX7FCI0X+VJDIIWbulaSX0lyxHGA0ScmlaNsjzovfP9XTIERxf3kToyxRSuNS+b3LOUQx72aP3xMESuWSlF8ZybjJZQgIJXj6419TH/4hYw0uLV5mAYReXRpHKLEInQnHlAiEoVDE8lrvOmUst0qzkKz2pDKUbZHnBZijroxcjH95DhsBIzvOMohi3uFq11iPU5drzTODQWZCydLpDgIoBwTmwcRuVllVtkyCDZbLE/60+pt9vTnVbbqR8WxNA4/I0mSV6RwuB8W9uOm6A4YhbAdvk7Bj/UdwP1p314/qPh2Ph8/uE0hKoni7nG0ycILItF5fGlcMp7PLCc2tjBunCDG/Prnb6n+zdN4YSazEcZAmh1hZLE0MeBRfwotdobziJx+SeNsMneBdKbU1iCFc/S6whqQNJ4xQRzlljpe2R6FG7tlu5touPsEPX/SOExG3Z1v8rjSuKmb/NNHnZyK6zFdYVaY2abrmNzKDeMYygE/iLGAppzBmCLmB42zUQyvYTQniyPvfKP/XSJxUBZMzkhySP/YSfqZKW57hccw1hziOJiZFWxGGjfEHXI+OQyTHLI40ul33DhbcjhG6u859p3kf8iS6HnJIasIhqlEl04O7kgvjRNXBDev4SiRtCJw23tecsgqgsGsjzNNu3RyqHL4clErqXIcXaSoctT8BMMjc/rFxalydHveSb/n0DVHw4huzyEybp+nP+0X+P0gfMt0+gFwvGkQd7rExXGnQdK4551W6ZrDIwKTHNyRXhqnytEY9PZFVQ7Pi/eFZ9rKHUARuLtfqhwd/BiIHKocHudUOTxz1AqyC23u9Ot5p1W83SXuLhQXp7tVNbdzWf4aRpVDlWPnPCSJnmlaJb2W4Lana44OZqBqoGmVKoc3hjOnVSeM9Ny1BBenytHBj4HIoWuO30IO7kgvjVPl6GCGKofnwofCM02rVDkOXdDIyS7cn3dBrsrhdS5zWiWtCNz2VDlUOSp/PdcFuSpH1UXNjCpHN39Rq89Wec7CVQQuTpWj2/MGWpDrbpXvzcUtB84zWNzdJWmc7lZ18GMgcuia47eQgzvSS+NUOTqYgaqByKHK8VvIoWsOz2r1gq45uvmLWl1z1B1Ff8/hWcMr8Ej0vFu5qhx+l+maw7PHocBzZu4DhVzc85JD1xyH/kdO73N45qgVvkRyqHLUHIBNDl1zeFarF2RJpMpRt62fP9ebgNK7UNz2dLeqe7Wru1U+b3YlfbaqyypOAWXvh3DXCNI4VY7u/nW1qhwN20g7Pbc9aafntve85NA1h+d+zAW5rjk8q9ULuubonvnpfY66l7g8dy3BxYlPl1Q5jroybtqpcngOrcrhmaNWkFWEy5hW6X2OmgOgy9x/Y/LBQ+5IL41T5ege6HW3yvPifUF3q7qs4hj+5e1WceOQb38ZmacfAjLwRmyj7RuTkeHRpHFUfPEyeAyFc9FfNQ55aa3Dpws5JRuvXDa+ODde+TBxyB/s3Z39QAWNti5Y+Y929OlxVHzx8owoHDduuMYhLy3qfXLjlX9eccgRG/IqeYXdkv6U2KvkHqNMPwozZ2EcJvUIpIVhn0gkDk24iFz9wd2iSOOQdxuaH69cNr44N145zlo+DnlWvFB8jBl5f0KIUKR/6AfhW2ncQuOQ+4FZmXHNpeOLc9tzs9fPJg75d9mLewypZFD1q9vpjbtwv6faJWkcFV+8ZCuFK+OGd+9hHGo1DnlpUf+TG69cPL44N675EHHIsy0ieGOpSibMW6aYfpFJGEfFFy/pSeGwJ6NxyEtj1T6xHBeNVw4P+XzikOfbRTIFN6i1xBxOj0SGPJbGkfHF92wlcRqHfG8p/6NYRwrGK/+s4pDHkXtkDwtpIk1eXo2TOQlLpHFUfPGS1BSujBt+mEB15xDIWuOQu3sfzT9mXPNT44u3jtM4btleo7r1zwaJQ44IX/B42ukTwByLCA5hP0gWRz5tuz8hEldcpcYhb/Wf8zpOlFguDs702cQhP40cDBYV5JDDkU5/5uSAJaTfR8VtT9bpv0hyxKoc3gRLOGCm9DNT3PZASiWH17G7wknPVqlyNCwoTA5VjtZErqyQnX5hKIjh+VQ6jRyqHL49hcnBHemlcaocfreWpdPIcdKCHCankq45fAvpmsO3x6GkynGwRSPH3NW69AW5tCJw21PlKLXC/1TlaPCwKD7TVq6uObo6Y9cjolu+uuY4amh9+0jTNLpb5UvGvqTK0XQUV1bl6LKKs4vslu9ndRNQd6v8EUZ3q34fiT4rcuhu1aDk0DVHN9ecluua45htdLfKswx3F4qLE58ucadf0k7PbW+QBbkqhyqHPnjo+0BZinTNUZpi96lrDk/RqoIqR2WKdkb4zvfu0XaIP5Eu/SagrjmOdrCuOY6aRtccnmm4awkuTtcc/oSgLOl9Ds/t9gW9z9FlFSx38adrjpI7/qeuOXx7GF1z/D4ScXeXpHG6W9Xdb66WXJuocnQbT5WjMTrWiqocNWO4rCrH7yORtCJw21Pl6O43V6vK0bCNtCJw2+M6szRuEHLofQ5fOlQ5GizbF79Icugd8kHJofc5urmGWr3PcdQ0ep/DMw33/gUXJ75Fq8rh9Zdf0Dvkvj32u19+ZUdJf0PeYZSiSpXjmGW4b0YkF9r7A5C4Z9rK5Y700jhVDn+2XJb0DnkXI5+JHLrm6OqMok6V46hpdM3hmUaVwzNHvcAj0SBbubpbVSru7lN4K1eVo+7nXp7n9NxdrUHIofc5BiWHtCJw29M1h9+tZUnXHN4AtS/omqPLKhiX8ffFPZU7GUVxGLlJQm+Kcov4L5ywZ25PEvFYqVSsJeRwOLsEAUxu6MP2426S2RThRWyvMfBlGAdpFka7OFY9By3b64HsvprxQhAg3jZCLpKHLeIHTZMR2WG42JvJCCMCkbg4dMBkMiIac18jsLlF6EgSKY1DENuc4e9BYEZmPl7kaQg0kda7aLIuuFNvmltEnGWFR5PFwV3eu2iEvSeHLymcO3c0RIZazjGkxE/pC+p4ZXskzp372M4p3Nw1iCfEKBzG+V+d+1G4K+edCJQohUNr0+mCjHo3eQU+LqFGVJLGgZQvTPDuO8Ldo20QLA0s89KLsn608I21S2tHVLqzI3v76XF2Yf8Hi/+jTo/C4Xs0hP8j0g7xR87xivbI84LRRvaOgo2u0Ql39po+rt31K9Xgi/11SuGWdoEmF1Rzo7fuuA/0BUvjist9sH/YX3bPx4/WTJO7NI1DahZhskeMudOkFl+0O4tRaO6G3u5vD7XSOJzdjQvUfjhCd47CoYkJpgbktCqC7oZ5etd9lENt2d6hpjvn9MqFre/+9lB7hcF2lth31Mi3Xme/rEObUbhNujbv7NcULOLi0m385p1NZocz7s7dO8GCrbu/PdRK43DYRbT680fK4bPVamFmVzZeh+hpIm3ihwmi7ZKLhKs7TP4djYgkjbsb39DzV5wTB4em7ghzIFpmHIXRBlyjk2uPQjmDTSZ3xSynHzvFom6Zh5jV9f0F5uM2evMjxr3ev3ibZ+vvXv5rN0ns+2Pj4jjNsheMrpghZiqCDvdfK74Vxs2m02W8fiKj16yz2JpkYtMoTTP8eKf3b53b+zEjSmzy8qdXCcdPhXFY3M2wCiXJS+Fmk7lbktt+a5goXYebPHx8SXVu2R6FS8Y3yaufXpAwrMYxLH+1CYiU/7CO89BSuCg369Xq4Z0hmuPiglW8Tv/3uytycAQt3tvE6UJ/ksa59X3w+HHd6+zo/O/SbGGms0W2jtOUHCmLjRma6eNiLC3Uo/eqpXE4LPyG7BNMXAgcmnDbQZQ9NvE6DlOGcuzb6zUGvtxZDE9+UcnFFL6325hKeWq+Du23FOyH9E38gw0hhP2Ji8vy1beZpfvBSUbhKsT1DoCzWUwKh1kjtrgZY82RGxodhRZjahGKvHeDAVc8naGne0H4Uhp3/d459YTcdaFw2EMDN95fU+QIg1WaxWZJXWfZHoVzSwkIFmk3sGcG49Fb78akafBiRV1HHm3NZhmR02ouLsoCky+TK/J6MV8a3eNaiOTmVaK4yXiUvfkeYeT7U5amC7dbZdzsuR/qfjKNGxPYHyTT7lkoErZ/2lYMRz5tuz8SiSuukhOHHKMPjEJewL49CofhghcaGezgkMNEcRAbUgBxCQgfScP4uNDdW6autvhe9rEQmIX1wmkYTz5g5mnkoFnEfKDwS3lkHR4vTw7MDKik5Oi20GmPj5z2bBU9dAgrDKkI+zMicWzlgFFVOVqehUmIKsdR7xdWBFWOhqVPmVapcjSMh+Ig0ypVDn+UdKs0VQ7fJs4kqhxtQlY1qhyVKYoMc0Guaw7fbLUSb6H9rAtyVQ5/lFTl8O2xL6ly1Gjdyqpy+CZR5fDtcSjJKoIqx8GyzRy5C7X/ByROd6u6FYF7P0TXHE3XrJVVOWrGQFaVw7fHoaTKcbBFI7cjUaOyo8jEkYqwb5rEqXKocsACp90E1DvkvtMIL8h1t6pjYNxVySqM3uc4auizDUGgz1Yd7bMLIIcqhyoH/ajWF3oTUO9zDEoOVQ5VjoMFhHe1yIX2/sgk7pkW5LrmOLhGI3cB0ypVDlUOnVb5PlCWTvyxE8ZfIqly+AbS33P49jiUVDkOtmjk9D6Hb5BTHlnXXwL6tnOlQbZydbeqFNHdp97n8O2xL32ZDx7qmsN3BmFy6G5Ve5Df11zAtEqVY1By6G7VJZNDlWNQcqhyXDI5VDkGJYcqxyWTQ5VjUHKoclwyOVQ5BiWHKsclk0OVY1ByqHJcMjlUOQYlhyrHJZNDlWNQcqhyXDI5VDkGJYcqxyWTQ5VjUHKoclwyOVQ5BiWHKsc5kkPjkHu9UsYN95nQLj1fHPI5guuMyEhcCC2wyTKbtc/cr0FIwBAP75Khjri4cB3F6QMjtCGeLtY45Eci90jHK0e8lPcu7NmRw1XVFM5FTkNDZxuHHEyeTe7v6MDxoQny9EVOhYkN0jSN/hCJ4d4gaI55mJKByKXji3Pb0zjkPVGwLz0OuYvezQqjPUKw8jsXEb4/XcNWCxdgnkhcHAJ8f3CB0nu6oPhKOr44t73iMlkG1Djkh4DX+5wLLHjjYsER6bnikEM5rsaJJQPHB3EarfIfyZiAaWCC1R9yMiYgF/f0aN4gZP1Vy7CNintciMYhhxG6ksYh963i4q/y4pDfJzeJXRPcdbFD8ji1tNNj3hXYlFxzpExcED2Zx+sxHU5WOL44N165xiH3/c4rXXoccjAjSX66g6/C/Xv+gtwE36/t9xQui9P40WZrNq7voPhuG+KN09bpQn+Sji/Obc/tA2gc8iN9gwV5f7xyjHnnHId8ih0DN62ihnqEgY7MypLTKizbg4je/DJcXGAgMZberXJv4OAEnR0Ap3HIq+2pRubS45DDWZhbuWmWrr4iyRGZdfjm7UeKa2AaDxes4zRYMuLVS8cX57ancciPyIYbrdBvRVyAY5Di288kDrkGzGz3sr59pG2TskaOHFgSCwbM1DvkZQ+1Pi/gBQv6bJW/QaRvH/HtsS99ma/m0WerfGcQJocqR0sxygpVjtISrU9946FvEuxFYtrsqNmf8BhHrG889G3nSrrmaNukrNE1h88pPKAYxeTzAG55xcR9kQEzdc3R9CrRBbn+nqMcvlqfFzCt0jXHoOTQNUeLFGXFBZBDlWNQcqhylFxofV4AOVQ5BiWHKkeLFGXFBZBDlWNQcqhylFxofV4AOVQ5BiWHKkeLFGXFBZBDlWNQcqhylFxofV4AOVQ5BiWHKkeLFGXFBZBDlWNQcqhylFxofV4AOVQ5BiWHKkeLFGXFBZBDlWNQcqhylFxofV4AOVQ5BiWHKkeLFGXFBZBDlWNQcqhylFxofV4AOVQ5BiWHKkeLFGXFBZBDlWNQcqhylFxofV4AOVQ5BiWHKkeLFGXFBZBDlWNQcqhylFxoiKjiIAAAIABJREFUfV4AOVQ5BiWHKkeLFGXFBZBDlWNQcqhylFxofV4AOVQ5BiWHKkeLFGXFBZBDlWNQcqhylFxofV4AOVQ5BiWHKkeLFGXFBZBDlWNQcqhylFxofV4AOVQ5BiWHKkeLFGXFBZBDlWNQcqhylFxofV4AOVQ5BiWHKkeLFGXFM5Jjal2YXTJ4SWzuZogDU57w8c/RZIbXudJJGGcR78iFdaESjUMjCJ3kM6FdSsMYIZHia+p4xUmhPRqXjGeTEQ1DNOnk/R0Z6y9K4zQL6TjkscmDtQ3Jd+9ycWFqstViRl+HC5/l4lpTSRqHd+Wa7ImMz55G4cJMp9fZdm0CKiZcvkb/wv8aQUFbxcINJrOb1heNCmmcTSaIA0ufH4VzbxqeF29q7gm4hzfHRukq+PoxsI3LahXL9lpfNCpuZm7gAXWJBLIhppjNiLMzcYx44KlN3an2/eXZuzWio4V9GPcdF7cKHdmSGXEZY+dL8KibT467x1u408cN5e9bRDY0STJ6esI4BGMSaTFJJjNybJ68nM4RgYpM0ri7SUFd8rgkzg0AyeSOMEachSZIn/I78oD79kgcjDafviSl2Y0AV8mI7K8csf6C4G1EXUeaBkH6IRXDxdsoD18gfCWRoBnTF7ANlaRx6F27Jq8WI8sqXYIc9g8jIkC7+3ppEQb92j4woCMEaeckWdwLF5Ae8eapROAWMMatfUG1gu+XONY3JI7f3p3l9MM1euGFfUkeFx32cH1HXwiMhk59WFINcnFwkA92AU/hpLdAcpIoDqf2wDm/P1gzSe5WGye8RApCN22e0powwhD4mhoP8L0wDmf3PknuyQOTODSBhsg1B+YhUfTmaUkecN8eiYPRZjAKldAB8ykjDnluVtFq88cN0a0mT03w5o9vUinc5ofs6ZGxmLjBhY5cYFwiSeOgRPZd/j0ZSNQ8bRbmarqM4nUWo6t7U5At5nNyUoVJ5AIXXMwo+69aGrf4UxEJkzxDCocGMEH706LXGPgyyFfRu7VZ9F9lsRwv2qNwO6MtnC/0punYjQD2iTo/gzV2kL9wmy29CVHIw831hux/Li5aPz1FD72XsPtycnV1fUWTI5HG3c8fPr75nrTL96FZYFq1wGIc+y5EwuIOFzUdNyIXt4rFQhv7Va0vGhXSOHjp5BUm5FQiccn81QRGIcwRY9ERBKuVpY6H5X3RHoXDXhXsi+0CIrlOmEzsljo/dCo0wZL9ihVHYEbYriQSF5eH221sZzjH/nQPzYBHfXIcrGy32yAnLjfOVymmVXNrwhimJFL4dIsRi956u7q9gm+5ju5P0ji3QeI8q/+orkP6ca4J+KklzBHlcRiFYUzOg8r2qPNyJpvAKBRuPAfw/i2pHKEJERIce7REcpta2Mp1k8TexMVtV0H88QV5Ge4yXy2wtcBIsrjJ2G62+bb3YvFlGIZut8oioBW9z42ownA80vfQnNs2op1UGkeGM9v3AokrrpIThxyzdMFQy46TycSpM5Ew4hY7zdQiwcUE1DjkbWPCeAjgRlnPADIUORgsKkgkhyOdfm8mEvdM5IAllBxtV3Y1z3iHnKscpz1bRUuMsMKQTn/m5BhEOTSabJtuqhxtm5Q1JIlUOTqnHBpNttMsu0rE4y3cpnSyo5/CisBdm5BOvz9hEvdM5FDlOOpRFzCtOmlBLreW2JGDbo90+jMnh645Lpkcqhy+rrpnCs59t0rXHG3G6ZqjbZOyhlSYZ5pWqXKUPdT6vIBplSqHKgf5xBnENHR3CFoO3lUh6/TcLV9Vjq6+2NWpcjQ5jltiHKfHrWIW7oskhypH06t0zeFbpCipchwfmPePj9C7S9xdKC6OVIT9OZM4XXN0uLwbB1Q5Og3jKvU+R8M0ulvVMMiuqMqhyuGGUtFple5WHXUq2YX7IAtyXXP4I6UwOfQO+SWTQ++QD0oOVY5LJocqx6DkUOW4ZHKocgxKDlWOSyaHKseg5FDluGRyqHIMSg5VjksmhyrHoORQ5bhkcqhyDEoOVY5LJocqx6DkUOW4ZHKocgxKDlWOSyaHKseg5FDluGRyqHIMSg5VjksmhyrHoORQ5bhkcqhyDEoOVY5LJocqx6DkUOW4ZHKocgxKDlWOSyaHKseg5FDluGRyqHIMSg5VjnMkx2cTh9xFf0HwCiIheE0/bow3LCB4jc+EdknjkLdt4mo0DnlP8OginNmzxCFPipCFPadWfIX3jfXiwC33ve0N3o0fkGsccmeE9p/GIe8ZnaXji3PbW74uTgqy0J8o3K6B10sqZpzGIT9iIY1D3hs8Wja+OIKLs+Kaf3DhpRlIAndXNAMQmTQOeZeJNA553+AsHF+cG6/cxt8GT1lmjoxnVTWFM1n2FHxLv/hS45B3rzk0DnkPOaTji3Pbu32Tm8c4CmLT/7fH4QV+3X8IOv1o8je3VLRRjUN+xEIah/x4jOliQf4cccjDbRBsyMjC0YLChZsg2IYah7zS2l1G45AfGQxc9dnHIcf7B7erLGj0aauIPdpeXJCttnhfm8Yhb/iCxiHvnkYWtWcfhxy7irt3dPZcBL6yFG7/JsP+VvaHOvfIThqHvL0AGOR1oOd+h9w5few8uz8V5OjD7ZogbwLuOUaHadm/tb3dS40ajUPeMEhV1HflVqZoZpjRaUlF2HOGxH1OyqExAZvehKcjEotgCv0jKL518akMbgZjwA3JIfe0aRVOgUqF08vhSKc/c3Los1VHHUaV46hpVDl80+DxMQx+5GCGoQ/b2pzZITMojQavOa42qhwN2+ynX77ndpR0zdFhlKJKVhEwZozGjJnIINOqc/89B7ULdebTKv09xzEOMZ3+WclxCbtVBUEaI3yjSK5NnmlBrmuOSyaHKodPM+FplSrHJZNDlWNQcqhyXDI5VDkGJYcqxyWTQ5VjUHKoclwyOVQ5BiWHKsclk0OVY1ByqHJcMjlUOQYlhyrHJZNDlWNQcqhyXDI5VDkGJYcqxyWTQ5VjUHKoclwyOVQ5BiWHKsclk0OVY1ByqHJcMjlUOQYlhyrHJZNDlWNQcqhyXDI5VDkGJYcqxyWTQ5VjUHKoclwyOVQ5BiWHKsclk0OVY1ByqHJcMjlUOQYlhyrHJZNDlWNQcqhyXDI5VDkGJYcqxyWTQ5VjUHKoclwyOVQ5BiWHKsclk0OVY1ByqHKcITkmc2vCOGiEKmkXv7TgNa2oN42KMsjN0S7df4EYWMkYcc0pXBEe/er2isRNk+QKLwqnkgmjINw8pBQuiMIgengKxXCxSdf01brLfLXAlTCSLG4ytpttvm17uF8ThqF7y/oCzEAkPCKZ1F3xdHw84Nnum88l7Jlvqo7SPjwaZY9JMn+F1+UuKJxjEN54n5C42TSZJpaM7xbnWRz8YLOOM/eqsr98DDMbpl5lR4GLW6/DaGuTGXUd93ghNjxq+qlxsLLdboOccPc4X6XWXE2XUbzO4g57eFVptpgX0e0JqnMDXErjqECY+/CYhsJhJC0CZnaH0zzUljjCHMncvRR9/KcFhRsn7m9xQ+HAnvF08tXmcCadObN6t1rn5sXTkbig1T96E2Xmlx/Td1VF9z8wXNwv0TravIC8UWlydXV9hUumkjTufv7w8c33uefcHYXvQ7Mwk+RutYnol8xGYaEcuxj2fRf0mYRapkaWMiRznymK7+6T5H0xSFLI15hZjSgQxtp5Mr5CTJX+FG7Dp/yHX+xjPyyOv36zXn9tv6NiKYZMXPyXaJP+YDEkEMmNAqMpTQ5pHGhr3+Xfr/wFZEfpabNwwWv+MOqKtt6oW9q31l5bxGAn08jekRgHkMV9sO7k7lzDvelDP+6u+BogIt0xcQsY99a+IFpzX9/BIJy0BAh9QaXR6KW9W1Co3TFf0t1anBsDBydZ2OUdedwC8NbSJ+iAorhr13P4Pyr9wa05Rk9PAcLpkWkxSSYzckiYvMTQRutLIo1bvi6GKvLIFG7XwOslMfDtL5HGubERYSPuqPYStDifvqQjYqEhrDno6UixekGfEcl16MSSZnPTQxaumFC5SQaRgJu+YFyFNA69YdeUToILwSpdmun0OtuuDbldlbstCNfRRCoW5JPZDQEbS+NwdsWSiDouhUOfunYs1Q4fhyU5AqZQ7d3MnB9b0r44OfQCjbtJMJ9j4HByxV4adX5sXPJ67vqWbK+4iuTmk+PuERYreNx0LDO8qm2MULzJ1LrFSfcyrFYbmzu3AwGDE2k0mTEGBAiWLA4bJBja6COTuDGukbP1ysW5MXc3FBCGw37VhLPmQIM3b+k9UAy58wSxjoiE6QBcAP9HJC7OHXDyQJ+eM4uFBpJJGoeBymRPWc21O/ci0igs1hy8gJnnfoe8CHlF9rGbkADUgyu+HWPsI5IwjnuHHIfFFTBOjxu62Xk9gxxA8XGjPgNXduWFKUNnscKZcXG4ii8vmizl9Ps+OVdywJ2knZ7V3klOL0kirjNL4wYhhypHNeQVGVUO3x5liasw0k7PbW8Qcpz7s1WqHKV77j6ZSqTK0XGPA1VYhbutXNxQikIyrnWkytF0PjcTYkz+MaQxcJ/VmoMz/eKO9NI4VQ7fj+slXXPUrYE8dxokjZN2em57g5BDlcP3Kl1z+PYoS1wScZ1ZGjcIOXTNUXb/7lOYHG7uJbxFy2pPlUPXHJVjn+u0StccVRc1M3qfo2mRqmzdkIrxjUik0+//PYmTVwQnCpyFO2uk55KIq0SqHKocFbXOlRxcpwd3pUmEWTg9+IiTSHotwW1P1xwVF1qZcyUHd6TnkojbnrjTf5ELct2t8okmPP3iOr0qh98NtRJvbaLKUTNZI6vK0TAId6SXxnGnQdK4QcihyuF7lSqHb4+yxCWRtNNz2xuEHHqfo+z+3acwObhrBO70i9uerjl0t6py7HOdVnGdXtccVVc2M7rmaFqkLJNOvweSOHlFcIO43ucoO+rwyXNm7nSJixtkWqVrjkO3upwwiVQ5fPPWSrIkGoQcuuao9Zc8ObhrBC6JuO0BB3fB/6gkjeOO9NK4QcihyuG7jyqHb4+yxCWRtNNz2xuEHKocZffvPoXJwR3pVTn8bqiVeNOvQcihylHrB2SFycF1ehxWn63ye6IsPSM5VDnKTth9CpNDlcM3b63Ec/pnnVapctT6C1lhcqhy+OatlS6AHKoctf6SJ4cqh2/eWukCyKHKUesveXKocvjmrZUugByqHLX+kieHKodv3lrpAsihylHrL3lyqHL45q2VLoAcqhy1/pInhyqHb95a6QLIocpR6y95cqhy+OatlS6AHKoctf6SJ4cqh2/eWun5yPHZxCFPEDOHEV0HwWt6ca4JTtxwaVwRe4cTh9zF6BHE4XZNcrWgw55J43BY2fji3Pa+yDjk8JlXczKM9wQxj/txzLjh3PjiXBw7Djk3XjkXN0EUJjsl44GDkaI4jUNe08ZmVjoO+eJPEAQX6YtIFA4NQDrouOHSOG4ccmncK9jr/ZKMjpZI40A2jUN+1FeF45Xjp3bvkyJI5NEjFl+QuHtm3HBpXMKMQy6Nc3EUlzc0O4RxN+gNjUN+PNyzbBzyFwj3bUd0XGsCx40bLo3jxyHnxivn4VxUc7so/v94T+EbaVxxMNH44miR1d4XGIf8DpMh9zQ3lUhc0Qojbrg0jh2HnBuvnIdDGOhkcktHf5XGSccX57YHH/kS45BPsBzHpRMJvwjtxbklByduuDSOG4dcGoe40lP8TJa0mzgOgwsOq3HIO0dz8TjksDa5HHcdQuHQCCtuuDSOGYccZ8eKV87ETd2IsqQDgkvjNA55Jyv2lUVoAdxUoBITR75ypzxssanVc1h8xXyVjiiOfYfcTR/PPQ4554UNMLNofHFue4P8TFbvkPs0licRy+kdIznkOAEHdwGaStwXJ3BxXGeWxg1CDn22yncfYXKocvjmrZVkFWYQcqhy1PoLWWFynDDSq3L4PVGWeCQahByqHGUn7D6FyaHK4Zu3VuI5PXf6NQg5VDlq/YWsMDlUOXzz1koXQA5Vjlp/yZNDlcM3b610AeRQ5aj1lzw5VDl889ZKF0AOVY5af8mTQ5XDN2+tdAHkUOWo9Zc8OVQ5fPPWShdADlWOWn/Jk0OVwzdvrXQB5FDlqPWXPDlUOXzz1koXQA5Vjlp/yZNDlcM3b610AeRQ5aj1lzw5VDl889ZKF0AOVY5af8mTQ5XDN2+tdAHkUOWo9Zc8OVQ5fPPWShdADlWOWn/Jk0OVwzdvrXQB5FDlqPWXPDlUOXzz1koXQA5Vjlp/yZNDlcM3b610AeRQ5aj1lzw5VDl889ZKF0AOVY5af8mTQ5XDN2+tdAHkUOWo9Zc8OVQ5fPPWShdADlWOWn/Jk0OVwzdvrXQB5FDlqPWXPDlUOXzz1koXQA5Vjlp/yZNDlcM3b610AeRQ5aj1lzw5VDl889ZKF0AOVY5af8mTQ5XDN2+tdAHkUOWo9Zc8OVQ5fPPWShdADlWOWn/Jk0OVwzdvrXQB5FDlqPWXPDlUOXzz1koXQA5Vjlp/yZNDlcM3b610AeRQ5aj1lzw5VDl889ZKz0eOcXKX5iaODZGi0CIkEt5hTKTxCIFQbmqXdiQ7XSCITMIImsLEIRYOzo5ODNw44UWHEcbdwBijMWFevOB/UoRiksJdIdzaxFKtTRBoWRaHSFHJ6B6WJpI4bjIeZW++zwl3N1maLsx0tsjWcZpS4CBCkKpkijfEEsm+AmY8J64Zr/O9QogimmxcnDs7cJI0NoVDuHpHbdJdpHFzMHvyyp1df8L0CwmheojExZXhzIjm8PUuPJoUzl0GfbXFK4mlcTajtcCs48gaDBtplKZZZPr/1rm9HzPCik1v0W83NIdurpMrBDmEj/UnLs7e4OSmdOBHEufOan5D95s0bgJOjm9xcCKNb5JXP70gQPiaiQMMYc9+IntWGodh9r1lhMaWxsE7bfD4cd3v7VH0XZotzOzKxuswCCjl2MQPk8RpK5GmdnyP+Q09PXDu957SF4x/TNwoSa7Qw6RyUDhc4BwUG1FnJo2DyZL7sSXJ4QCTyR05CnBxaG169ZLo1OJrYRxmaS85MxFh3Gw6XcbrJ2oZEa+z2Jop1hxpHFLcMNkjvHRKBh0tQk3OMDOhnAth7aY/FR1NIJm40Wuc3hRhHYlE4YpGktckOcRxN27gQThPImFEQaxJSZwbS7GaJBKkSBR3j77HYSfEYTHSyuLQ3CJa/fkj5fDZarUwOPTL3ujs1ZffFJHaR0SyI8R8tw+WgI0QUN1+A6QY7l9adyHXZHsEDiHc0cy/JM9LGgeTLSyMR56/vQXqjoKhF7i4xZ29ZvSXlcWh+y2umbwQaVzhzg/2D5VbH838aM18vMjTMIyotDZufsNYQC/Sd28eP5INGpvHv6zTNXVcLs4G4TrfmJRqj8KlZpNjmmmpdqRx4cfHN+/SBal8Tr4nY0tveHBx2IdKrmf0NFgY57Ztlm7vjUjSOLjwCxO8+47q320QLLEgH0UxXJmSmSh3GzjklBhClAXrIDIx8Rcttuk6jbFL1o/k4m7zNAuiLbbo+tujcPk2CrI0v6XaORnXf1qxiWC2zA1ARHI71oxQy5iksXBFjyLmMZWkcTg7TA6n9IGlcZiT5gx/xyp85KZVJo5Cmhzsm4DY9kKLFNmMjeIgjqiFkeHibHFAxmEpnGsiwmKMSsI4Z4moUOd+N5W+k46bj27Tg95elMZhJ+ALjEPOJYdx5KBcEOTg4aw7bPG//iZJ3K4ZJjlwdlRitsclxwB30pUcHX2I/sB9Dq5ysJ+t4pKjUI6O02pU7RSmUdkukk6//yckjunMey5+cnKochxVVp4SYSjgTFhOI4f4tIqnCKocDWeY8NYSJyiMKkd7rMXMWpWjbRZVjgYb90Vdc7R9pazBYhGLNnrdhlka3IuxmGCuJVQ5Gr6qytEwSFV8xmmVrjnKcWL3Kaww3AW5rjkqMjQzz0gOVY6zIMcJawnWfQ60p2sOv2eLkq45OowivQvFbU+VoykEVZmnCNz7Jrpb1eX1u7pL38pV5ahI08zwSDQIOXTN4TNO1xxN59yVudM07kgvjRuEHLrmOAtyqHJ0cxK1qhy+hx5K5HRpDyVxwoqga47f6cxcp+fiVDkOpGnmLp0cqhy/k2yDkEPXHD7PhBVGd6t+p9Orcvj+WS+RirAHkzhhp5eeVqly/E4SqXLUaePnL50ceof8HMmhu1U+y4QVhjutUuU4R3LomuMsyKHKcY7kUOU4C3KocpwjOVQ5zoIcqhznSA5VjrMghyrHOZJDleMsyKHKcY7kUOU4C3KocpwjOVQ5zoIcqhznSA5VjrMghyrHOZJDleMsyKHKcY7kUOU4C3KocpwjOVQ5zoIcqhznSA5VjrMghyrHOZJDleMsyKHKcY7kUOU4C3KocnxCckjHIU8eVo+rNR2Ac/UicPGd3YPfvYmLs/nqMd6EZLwPCheHq/hxlZNvT5fGBcEahnsgQx0BoHHIO6JBucDErLjmzxuHPF5t3zxuYyJ9a8OvTZoTqDjm4hY/mO/yx/WGapDCbdaP+XfmhwXVjjRu+/hmu4rpyE6YViFpHPKmfjiz0NbDb2kBe7445D9+fAzTp4BKGxvm8fqHXApngxRs+/g11R6F+/qj+TpMA0u1I40LNmn4+PFHOq4cM764xiFv0mdXdlHUni0O+Rjel2XrPIz7/9If30TbjyboR4UxFzeKEcnPrExMHJfCoQlEF4xHVDsn44gLzddZBk6SMfIcezQOeYfjM+OVP3Mc8sd334X5IxWtM7Ph+pdsTUaT5eIs5jmBycgothQuzEyA2RkZTVYa95iH371DrHcqLrfGIe+20D34wolrDtgzxiF/QDDw6ztGPO0i4Lcc7oOL4r2k2yNwrglrP9DtSOPurhHanBMPnBtfnIuTjS+OKPSsuObS8cW57RVhx58rDvnVEmG5Xs3pXResnn7F8qhj48GrcqssDm5xgzFhnpDxtCncGI0kyc3CO4mOgjQumb+C4ZZXHYfyqjQOuWeOqsCNVw4jP2cccrchQE6dk+kIUeSTifPE3sTF2clsniDePJVo3FUyn3ECfQvjYDK8Uok6fbdjyYu7wcRJxxfntudc5AuMQ17E5XI7a/0JUdTQy/0Y9y0Th6UsGqPbI3FFK2PaS4Vx0ne+ue3BZI6TtOGkceisLzAOuXN6hrF3Tk93ChNHOv2ehiRO2OmdJWARDtl4ilCMKXRz7qAJRwClnZ7b3mdFDvazVUWvcJ1elWNvAe5IL40DiVQ5Op7ROC3sGfvZKkcOGJxKTEXYT6vI9khF2J8PieOP9G5wpodwfnvckV4ap+T43eRQ5fDpznd6FomkFYHbHk5OyfG7yaHKMSg5HIOYawRpnJLjd5NDlWNQcnBHemmcKkcHM1Claw7f3Xcl4ekSnM+JAmdtIq0I3PZUOTr4cRo5VDl8KvGdnkUOaUXgtqfK0cEMVQ7f16uSsNOrclSWbWY+o5uAqhx+5wqTiDvSS+NUOVQ5KsfW+xyVKXYZ3crtZIeuORp+UhSFFYE7rZJWBG57qhyd3NDdqi5ucJ15ABx3d0kap7tVHfxQ5ehihypHl1XcfrQsiT6rBw/1DrnvNPIkklYEbnuyTs8l0WdFDt2tGpQc3DWCNE5cEb5IcqhyDEoOOCl3pJfGqXLommPn2+e6lSutCNz2VDk6mIGq0xbkqhyqHJI/p9U1h+9PXon523D9DblnNbythTf94uJUOVQ5Kg8712mVrjmqLmpmZJ/BwgorxpyJSqdNq3S3yu804a1c7kgvjVPl6KbJaeTQNceg5FDl8M1bK6ly1IzhZ5lrE3K6tG+VxAkrApze+T35YydpReC2p8qhylER7lzJocpRdVEzo8rRtEhVVuWoTOEyXEXg4lQ5VDkqB1PlqEyxy3Af95DG6X2ORkfUi0xF0PscdaOpcvjW8Eq86dcgW7m6W+X1BKYjbplALrRPwEk/M8VtT5+t6phZnbaVq/c5BiUHd40gjdM1RwczUHUaOVQ5BiWHkyF946Fv4n2JN13irmFOmVZNZgghiUh63fyp1YaYQUzpyElF/BUETqlC7hzJ7HFHvj1Uc3E2mbvQNdPDv+zOUTgXfOVqjpUOkaRxY0SlceFciMNOpHGIhuOmVeRxuTjHcRecj0roLMxJp+RxpzAL4/QmXBzMbNN1nNc8uzMbxrE1GK3ygMGNKP3weub6j0jjh/GcNg0sI4zD+j5JXhVxhXrPkMRNX+HfMwJbSOMQtG0Oo/Se/O5LUdy9u9qF8+j+xMWhodl0Sfo8emsKI7tWiTSezywnZBcTN07urVn//G0nI2qVeRovzGS8RHDiIK3Vd2bjwK09nXT0/02XcND5ALjuIKJVLeKwvkY3k9FYS9yxy3Bd9Xqc2P6rHLuNzdNw1Zl2Z5IphpTpYtr97aFWHAfHG9/dk3aDnha4Y3Yr65Orm2R8Sw+PCKfuFOHmcGXdOQxVBde6vz3UVrjyRI58onttlmWbTievVcZBAOUY21Vu4qxW35kNgw/v7ycM6cAV/5XzMCoJ4xa/YsiauTiD/YnCTV0rya+L/lbcMCGLw/FgNjcAkUkU95M7HON3Glxc4SF0xOjxDEOLTf5EXmwyv+dZhYt7NX/4mK47fdyrjOI7kyQPCB8fBd4XHYXcuI6jR+bC0PdXB0ofyUnj4M03GK/mRw5XVVM41wYGtUX1D45kpHHjq3tYl+FVwjhcbjK1HOVg4uY/YZpGD6KwsXP6I+P7Qbdh56mdJVeHmu5chTvSX2U1zsx+na5XHS7uVcX5ypqb2SIN4thERIrjJS5nTDIdE0RWksbhsLhumIhIJA5NOAMSzRSHEsUVB4QbsJIcbpJMp4yrBXG5OFwAFnbUxgLGMndYssMmgNCd4YZtHg5ntzT5Y064e/QujhZQDlvENy+Cl/f837VFDPmFC2Dfn5a3DkYnaZx9aXFknCOVKByauEUK/fU4AAAgAElEQVRjZJLGFWa7XZLHFcYt7eiWYzYuDuc/sg+WcR1fOeQL+nph6Bf2Tg6Hpljt/dGa+eQ6SOOY3MrNH8HfK3qrdL4EhbFPR40c0jjsA7idAPK4FA5NoKHpkjp/cRyMNk+Wc/K4wjg3F7h6mJF24+ImyQ02S78mF7yh2awx+7qhrneMLaCXV+TpYYubh3P7pNlqS27lbtN85JTDxFFIkiM66SYg7uNSafdslRiOfKBwfz4kDmeElRWt5MI46Tvf3PZwsW6pQ/cDH4eNcEP6E5wu5hwW3fZ8NwGHIQfD2AU55HCk0585OWCJz+UOOchBz0Q+L3IM82wVPWIxFebSycEd6aVxIKUqh7dPtSucwbNVqhzV7FOVozJFI3MB0ypVDr/PdM3h26MsObvomqO0RuNTeC2x+7ETrTCXPq3CFeqao+FK+6IqR7ddUKtrDs80uubwzFEv8EiEFZb8S91O2sqlR3quInBxqhx1P0Ger0QDLMh1t6rRG/sic6TnKgIXd+nkkFYEbnsg0QDk0PscPeRQ5aiMw1+465qjMpqX4U2XuDcLB5lW6W6V12OO/pi5iN1J54700jhchCqH3ufY+TY5/RJ2+hNIpMrhDz9lSZWjtETrk7mGIZ1+3zCJeyZySCsCtz1Vjg7ZQJXeIW8xERXPRA4cV5Wjqz+4awkuTtcc3VZ2taocDdvomqNTOlQ5Gn5SFFU5uqziFJW7cNencrstiFrmGkEaRyrC/oRJ3DORg7tGkMad4PQnkEPvc3TzoyAHTE4lYRzp9GdODlhM1xzdPqO7Vd12QS1TiS6dHNKKwG1PlaNzyaG7VZ2EfKZplSpHZ2+4SlWOo6ZR5fBMw1UELk6VQ5WjcjBy+qXKUdnKy+huVTeLXC3eFVG4jWewrgJzpOeuJbg40un350rinokc3JFeGqfK0e3zep+ji9zPRA5dc3R1RlGna46jpmEqEakI+wOQuGcih7QicNtT5VDlqLh3ruRQ5ai6qJlR5WhapCqrclSmcBmuInBxqhyqHJWDqXJUpthl+LtQJzw+or8hb1h5X2SO9NxdKC6OdPry9PCQhnuK7mjSNUe3afgk0vdWdVsQtQU5+rxv/y+FcZdODlhMn63qdipdc3TbpSQbZtBEunRycNcI0jiQkjtd4uJUOY76qrAicJXo0smhynHUo55POZ45Djk3XjmJo+KLl0FSKJyLuKlxyEtrHT4RDM4pBxlFZuxiCNm4ewuoVpvH69QiwNzhCN05bnxxLk7jkB8dhIolUX+8cun44tz2EJbqc4hD7mL6vv6QksFrvv15bVyczp6u2n3FjC+eMHEah7wMHdrxqXHIfaOU8cX92naJjXPSawNSOjYIBu5e+tU+kl/zSuOQ94wfsOBf9XxdfkXFF+fipOOLc9vD+eEy6XfESeO48cW5OMy+7t9/CMLaDKo7u04/Pszh+lTixhfn4jQOuT/61EsLIl454mVqHPK6wfZ5F4yUFa/c7StaQwakXK3TrzEUzLqjih9qXfxSjUN+ZAThxit3hnYdSCUShyZE44tz2ytOXC6++M4OdHv8+OK8OOTFKmKJ8MREyhHQ1UW2pxI3vjgXh+NpHPKjcas1DrlnGm58cS5u5KLQF0HrvcO0CncuBPldq7qjQuOQd+/joZYbr5yKL14egMKJxxd38wJOXHPh+OJuAc2Ja86NL87FTXHcxD6S06p8u8oe0GjZL8c+ufHFuTiNQ96j1eTNQn22qtt6/Dvpeoe824Ko1Tvkvmn4ZNNnq3zLlaXnu0PuthbiKCRv2uhvyMu+2n/ynd49GULu0Uo/M8VtT5+t6t5p1t+QN/y9KAo7PZyPRQ4Hwnyk64z8Onkc94FCLg6Xob/n8DutLBXTKoxbVBLGkWuJ/fmQOL4zc52eheOO9NI4nBzX6bk4XXMc9X1dc/im4ZNNlcO3XFnSNUdpidYnU2FIRdg3TOL4zsxSBIBYOGlF4LaHk+MqAhenytFy4rJClaO0xO6TSQ7HIF1z+Kbbl1Q5Os3iKlU5PNNwFYGLU+XQ3arKwc51WqXKUXVRM6PK0bRIVVblqEzhMlxF4OJUOVQ5KgdT5ahMscsMsiDX+xwNK++LzJGeu5bg4kinL08Py163f3Q08RfQbiZE37Vjtscd6aVxqhyqHBUXSBIxnXlHMTlyOKbpblXVTfWMrjnq1vDyTCUinX7fKIl7JnJIKwK3PVUOVY6Kb+dKDlWOqouaGVWOpkWqsipHZQqX4SoCF6fKocpROZgqR2WKXUZ3qzrZcdoj6xoT0Pcq4bUJd6SXxqlydHJD45D73r4vCTs9nM8tJzhbvrpb1dkhGoe82yyuVtccnm1UOTxz1Au8hTueLY4xZ6LSadMqAy91wyCVCmdmAIVx5Fpif94kjj/ScxWBi1Pl6PYtntPDOUfFDd7uRqraQciha47KvkVGmETSisBtD8zl/k6Di9Pfc/ieUisJK8JuWoUOJBKpCPt/T+KEnd6dua45OiYxmNtYultdr/EUgYtT5TjOpHMlB3ekl8bBP7mKwMWpchx1P1UO3zSqHB2ygSpVDt9PvFJBIoyDVGLiSEXYH4fE8Z2ZO11i4aQVgdueKkc3d3W3qouYz0QOxyB9KrerQ3TN0WmVolKVw7MNVxG4OFUOVY7Kwc51WqXKUXVRM6O7VU2LVGVVjsoULsNVBC5OlUOVo3IwVY7KFLvMIFu5n8tvyCeLKApSQ0SpiuLNNaKBTendpcUcgxYjCeMQJXbm4qZQicZdIVAdJ3KlNA6iMEfEQjrJ4ibo0weENKMSEzdBS7PrDRn2zCCcLPqCPK47MxevnEpsHPo2yzakv6dpYM14vIhMRj+Itdra8Zzh9fe3kxtciwsE1Jukcfa+MCB5XApXNDC7J5+ilcfNkpvJ7X2v0fDlGMaVxN2gzdd39KjCxWHiNx/b7ap7snKozYJodUeHcERz01e3GK3IxMUl87tVFGSHM+nOrY1ZGMQPTIMwWsVUSuEv0/n0WHiqst6NuRMM4mX52Kc07gF+A88aHzteWU/h0A33+N9DiT/2KY1zcVXdGHnseGW9OG4XHrRs/ujnPozo0e/LL+AiuIyU8qb4zdcGATOns/LfHft00gKXujn2fVnPxc2mCJhpvn5DnWC0ykcGgWzTGAHTAyKtv3vA0OxOgUgWkbedwakkjMO63SXyBCncrgE6UIY0DiZzsYwpqzkfFcVNsSJ33kclLs71wOzhuzXhTkEamxXjsMUGhCQO12lXJk6p8wvj7NokcxuZfENSPVrf3tzPJqS+3Xw1u8EJkOyQxo0SBHy/IU8vIXFjnP4rwKgkjHMGu5l95WzXm6RxsNjk1Vdkd7l5Mg83md3f3K4jamT+9ufvo+V8thvS+q4Ys8i3yes+xO47Jm4ymy+j73/+ljq/1MQWyrHcbsOAXEDl6x1/Sxk79olRCNIxuTr2fVkvjcPibo7VDjktoXBOwedYtJXneexTGjefzGA4eloljUPUWcbVuj0WLg6+atc5tcET5FnhUcfsW9ZPwVssyMnpPBdXnF2WB9T5haGxZjZZbDZRHMam/y+L7iDocBsqXSPoLY1KEmHc7ftiTkVOqygcGsB/72+py5TGYbkEw11Th8X3srgbN3bf0R3GxY3n82R2F2WEO5nNX96Y0YRekSNMdeL2SanExSXzyci8+cuGOL84zNMlFuT2pR0hsDqRRtY+2JFdErDi61sAOUkUd4sjXjPOj8At0Yi1DtSfpHEwGX1Qd0rCOBzUXTCZuLglTvDBnSWVlnZhl7Tf2Ts0RLdm2bhFcWDq7PD9S0yruNFk2T+TNYhMS98EiopfutAj1rn/hrx7I7BW6+L0RpBoKkUx5rY0DK/FEMUhkHBsWCterNw5v06CEk2s8wEifVaPrD8rOdyWSn8i73zv/zmJc53Le1tIgSNcwBHjCyQHPTh+ob/nUOXwCHMKORgCUyiHIE6Vw+utqjDQ7zmGIIcqR63XLmBapcrRPc8p5pu0cXTNUbn7LuPWEoKKwFUYVY5GP+yLqhxd9NY1R5dV3ELshAU5PTjqmqOblEWtKkfDOKoc3aQELVkva+PiQHFslDWM3y6qcnR1hypHl1VUOdr8OdTgFVyF23Rbrlara46D0VxOd6t8e5Qlvc9RWqL9edq0SnerKgtexE1AXXPU5KKWVeWo/LjIqHL49ihLqhylJdqfqhwNmwgrAvcxk2G2clU5anJRy6py+F6vyuHboyypcpSWaH+qcjRsospRG2G97AVs5epulddjbovAPaDYcPF2UZWjbRNXo8rRbRdXq8rRsI0qhz/4HEqqHAdbNHJn/sbDhou3i6ocbZu4GlWObru4WlWOhm1UORqjYlVU5ahM0cyocvgsciQSfHp3mK3c4rkA/7ybJVWOpkUOZVWOgy2KnCpHc1gsy6ocpSVan6ocPotUOVousq/gkUifyj1mP7xOoohVjX3YY0mfyu22jP6ewx+k6iV9KrfhM3qfo2GQfdHZpXhKou49HXldc3QYZV+la46GbXTN0U027o+YuLhBplV6h9zvPFUO3x5lSZWjtETH5yAPHurvOSqdEVaYYbZy9ancDmagahBy0MGiyIX2/mxJ3F4Rui+uVqvKUTNGLavKUTNGMzsIOVQ5VDmajtYqP+NWrq45/N5Q5fDtUZZUOUpLdHyqclSDfJE55cHDz+ZF0rrm6GAGqgYhh645KsbpHfJuv3vWrVx9y7rfKUNMq1Q5fBvvSry1xCDkkI5DvkyjMF+TYaUCF2IJF7S7/p7/Z8Yrp+OL745B406LL06Fz0pDxCJNoyWFMyZANKEFaTd5XBiurt/3dMD+K41DXol3K8ONQz632+2bLEtbDTQqXChRBBcmA1px45VT8cXL3qdwRTidE+KQNy6rVQzSPM1MSv6cNg+CVRQtWv++WSGNy8J8YxaldY5/3uArTrxyjHcah7wMaNj8TGz+GGVRRkXrXN/CijB48983y4gmxIpr/gCu3Tu+EYnCgRwnxSGnrhPEMOsotxQuCrMnk5GwWBqXmyyLRpN7wmxQeIxjdDzPicYhPz7AJJO3v+TvNquYivP889tf0Qoj1C4zXrl7WSkSGTCTwu0a4Mchp64zCk0QpcGSwhmTbeLYknYTx23i7OcXpIDDsDAwJzwaDKhxyAtfbP/f6+t3eRZgAk2k7A5WHNOdwo1XTsYX358qiTsxvjhxmfEmRBzrdbagcDEmoo+xXX9q3GOQZsGCjuoKRdU45McWjvw45GuTZ7k51k5Zn2EUmoMfpJwz45pT8cXL41C4U+OLl9dz7DM1UR6GqT32fVkfp2kcP1kyfrc0zu2dvHNTVyJpHPKe4MzcOORXbzfrKNtse5oqAp4Ht3M3B6KlgxmvnIovXmochcM54T9+HHLiOg0CvJs4j15QuDgLsnT1zepT49J36Sb+8b40z9FPjUPeE535hDjkLlY5Ga8cEaiX+ONEmEaAbgbMRfE+wzjkO1t8wAeRrnH27o9KwjhYFl1B21fjkDf3DWtlhNLGimy36j06vLgvvrA75L22cF8WVhuTS1k8A4Af8JIwTH9kcTg/bjgzLk5/CXjUKQYhB81K8lH0/QmTOKYzc53+BByLHGhPGsd1ei4O5NBnq7r5MQg5zvfZqm4j1GqZZJNWBG57IBvX6bk4VY5a9/vZQcjhxt/+RCrC/p+TOKYzuzNyL5LuPyt8y8dJKwK3Pa7Tc3GqHEedYhByqHKU9uYqAhcH8nKdnotT5Sg7q/U5CDnc+NufSEXY/3MSxx/pcVKqHK1ecfbTNUfLLLuKQcihylFam6sIXJwqR21LtpbVOOSlx9U/VTnq1jjk+dMvVY6D1Ro5VQ7fIEyycUd6aZwqR00uallVDt+NdyWmM7tVkK45Ogzo7KJrjg7DuCpVDt8wTBJJKwK3PVWOmlzUsqocvhvvSkxnVuXoMh7qVDmOGMZVq3L4xmGSjTvSS+NUOWpyUcuqcvhuvCsxnVmVo8t4qFPlOGIYV63K4RuHSTZpReC2p8pRk4taVpXDd+NdienMqhxdxkOdKscRw7hqVQ7fOEyycUd6aZwqR00uallVDt+NdyWmM6tydBkPdaocRwzjqlU5fOMwySatCNz2VDlqclHLqnL4brwrMZ1ZlaPLeKhT5ThiGFetyuEbh0k27kgvjVPlqMlFLavK4bvxrsR0ZlWOLuOhTpXjiGFctSqHbxwm2aQVgdueKkdNLmpZVQ7fjXclpjOrcnQZD3WqHEcM46pVOXzjMMnGHemlcaocNbmoZVU5fDfelZjOrMrRZTzUqXIcMYyrVuXwjcMkm7QicNtT5ajJRS2ryuG78a7EdGZVji7joU6V44hhXLUqh28cJtm4I700TpWjJhe1rCqH78a7EtOZVTm6jIc6VY4jhnHVqhy+cZhkk1YEbnuqHDW5qGVVOXw33pWYzqzK0WU81KlyHDGMq1bl8I3DJBt3pJfGqXLU5KKWVeXw3XhXYjqzKkeX8VCnynHEMK5alcM3DpNs0orAbU+VoyYXtawqh+/GuxLTmVU5uoyHOlWOI4Zx1aocvnGYZOOO9NI4VY6aXNSyqhy+G+9KTGdW5egyHupUOY4YxlWrcvjGYZJNWhG47aly1OSillXl8N14V2I6sypHl/FQ95kpx0s7Qpx2IiGM+wNiuS8JmPvaYUiccKx5az8wDurOjsbh3AGiEwu3tNdoCSHuqTTigNCIMA5n5k6QTFzcEif44M6SSku7sEva7+wdGqJbs2zcojgwdXb4/qU1s8lis4nisKYondksupsl8/n4yHhRVV+93ayjbLPtbKRWufpmlWZBFteqOrNc3IsoR1v0dVC40LWSRy86T6ZWWeKqCz+SmSYJ/nt/e+TrWvV4nIyva+VjWVncDUb65I7s1oSLG8/nyewuymqm6sxu/vLGjCbzYxdZ1U9hvutZVTya4eKS+WRk3vxl03lStcowT5cmmS632zhAVPXevyhf76IKT4iU2LXJszzqbc1EUW6f4jhP6eMycTYNwzwyKXVcCpeaKA/D1BLtmBJHmAOudzPBkGIp3NVkBjewyafGJckV4+ywgmHj4L92ja7o/wvyrPAo6nqnIIZNZlMpXHF2WR70n11kwtBYk8zhB/kmjYkUrW9v7mcTcoh5ff0uzwKwjUhrGz8aQx425uIW2ToOwnBDHDamcJswDOJ1tqDaKXFHh7Lyi/FNkrxKRmXx2KcbHK9mXwHcn6Rx6NDJq6/ooZmNm8zub27XEWW/b3/+PlrOZ063+tMsuXmbvO7HuG+ZuMlsvoy+//lb6vxSE4McU5vGWZYFRFp/9wALYoZApMnbX/J3m1VMNBfENo43EF8p3DJIo8DEEdUehcMuRRClwZJqp8QR5thbbLKT3T4wJq3oiz7E7jth3NStoBmH5eLcBc8evltT9ktjs2IcFkrKiWcNhjNxMKJdmTilzi+Ms2uTJMs0CM2KYlKc4lKmc1LeEps/RlmUke3ZzDxlITnCxEyczaM15jrkcSlchkbWmPRR51/iKLnHiHuP/z1QuGQ2Lrz0k+Mw5DJmczg3Hg4ugvboGcGbryOzTKYz6nrdcAzPu5HCzabJ0piv31D9G63ykRmPFxFcqrYU6c6utnY8p0UQs7Tt9k2Wpd2t1GoXUbQKgrxW051l4iyIkeZp0N3IoZbCBWgEjm8P/6I7V+KooR7EgF/dk4Pk2M0LJrf3dHuyuBsc8PXdFXXYhIvDGD4f2+2q22qH2gzdf0evx9Hc9NXtrLBi/zlyccn8bhUF5IbB2piFSSbwvgDLSyLFG7dnMKXpsUyjMF8HRHNRsMjDGK4shVtiLhRkYUq1R+HSEDPMNFpS7ZS4/h5z315BFDgTF8wM5gu6OTeDkMRN0KcPU8Z8mYebuGnV9Sam7Gc2WWaTMXlcd2ZYkJN2YePQF1m2If0uTQOsOXBLO47C6MDp7lxkLIhBc4N7h9zYqNgj6z5arZaJK27MY4eESiTONYGLpdopDgUc2WuF1cYkjntHWxqHLp24aRXjOrg4hFpmdEQcxZzD4rwmozHj/Lg4XAUOTXdv7Harno0chkkOHo50+r05SNwzkQPdDxcgOeTGJ2kc1+m5OI1DfnSkKbwPty+oxFQErsKQTn/m5JBWBG57IBvX6bk4VY7fTw6eIkDcWApz6eQYQBG4CsN1ei5OleP3k0PXHHUbckd6aZwqR/cU51mfyuUqAhenylGnGvL8tQlXEbg4VY5GVxyKuuY42MLldLeqe2jW3apuuxS1zLWEKofPtRMUQdccDdMVReif/FZurPc5PKrvt3y77O/VqXJ4ZqsKqhyVKdoZVQ6PQwMogiqHb+FdSZWjzcWyhly4P9NNQOldKG57ICV3oc3F6X2OLlIWdewFOe/+ha45Gpbm70KpcjRMVxRVOUqdaH+qcjQ8RpWj7SSo0fscXWZ5pmmVrjkapD0UL+DBQ92t8qmku1UH963n3O7cTp59ezVLulvVtEitrLtVdZc65Y42dy3BxXEX2lyc3iH3e7ZWYi/I9dmqmtWK30DDq+pVnXnuLhQXp7tVtQG7ltU1R80YVVbXHJ2kPIFEqhzdFkStKodvGr1DXo07XkbXHJ45/IKuOZok4q4RpHHctQQXp8rh92ytpMpRMwayqhz+oFiWVDlKS3R8qnI0SSStCNz2uIrAxaly+D1bK6ly1IyBrCpHx8iIKlWObrsUtaocTRJxR3ppHFcRuDhVDr9nayVVjpoxkFXl6B4hVTm67aLK4fOnKMk/bctVGK4icHGqHB3du6tS5fBNo8rRPUKqcnTbRZXD509RUuXoMMrOMuf/OlB9Ktdnuj6V2+3MTimL2YNvrlZJlaNlkkOF7lb5zqXK4dvjUNLfcxxY08gx36m7G6zccN6fSNwzPXjIfYpWGnfCA4UnLMj1LesHbtdz7AW5/oa8bjY4KXd3SRrHdXou7rParZKOQ46A2pzA0S46tyDOhfq+puOfF9G+e3DcuOHSOJiCEay8iMktiuPGF+fiNA65N+Q1CtcIp82IUpUI427fF+E8yUhBFA4N4D86brg0LnFW0zjkDWdynfFZxSHH1cwmV1SAQ0QTEsUhhNZ8gsB11HEpHDduuDRO45B399xnFYf85quZi61IBnGTxo0Q7Du5oSWLxDHjhifCOGcwjUPeEg7nSZ9PHPLEThFQm+QGfjEoi3Nv8kUip1UUbtcA/WNuaRxMpnHIO7jhdufoX9a7GQMPh0M8ZxxynOh4Rk5vXHxVSdwDJu33+F+3OB9qKRy0hxU3XBqnccgPfVTPuUEIrvJ5xCG/v8XMf4ZtSSJJ4+x9oVbkcSlc0QArbjguUBQnG1+cG9f8Bpehccjb98aGiUO+mLuntOkkjMNCe4aQ32Sicdy44dI4iK1kfHE30+C0p3HIO0OmDxSHvLibRfMDk3/czRLDWTQGf6DJQeGKVhjTXGGc9J1vbnswGffmHhenz1Yd9cLC6Tle6sghh7t0csAS0ne+ue1xnZ6L+6zukOPnvCH5UFLEfipXVhESpsJcOjm4I700DqTkOj0Xp8qhyuFkT3T6xR3ppXFcp+fiVDn6yYHxjUpMRVDl8A2pyuHbo1biPdoOiuOnJO3tqUbNQO/KlV1L7MiBQZpIlz6tcjKEIZe4Snwtj+MqAhenynG0F4UVQZXDt7Qqh2+PWkmVo2YML6vK4ZnjFIXhKgIXp8rR6IpDUZXjYAuXY94PkVYEbns4P67Tc3Egh/4S0HeCslSQw7kEkYRxqhwNe/PXJlyn5+JUORpdcSiqchxs4XKqHI19oH3xy3z7iO5WeexgkgMk0t0qz3BVgbfQxjDEer8V9E9+K1fvkFe9VWT4Tu/8ntyj5a4RpHE4Oe50iYvTNYfvKbWS8FpC73PUbOuy8grDdXouTtccjS47FHXNcbCFyzEVRloRuO2pcnQvifQOue/GuxLTmblOfwJO1xxd/cFdS3Bx0D9dc3QbOiG3fJ+JHNyRXhqnyqHKUVHlXMkBJ1XlqHrJy/B2oVQ5PKN5BdLp92gSp8rh2bUq8He1dLeqMlozo7tVvkX4ZFPl8C1XllQ5Sku0Ppm7X6Qi7BsmcXxndjMh8v4Fd0EuvZbgtqdrDl1zVJw7V3LomqPqomZGlaNpkaqsylGZwmW4isDFqXKoclQOpspRmWKX4S+09Q55N4+M0bePtJzKzYR0zdEwC4yiu1VNm1Rl3a2qTFFk+At83a3yLVeWdM1RWqL1qWsOzyTctQQXp2uO7rmSPlvlud2+wB/pRadVrjHMR7rOyK+Tx3HXElycPpXr91itxBzpuW8V4eLIhfb+FEncM5GDO9JL41Q5VDkq9p4rOVQ5qi5qZnTN0bRIVWYqEen0+wZJnCpHZXovw9/y1d0qz3D1gu5W1a2BfU33H2vLV9ccvuXK0vMpx3xyHaRxTL5lPX/EYvEqmdZDUnXl50vEtkMQma7v6nXSuKWLyYtD14/RladwaAINTZdd/7ZeJ46D0ebJcl4/RlfedYIkzkWyunqgw9RxcVPX+fYx757JH2rz7Sp7cDEoiIT405OXVyRswsUhMt5DttqS57dN85HBlbxF6HcyXdtraxcIJU+kJaK5LwiM+1oaZ1+6IPc4RypRODRxi8bIJI0rzHa7JI8rjFva0S3HbFzcyPV+4Sz9V3JnX1h714/ZfQtDv+AguTgclNXeH625mS3SII5NZ+ynWmUcLzHGuPGjP80Yu5GuBWkcDouggBj2iUTi0AQaoq9CGlecty0CGxKXgK/lcJNkOmVcLaaGPFzhIktMRYiUY/B2HkWlCfqU7gw3deXhcLylwcGJ04vexdECyvEQhmGUHgSvO5cbd4qYPRMJVzJJ7q8I1HgsjVsg4ij8dU4dmMK5Nm6SZEG1I40bX93DcIhYSCVhnBtQpvaePC4bhzVWYg05bVmt06/dQEVdLuw8xVBAOhQX5wa+r9P1qtvLD7VxvrIGa8VVbuLsULlEclQAAAzMSURBVN2dC4MP7+8njIENV/xX1HDgvhfGLX6FpWd0HHIKN3WtJL+CQ/1JGoejwWxuACKTKO4ndzg3oBGJi0tmk/v3H4Kw24tqtdv048P8FXFUfD2/51mFi3s1f/iYIlYslaL4zkzGyziMA1I54sB13JQcYaYLty7+9DiMua85ykbhnJu8hq5RI5o4burGvsWUPK40Dgvo8R1HOZi4InB4QEaH2WRZ5jyKul7QZ7rEelwKh0NaHHpDcSMOAijHxOZBRG5WmSj98NqNqVQaP4zn6GYySeOwg5wkr1zP9CcSN3WjGeM5DmkchpQ5jNJ/9sW3orh7d7ULejHJxTn9fv0hJR3q25/Xxs3myOsdz7E8ZcTQZuLGyb0165+/pciRp/HCTGajOAsZ7IjBcwgCsfPmps1uRfvJcTaZOwuSW80UztHrCms76jqlcWO3DeCM52629fxJ49BZuz7rOWZxPkzc2M1sLSkcJo/XqXXXTBx3CghtlWRS4ojmnG/adB2Ta6IwjqEcWD2xoskaN+a64ZlIxU3AT48j73zvT5vEFVfJumkHa8jhpJ+Z4rZXOCdjzXECzt0hp9PQb1nHUDmf/au/+xu7WPy7/+ufv6u8FkOB/EvdTiMHzY4dicRwpNOfOTkc0zizuQFwTjnofnBDMg/nyEFOqzAiYy5CHxbd9pvukL9Krib/PV3+r/8Nuyv/amT/67DkOO0t69W5HM0IK8ylk4M70kvj4J9cp+fizoIc8Lu/tfa/z6eT5Orq7+/+vvJDXIUqR2UNP0OSCIOZ5HTJDY7M9j4j5aAfRxpaOcaz/9u++A/oe9x+mP/p7f9cecEg5FDlqOxbZPhOzyKHtCJw28PJcRWBizsL5Zj/rb37F++L3TDcosG+WJkGIYeuOUrz7j6FyeEY9PmsOZ5fOf5htPhfkuS9u+WGhCcyyjQIOVQ5SvPuPoXJwR3ppXGfq3L8lzv77/d3R35Krm4OfTcIOVQ5DgZ2OWFyqHL45q2VftNu1ZO9+wf3oOx09zBqoR9Fm4OQQ5Wj1l/ICpNDWhG47X2uymHtA+73zfFoTPFA/qHvBiGHKsfBwC4nTA5VDt+8tdJvUg67dI9qgB3zf28f/np8eKJpEHKoctT6C1lhcnBHemnc56oc/2I0Su7xNH4y/rcW2/eHNAg5VDkOBnY5YXKocvjmrZV+k3L8N2txb2M8xi+5PvxrPG1YtTcIOVQ5KvsWGWFySCsCt73PVTmSfxyFyQ3W4f/Z2v9Sf6p3EHKocgxKDlUO37y10m9SjlnyLxbf/094lPjvFvafoB9VGoQcqhyVfYuMKodvj7Lk7HIGDx7i/t8//e0veEVD9o9/h7scAy/IVTnK7t99CpNDlcM3b630m5SjeODANXLjiFFbkaty1EzbyJ7rg4fcNYI07rNdczT6vSoOQg5Vjsq+RUaVw7dHWSqmVc//bFV5Oq3PQcihaw7fzsLkkFYEbnuqHN0/WhwwPge6hkr6S0DfQvpUrm+PQ+k3rTkO/7yRU+VoGKRW1DVHzRgu+5n+nqNxlYfiIOTQNcfBwC4nPK1Ce/p7Dt/CZUmVo7RE65P5W3NSEfYNkzh5p3d+XzwF17q2WgV3jSCNU+XQNUflhudKDlWOqouaGVWOpkWqsipHZQqXUeXwzFEv8Eika466zfy8Kodvj2GmVXqfo2HlfZE50u+jxHa3Ua9ltkc6fXl6WPYWq+n6Mep5XXPUrXHI83e1zuPZqsOZ+zlVDt8e9RJJomcih6456r3k5XnTJYx4o2Lg8/5tuzAIOfQOuW9oYRJJryW47Q0zrXr+14H6nVUrDUIOvc9RszCywuRQ5fDNWyvxFEGVo2ayRpacLu3xJE7e6Z3f632O5u2EgV8k3XCPQ1GV42CLZu5cyaHK0eypqvx8ysGOQ751gx8dr9pFGpnNsTIikjTuxa/JGL/4uiIOO6FweEvezTj59QXVjjQuQWQiF6aFOq40Di89QzgXzEmIxMW5eDSJpeN8v/mbj8E1foNEHBY6fu9i576Sw42vg49/86YpZM3ySXHI7eIlXgVk7YhILmL09fX1p8e9deGl7Vvi9EYu6noPbrH/mjp/adyoMBqMR56/M64gbuTCt6NjqeNycXCRpX1JR6J/sG9xHbSfLBbL0WhhH6jz4+LcK96u39oHnCeRTohDnq0Qy+ox+yEgUnj9Zr0JNxkBC6RxozA0qyBaUcelcKsoWJkwHFHtSOMyGG395jqkjiuNixG+b2vTlDouF/dD9mhiu8qoON+ItZeOTJBTxw3Qq/adIWFcXB6YURpmZJz0k+KQm2/tu+C77ClG7Nm+P2O38bsojD41zqbh1qy3ed+5ue8oXL5dm22YW6odaRxM9i7eIgRdr3VDF6FOFIcxJTI2fKSOy8U9Zd8F7ywZj9JE6zS164w8rsnCzAbZljo/Lu4xW9s0WJORp06KQ76Kb00QZoYaEYJv0jQOsvRT4/4QbEwQwXmIROHiMArMJvgD0UwkjUuzIE7TbxDYtz+J48w63vwxJ+2WMnFw0sDcxqvmHL5ZjnITv1i9eeq/WvdtaL4KNjSMiXt6s3oRmxVJDnNKHPKvN/Yx/eEXMkzo1uZhGkRkFHRpnDVbszJZ0OyEZpnCBZlZxVtDhnyUxq2jIIVgbZvn2yxL48CK8BHRtpvHaZbZuF9+SB/t5uvmv2+Wg3dpYL/PwmZ9qxznkX3ckmQzTFycfW+D9B19vafEIV9lyyDYbIOYSKu32dOfV9mKgMXSuIcwN1sYiDouhYtyUCMPH6h2pHEw2Z/fZG9puwnjsiBf5d8YRBbuT1xcsN0EwTIjnRndlT6sAkwj+1MaxunLdPWuHxXHXJwJVg8pOrhFwkbFSXHIw8iGYYSZC5FC8BI+Sk6/pHE2g/bGASKq9ycKFwZxtAky298KhlthnAHbMJaS5y+NSyOsJuyKnlYxcYEB0GKOQ6Q0XEcLBAakUgpPglVyKRxenLCI1mFKnJ4bLfhxyI0pgnDSczULF2U8sWyEcbuX7DFOr3jspwfnvkIUYMp4u2Ykcc5s9GFxbqI4SC3nanFYJq6IhElazxiwCC7Q0xH7NoRxOKTFGE+e4ElvH+GTwzDJIYuTJQe95thzjPbmgmyc9mSdnkuiiOnM0jjjKI6tN9JLhXE4JPqMPuxA5PgclIPjzOhWbIKSnXsKORjNFU4viJN2em57qhx9noMtfQwKfYjdd0ycKkfDlMzpF9eZpXGqHI3+8opnveZgDM1sRcBVsxQGYwXjsKocnhcdCsy1ia45DiZr5UiFEXd6nAKXHM+xINc1R8tHXIWuObrM8pzkUOVo9whTEbhrGFWOtomrGlWOyhRFRnotwW1P1xx+P/glXXP49nALaFUO3yaupMrRtklVo7tVlSmKDHMXSu9z+GYrS3qfo7REx+dZT6tUOdo9psrRtklVo8pRmaLIqHL49ihLzDvpqhylwTo+VTl8o3AX0NI46bUEtz3drfL73yudNTn0PofXV0WBqQjc3S9VjraJq5qzJoeuOap+qjK65qhM0c7omsO3ia45fHuUJabCqHKUBuv4VOXwjSK9luC2x10jSON0zeH3v1c6a3LomsPrq6LAVARdc7RNV9WQTr9Hkjh9tqqyaT3DVQQuTloRuO2pctR7tZE/a3KocjR6C0VVjrZNqhrmM1ik0+8bJHGqHJXp6xmuInBx3JFeGqfKUe/VRv6syaHK0egtFFU52japalQ5KlMUGeGnd7kjvTROWhG47aly+O7klVQ5PHPgR4qyr9zhtietCNz29D6H3/9e6azJoXfIvb4qCnqHvG2TqkbvkFemKDJ6h9y3R1lirk1UOUqDdXyqcvhG4U6DpHHcNYI0Ttccfv97pbMmh+5WeX1VFJiKoGuOtumqGtLp90gSp/c5KpvWM6ocdWu08twXScu+yRBrVNabEUmn318PiXtOcqhytLyOqwhcnK452iauas6aHLpbVfVTldHdqsoU7Ywqh28T3a3y7VGWmGuTk5QDQahDswU9iZSliEoTkkFCo9SafIvQLkRz4jhrwmi7wl4EkShcHK1w+ogeQiRpHMLuIHi3pWMpSuMQ1TWwKdmxgTAuNlFg43RNmBlv5ZTFrdPYBm4BRaTtZu2C1yxzhEsEGDdL+/7yP0boOfzXi4qCH12Iohhs6/+Txr2I0jTLY9iy/2+HQ2DNI7A4zrM0jV4c+76sPxlX/sMjnwiXGa6iHzGoHDmxfb04zvXpH3P3Pt/eP5yYKM4EafoB0dGo6xXHrbIPCCzdf7H41rwxd2Y6tbeI0U4GaQfkekTDRks7wh8CqxNJGoew64jljlaJROHQxGLkQESSxj2f4ewIcevJ63V9L4lb4Ij2BX1YadzuoOhjKtmX9v8H72Hca4qTLw8AAAAASUVORK5CYII=;aspect=fixed;rotation=-90;" parent="9pnh7lvO98Alzu9_AtAS-45" vertex="1">
          <mxGeometry x="480" width="120" height="120" as="geometry" />
        </mxCell>
        <mxCell id="9pnh7lvO98Alzu9_AtAS-44" value="" style="endArrow=none;dashed=1;html=1;dashPattern=1 3;strokeWidth=2;rounded=0;" parent="9pnh7lvO98Alzu9_AtAS-45" edge="1">
          <mxGeometry width="50" height="50" relative="1" as="geometry">
            <mxPoint x="420" y="60" as="sourcePoint" />
            <mxPoint x="470" y="60" as="targetPoint" />
          </mxGeometry>
        </mxCell>
        <mxCell id="9pnh7lvO98Alzu9_AtAS-47" value="" style="shape=curlyBracket;whiteSpace=wrap;html=1;rounded=1;flipH=1;labelPosition=right;verticalLabelPosition=middle;align=left;verticalAlign=middle;rotation=-90;" parent="9pnh7lvO98Alzu9_AtAS-50" vertex="1">
          <mxGeometry x="276" y="-217.5" width="60" height="612" as="geometry" />
        </mxCell>
        <mxCell id="9pnh7lvO98Alzu9_AtAS-49" value="&lt;span style=&quot;font-size: 18px;&quot;&gt;All environments in the batch&lt;/span&gt;" style="text;html=1;strokeColor=none;fillColor=none;align=center;verticalAlign=middle;whiteSpace=wrap;rounded=0;" parent="9pnh7lvO98Alzu9_AtAS-50" vertex="1">
          <mxGeometry x="177.43" y="263.5" width="257.14" height="30" as="geometry" />
        </mxCell>
        <mxCell id="9pnh7lvO98Alzu9_AtAS-48" value="" style="endArrow=classic;html=1;rounded=0;exitX=0.1;exitY=0.5;exitDx=0;exitDy=0;exitPerimeter=0;entryX=0.5;entryY=1;entryDx=0;entryDy=0;" parent="9pnh7lvO98Alzu9_AtAS-60" source="9pnh7lvO98Alzu9_AtAS-47" target="9pnh7lvO98Alzu9_AtAS-39" edge="1">
          <mxGeometry width="50" height="50" relative="1" as="geometry">
            <mxPoint x="474.25" y="360" as="sourcePoint" />
            <mxPoint x="477.25" y="300" as="targetPoint" />
          </mxGeometry>
        </mxCell>
        <mxCell id="9pnh7lvO98Alzu9_AtAS-52" value="" style="edgeStyle=segmentEdgeStyle;endArrow=classic;html=1;curved=0;rounded=0;endSize=8;startSize=8;exitX=0.5;exitY=0;exitDx=0;exitDy=0;entryX=0.5;entryY=0;entryDx=0;entryDy=0;" parent="9pnh7lvO98Alzu9_AtAS-60" source="9pnh7lvO98Alzu9_AtAS-16" target="9pnh7lvO98Alzu9_AtAS-15" edge="1">
          <mxGeometry width="50" height="50" relative="1" as="geometry">
            <mxPoint x="580" y="70" as="sourcePoint" />
            <mxPoint x="200" y="20" as="targetPoint" />
            <Array as="points">
              <mxPoint x="769" y="70" />
              <mxPoint x="200" y="70" />
            </Array>
          </mxGeometry>
        </mxCell>
        <mxCell id="9pnh7lvO98Alzu9_AtAS-54" value="&lt;font style=&quot;font-size: 18px;&quot;&gt;Update and repeat&lt;/font&gt;" style="edgeLabel;html=1;align=center;verticalAlign=middle;resizable=0;points=[];" parent="9pnh7lvO98Alzu9_AtAS-52" vertex="1" connectable="0">
          <mxGeometry x="-0.0109" relative="1" as="geometry">
            <mxPoint x="-12" as="offset" />
          </mxGeometry>
        </mxCell>
        <mxCell id="9pnh7lvO98Alzu9_AtAS-56" value="&lt;font style=&quot;font-size: 18px;&quot;&gt;Batch&lt;/font&gt;" style="rounded=0;whiteSpace=wrap;html=1;" parent="9pnh7lvO98Alzu9_AtAS-60" vertex="1">
          <mxGeometry x="50" width="120" height="40" as="geometry" />
        </mxCell>
        <mxCell id="9pnh7lvO98Alzu9_AtAS-57" value="" style="edgeStyle=segmentEdgeStyle;endArrow=classic;html=1;curved=0;rounded=0;endSize=8;startSize=8;exitX=1;exitY=0.5;exitDx=0;exitDy=0;entryX=0;entryY=0.5;entryDx=0;entryDy=0;fillColor=#a20025;strokeColor=#6F0000;strokeWidth=4;" parent="9pnh7lvO98Alzu9_AtAS-60" source="9pnh7lvO98Alzu9_AtAS-16" target="9pnh7lvO98Alzu9_AtAS-15" edge="1">
          <mxGeometry width="50" height="50" relative="1" as="geometry">
            <mxPoint x="930" y="220" as="sourcePoint" />
            <mxPoint x="10" y="210" as="targetPoint" />
            <Array as="points">
              <mxPoint x="1000" y="220" />
              <mxPoint x="1000" y="630" />
              <mxPoint y="630" />
              <mxPoint y="220" />
            </Array>
          </mxGeometry>
        </mxCell>
        <mxCell id="9pnh7lvO98Alzu9_AtAS-59" value="&lt;font style=&quot;font-size: 18px;&quot;&gt;Move on to the next batch&lt;/font&gt;" style="rounded=1;whiteSpace=wrap;html=1;fillColor=#a20025;fontColor=#ffffff;strokeColor=#6F0000;arcSize=49;" parent="9pnh7lvO98Alzu9_AtAS-60" vertex="1">
          <mxGeometry x="366" y="610" width="220" height="40" as="geometry" />
        </mxCell>
        <mxCell id="9pnh7lvO98Alzu9_AtAS-186" value="" style="group;aspect=fixed;" parent="1" vertex="1" connectable="0">
          <mxGeometry x="1280" y="150" width="190" height="190" as="geometry" />
        </mxCell>
        <mxCell id="9pnh7lvO98Alzu9_AtAS-126" value="" style="shape=table;startSize=0;container=1;collapsible=0;childLayout=tableLayout;" parent="9pnh7lvO98Alzu9_AtAS-186" vertex="1">
          <mxGeometry width="189.99921198120373" height="189.99999999999997" as="geometry" />
        </mxCell>
        <mxCell id="9pnh7lvO98Alzu9_AtAS-127" value="" style="shape=tableRow;horizontal=0;startSize=0;swimlaneHead=0;swimlaneBody=0;strokeColor=inherit;top=0;left=0;bottom=0;right=0;collapsible=0;dropTarget=0;fillColor=none;points=[[0,0.5],[1,0.5]];portConstraint=eastwest;" parent="9pnh7lvO98Alzu9_AtAS-126" vertex="1">
          <mxGeometry width="189.99921198120373" height="38" as="geometry" />
        </mxCell>
        <mxCell id="9pnh7lvO98Alzu9_AtAS-128" value="" style="shape=partialRectangle;html=1;whiteSpace=wrap;connectable=0;strokeColor=inherit;overflow=hidden;fillColor=none;top=0;left=0;bottom=0;right=0;pointerEvents=1;" parent="9pnh7lvO98Alzu9_AtAS-127" vertex="1">
          <mxGeometry width="38" height="38" as="geometry">
            <mxRectangle width="38" height="38" as="alternateBounds" />
          </mxGeometry>
        </mxCell>
        <mxCell id="9pnh7lvO98Alzu9_AtAS-129" value="" style="shape=partialRectangle;html=1;whiteSpace=wrap;connectable=0;strokeColor=#C73500;overflow=hidden;fillColor=#999999;top=0;left=0;bottom=0;right=0;pointerEvents=1;fontColor=#000000;" parent="9pnh7lvO98Alzu9_AtAS-127" vertex="1">
          <mxGeometry x="38" width="38" height="38" as="geometry">
            <mxRectangle width="38" height="38" as="alternateBounds" />
          </mxGeometry>
        </mxCell>
        <mxCell id="9pnh7lvO98Alzu9_AtAS-130" value="" style="shape=partialRectangle;html=1;whiteSpace=wrap;connectable=0;strokeColor=inherit;overflow=hidden;fillColor=none;top=0;left=0;bottom=0;right=0;pointerEvents=1;" parent="9pnh7lvO98Alzu9_AtAS-127" vertex="1">
          <mxGeometry x="76" width="38" height="38" as="geometry">
            <mxRectangle width="38" height="38" as="alternateBounds" />
          </mxGeometry>
        </mxCell>
        <mxCell id="9pnh7lvO98Alzu9_AtAS-131" value="" style="shape=partialRectangle;html=1;whiteSpace=wrap;connectable=0;strokeColor=inherit;overflow=hidden;fillColor=none;top=0;left=0;bottom=0;right=0;pointerEvents=1;" parent="9pnh7lvO98Alzu9_AtAS-127" vertex="1">
          <mxGeometry x="114" width="38" height="38" as="geometry">
            <mxRectangle width="38" height="38" as="alternateBounds" />
          </mxGeometry>
        </mxCell>
        <mxCell id="9pnh7lvO98Alzu9_AtAS-132" value="" style="shape=partialRectangle;html=1;whiteSpace=wrap;connectable=0;strokeColor=inherit;overflow=hidden;fillColor=none;top=0;left=0;bottom=0;right=0;pointerEvents=1;" parent="9pnh7lvO98Alzu9_AtAS-127" vertex="1">
          <mxGeometry x="152" width="38" height="38" as="geometry">
            <mxRectangle width="38" height="38" as="alternateBounds" />
          </mxGeometry>
        </mxCell>
        <mxCell id="9pnh7lvO98Alzu9_AtAS-133" value="" style="shape=tableRow;horizontal=0;startSize=0;swimlaneHead=0;swimlaneBody=0;strokeColor=inherit;top=0;left=0;bottom=0;right=0;collapsible=0;dropTarget=0;fillColor=none;points=[[0,0.5],[1,0.5]];portConstraint=eastwest;" parent="9pnh7lvO98Alzu9_AtAS-126" vertex="1">
          <mxGeometry y="38" width="189.99921198120373" height="38" as="geometry" />
        </mxCell>
        <mxCell id="9pnh7lvO98Alzu9_AtAS-134" value="" style="shape=partialRectangle;html=1;whiteSpace=wrap;connectable=0;strokeColor=inherit;overflow=hidden;fillColor=none;top=0;left=0;bottom=0;right=0;pointerEvents=1;" parent="9pnh7lvO98Alzu9_AtAS-133" vertex="1">
          <mxGeometry width="38" height="38" as="geometry">
            <mxRectangle width="38" height="38" as="alternateBounds" />
          </mxGeometry>
        </mxCell>
        <mxCell id="9pnh7lvO98Alzu9_AtAS-135" value="" style="shape=partialRectangle;html=1;whiteSpace=wrap;connectable=0;strokeColor=inherit;overflow=hidden;fillColor=none;top=0;left=0;bottom=0;right=0;pointerEvents=1;" parent="9pnh7lvO98Alzu9_AtAS-133" vertex="1">
          <mxGeometry x="38" width="38" height="38" as="geometry">
            <mxRectangle width="38" height="38" as="alternateBounds" />
          </mxGeometry>
        </mxCell>
        <mxCell id="9pnh7lvO98Alzu9_AtAS-136" value="" style="shape=partialRectangle;html=1;whiteSpace=wrap;connectable=0;strokeColor=inherit;overflow=hidden;fillColor=none;top=0;left=0;bottom=0;right=0;pointerEvents=1;" parent="9pnh7lvO98Alzu9_AtAS-133" vertex="1">
          <mxGeometry x="76" width="38" height="38" as="geometry">
            <mxRectangle width="38" height="38" as="alternateBounds" />
          </mxGeometry>
        </mxCell>
        <mxCell id="9pnh7lvO98Alzu9_AtAS-137" value="" style="shape=partialRectangle;html=1;whiteSpace=wrap;connectable=0;strokeColor=inherit;overflow=hidden;fillColor=none;top=0;left=0;bottom=0;right=0;pointerEvents=1;" parent="9pnh7lvO98Alzu9_AtAS-133" vertex="1">
          <mxGeometry x="114" width="38" height="38" as="geometry">
            <mxRectangle width="38" height="38" as="alternateBounds" />
          </mxGeometry>
        </mxCell>
        <mxCell id="9pnh7lvO98Alzu9_AtAS-138" value="" style="shape=partialRectangle;html=1;whiteSpace=wrap;connectable=0;strokeColor=inherit;overflow=hidden;fillColor=none;top=0;left=0;bottom=0;right=0;pointerEvents=1;" parent="9pnh7lvO98Alzu9_AtAS-133" vertex="1">
          <mxGeometry x="152" width="38" height="38" as="geometry">
            <mxRectangle width="38" height="38" as="alternateBounds" />
          </mxGeometry>
        </mxCell>
        <mxCell id="9pnh7lvO98Alzu9_AtAS-139" value="" style="shape=tableRow;horizontal=0;startSize=0;swimlaneHead=0;swimlaneBody=0;strokeColor=inherit;top=0;left=0;bottom=0;right=0;collapsible=0;dropTarget=0;fillColor=none;points=[[0,0.5],[1,0.5]];portConstraint=eastwest;" parent="9pnh7lvO98Alzu9_AtAS-126" vertex="1">
          <mxGeometry y="76" width="189.99921198120373" height="38" as="geometry" />
        </mxCell>
        <mxCell id="9pnh7lvO98Alzu9_AtAS-140" value="" style="shape=partialRectangle;html=1;whiteSpace=wrap;connectable=0;strokeColor=inherit;overflow=hidden;fillColor=none;top=0;left=0;bottom=0;right=0;pointerEvents=1;" parent="9pnh7lvO98Alzu9_AtAS-139" vertex="1">
          <mxGeometry width="38" height="38" as="geometry">
            <mxRectangle width="38" height="38" as="alternateBounds" />
          </mxGeometry>
        </mxCell>
        <mxCell id="9pnh7lvO98Alzu9_AtAS-141" value="" style="shape=partialRectangle;html=1;whiteSpace=wrap;connectable=0;strokeColor=inherit;overflow=hidden;fillColor=none;top=0;left=0;bottom=0;right=0;pointerEvents=1;" parent="9pnh7lvO98Alzu9_AtAS-139" vertex="1">
          <mxGeometry x="38" width="38" height="38" as="geometry">
            <mxRectangle width="38" height="38" as="alternateBounds" />
          </mxGeometry>
        </mxCell>
        <mxCell id="9pnh7lvO98Alzu9_AtAS-142" value="" style="shape=partialRectangle;html=1;whiteSpace=wrap;connectable=0;strokeColor=inherit;overflow=hidden;fillColor=none;top=0;left=0;bottom=0;right=0;pointerEvents=1;" parent="9pnh7lvO98Alzu9_AtAS-139" vertex="1">
          <mxGeometry x="76" width="38" height="38" as="geometry">
            <mxRectangle width="38" height="38" as="alternateBounds" />
          </mxGeometry>
        </mxCell>
        <mxCell id="9pnh7lvO98Alzu9_AtAS-143" value="" style="shape=partialRectangle;html=1;whiteSpace=wrap;connectable=0;strokeColor=inherit;overflow=hidden;fillColor=none;top=0;left=0;bottom=0;right=0;pointerEvents=1;" parent="9pnh7lvO98Alzu9_AtAS-139" vertex="1">
          <mxGeometry x="114" width="38" height="38" as="geometry">
            <mxRectangle width="38" height="38" as="alternateBounds" />
          </mxGeometry>
        </mxCell>
        <mxCell id="9pnh7lvO98Alzu9_AtAS-144" value="" style="shape=partialRectangle;html=1;whiteSpace=wrap;connectable=0;strokeColor=inherit;overflow=hidden;fillColor=none;top=0;left=0;bottom=0;right=0;pointerEvents=1;" parent="9pnh7lvO98Alzu9_AtAS-139" vertex="1">
          <mxGeometry x="152" width="38" height="38" as="geometry">
            <mxRectangle width="38" height="38" as="alternateBounds" />
          </mxGeometry>
        </mxCell>
        <mxCell id="9pnh7lvO98Alzu9_AtAS-145" value="" style="shape=waypoint;sketch=0;size=6;pointerEvents=1;points=[];fillColor=none;resizable=0;rotatable=0;perimeter=centerPerimeter;snapToPoint=1;" parent="9pnh7lvO98Alzu9_AtAS-139" vertex="1">
          <mxGeometry x="190" height="38" as="geometry">
            <mxRectangle width="NaN" height="38" as="alternateBounds" />
          </mxGeometry>
        </mxCell>
        <mxCell id="9pnh7lvO98Alzu9_AtAS-146" value="" style="shape=tableRow;horizontal=0;startSize=0;swimlaneHead=0;swimlaneBody=0;strokeColor=inherit;top=0;left=0;bottom=0;right=0;collapsible=0;dropTarget=0;fillColor=none;points=[[0,0.5],[1,0.5]];portConstraint=eastwest;" parent="9pnh7lvO98Alzu9_AtAS-126" vertex="1">
          <mxGeometry y="114" width="189.99921198120373" height="38" as="geometry" />
        </mxCell>
        <mxCell id="9pnh7lvO98Alzu9_AtAS-147" value="" style="shape=partialRectangle;html=1;whiteSpace=wrap;connectable=0;strokeColor=inherit;overflow=hidden;fillColor=none;top=0;left=0;bottom=0;right=0;pointerEvents=1;" parent="9pnh7lvO98Alzu9_AtAS-146" vertex="1">
          <mxGeometry width="38" height="38" as="geometry">
            <mxRectangle width="38" height="38" as="alternateBounds" />
          </mxGeometry>
        </mxCell>
        <mxCell id="9pnh7lvO98Alzu9_AtAS-148" value="" style="shape=partialRectangle;html=1;whiteSpace=wrap;connectable=0;strokeColor=#d79b00;overflow=hidden;fillColor=#ffcd28;top=0;left=0;bottom=0;right=0;pointerEvents=1;fillStyle=auto;gradientColor=#ffa500;" parent="9pnh7lvO98Alzu9_AtAS-146" vertex="1">
          <mxGeometry x="38" width="38" height="38" as="geometry">
            <mxRectangle width="38" height="38" as="alternateBounds" />
          </mxGeometry>
        </mxCell>
        <mxCell id="9pnh7lvO98Alzu9_AtAS-149" value="" style="shape=partialRectangle;html=1;whiteSpace=wrap;connectable=0;strokeColor=inherit;overflow=hidden;fillColor=none;top=0;left=0;bottom=0;right=0;pointerEvents=1;" parent="9pnh7lvO98Alzu9_AtAS-146" vertex="1">
          <mxGeometry x="76" width="38" height="38" as="geometry">
            <mxRectangle width="38" height="38" as="alternateBounds" />
          </mxGeometry>
        </mxCell>
        <mxCell id="9pnh7lvO98Alzu9_AtAS-150" value="" style="shape=partialRectangle;html=1;whiteSpace=wrap;connectable=0;strokeColor=inherit;overflow=hidden;fillColor=none;top=0;left=0;bottom=0;right=0;pointerEvents=1;" parent="9pnh7lvO98Alzu9_AtAS-146" vertex="1">
          <mxGeometry x="114" width="38" height="38" as="geometry">
            <mxRectangle width="38" height="38" as="alternateBounds" />
          </mxGeometry>
        </mxCell>
        <mxCell id="9pnh7lvO98Alzu9_AtAS-151" value="" style="shape=partialRectangle;html=1;whiteSpace=wrap;connectable=0;strokeColor=inherit;overflow=hidden;fillColor=#999999;top=0;left=0;bottom=0;right=0;pointerEvents=1;" parent="9pnh7lvO98Alzu9_AtAS-146" vertex="1">
          <mxGeometry x="152" width="38" height="38" as="geometry">
            <mxRectangle width="38" height="38" as="alternateBounds" />
          </mxGeometry>
        </mxCell>
        <mxCell id="9pnh7lvO98Alzu9_AtAS-152" value="" style="shape=tableRow;horizontal=0;startSize=0;swimlaneHead=0;swimlaneBody=0;strokeColor=inherit;top=0;left=0;bottom=0;right=0;collapsible=0;dropTarget=0;fillColor=none;points=[[0,0.5],[1,0.5]];portConstraint=eastwest;" parent="9pnh7lvO98Alzu9_AtAS-126" vertex="1">
          <mxGeometry y="152" width="189.99921198120373" height="38" as="geometry" />
        </mxCell>
        <mxCell id="9pnh7lvO98Alzu9_AtAS-153" value="" style="shape=partialRectangle;html=1;whiteSpace=wrap;connectable=0;strokeColor=inherit;overflow=hidden;fillColor=none;top=0;left=0;bottom=0;right=0;pointerEvents=1;" parent="9pnh7lvO98Alzu9_AtAS-152" vertex="1">
          <mxGeometry width="38" height="38" as="geometry">
            <mxRectangle width="38" height="38" as="alternateBounds" />
          </mxGeometry>
        </mxCell>
        <mxCell id="9pnh7lvO98Alzu9_AtAS-154" value="" style="shape=partialRectangle;html=1;whiteSpace=wrap;connectable=0;strokeColor=inherit;overflow=hidden;fillColor=none;top=0;left=0;bottom=0;right=0;pointerEvents=1;" parent="9pnh7lvO98Alzu9_AtAS-152" vertex="1">
          <mxGeometry x="38" width="38" height="38" as="geometry">
            <mxRectangle width="38" height="38" as="alternateBounds" />
          </mxGeometry>
        </mxCell>
        <mxCell id="9pnh7lvO98Alzu9_AtAS-155" value="" style="shape=partialRectangle;html=1;whiteSpace=wrap;connectable=0;strokeColor=inherit;overflow=hidden;fillColor=none;top=0;left=0;bottom=0;right=0;pointerEvents=1;" parent="9pnh7lvO98Alzu9_AtAS-152" vertex="1">
          <mxGeometry x="76" width="38" height="38" as="geometry">
            <mxRectangle width="38" height="38" as="alternateBounds" />
          </mxGeometry>
        </mxCell>
        <mxCell id="9pnh7lvO98Alzu9_AtAS-156" value="" style="shape=partialRectangle;html=1;whiteSpace=wrap;connectable=0;strokeColor=inherit;overflow=hidden;fillColor=none;top=0;left=0;bottom=0;right=0;pointerEvents=1;" parent="9pnh7lvO98Alzu9_AtAS-152" vertex="1">
          <mxGeometry x="114" width="38" height="38" as="geometry">
            <mxRectangle width="38" height="38" as="alternateBounds" />
          </mxGeometry>
        </mxCell>
        <mxCell id="9pnh7lvO98Alzu9_AtAS-157" value="" style="shape=partialRectangle;html=1;whiteSpace=wrap;connectable=0;strokeColor=inherit;overflow=hidden;fillColor=none;top=0;left=0;bottom=0;right=0;pointerEvents=1;" parent="9pnh7lvO98Alzu9_AtAS-152" vertex="1">
          <mxGeometry x="152" width="38" height="38" as="geometry">
            <mxRectangle width="38" height="38" as="alternateBounds" />
          </mxGeometry>
        </mxCell>
        <mxCell id="9pnh7lvO98Alzu9_AtAS-158" value="" style="shape=partialRectangle;html=1;whiteSpace=wrap;connectable=0;strokeColor=#82b366;overflow=hidden;fillColor=#d5e8d4;top=0;left=0;bottom=0;right=0;pointerEvents=1;fillStyle=auto;gradientColor=#97d077;" parent="9pnh7lvO98Alzu9_AtAS-186" vertex="1">
          <mxGeometry x="152.00015760375925" width="37.99984239624073" height="38" as="geometry">
            <mxRectangle width="90" height="90" as="alternateBounds" />
          </mxGeometry>
        </mxCell>
        <mxCell id="9pnh7lvO98Alzu9_AtAS-168" value="" style="shape=waypoint;sketch=0;fillStyle=solid;size=6;pointerEvents=1;points=[];fillColor=#a20025;resizable=0;rotatable=0;perimeter=centerPerimeter;snapToPoint=1;fontColor=#ffffff;strokeColor=#6F0000;strokeWidth=3;" parent="9pnh7lvO98Alzu9_AtAS-186" vertex="1">
          <mxGeometry x="166.77708607238992" y="52.77777777777777" width="20" height="20" as="geometry" />
        </mxCell>
        <mxCell id="9pnh7lvO98Alzu9_AtAS-170" value="" style="shape=partialRectangle;html=1;whiteSpace=wrap;connectable=0;strokeColor=inherit;overflow=hidden;fillColor=#999999;top=0;left=0;bottom=0;right=0;pointerEvents=1;" parent="9pnh7lvO98Alzu9_AtAS-186" vertex="1">
          <mxGeometry x="75.99968479248146" y="76" width="37.99984239624073" height="38" as="geometry">
            <mxRectangle width="90" height="90" as="alternateBounds" />
          </mxGeometry>
        </mxCell>
        <mxCell id="9pnh7lvO98Alzu9_AtAS-171" value="" style="shape=partialRectangle;html=1;whiteSpace=wrap;connectable=0;strokeColor=inherit;overflow=hidden;fillColor=#999999;top=0;left=0;bottom=0;right=0;pointerEvents=1;" parent="9pnh7lvO98Alzu9_AtAS-186" vertex="1">
          <mxGeometry y="152" width="37.99984239624073" height="38" as="geometry">
            <mxRectangle width="90" height="90" as="alternateBounds" />
          </mxGeometry>
        </mxCell>
        <mxCell id="9pnh7lvO98Alzu9_AtAS-172" value="" style="shape=waypoint;sketch=0;fillStyle=auto;size=6;pointerEvents=1;points=[];fillColor=#a20025;resizable=0;rotatable=0;perimeter=centerPerimeter;snapToPoint=1;fontColor=#ffffff;strokeColor=#6F0000;strokeWidth=3;" parent="9pnh7lvO98Alzu9_AtAS-186" vertex="1">
          <mxGeometry x="52.77755888366769" y="90.77777777777773" width="20" height="20" as="geometry" />
        </mxCell>
        <mxCell id="9pnh7lvO98Alzu9_AtAS-173" style="edgeStyle=orthogonalEdgeStyle;rounded=0;orthogonalLoop=1;jettySize=auto;html=1;entryX=0.49;entryY=0.99;entryDx=0;entryDy=0;entryPerimeter=0;fillColor=#a20025;strokeColor=#6F0000;strokeWidth=3;exitX=0.559;exitY=0.159;exitDx=0;exitDy=0;exitPerimeter=0;" parent="9pnh7lvO98Alzu9_AtAS-186" source="9pnh7lvO98Alzu9_AtAS-181" target="9pnh7lvO98Alzu9_AtAS-172" edge="1">
          <mxGeometry relative="1" as="geometry">
            <mxPoint x="57.00002626729321" y="126.66666666666667" as="sourcePoint" />
          </mxGeometry>
        </mxCell>
        <mxCell id="9pnh7lvO98Alzu9_AtAS-174" value="" style="shape=waypoint;sketch=0;fillStyle=auto;size=6;pointerEvents=1;points=[];fillColor=#a20025;resizable=0;rotatable=0;perimeter=centerPerimeter;snapToPoint=1;fontColor=#ffffff;strokeColor=#6F0000;strokeWidth=3;" parent="9pnh7lvO98Alzu9_AtAS-186" vertex="1">
          <mxGeometry x="90.77740127990845" y="52.77777777777777" width="20" height="20" as="geometry" />
        </mxCell>
        <mxCell id="9pnh7lvO98Alzu9_AtAS-175" style="edgeStyle=orthogonalEdgeStyle;rounded=0;orthogonalLoop=1;jettySize=auto;html=1;fillColor=#a20025;strokeColor=#6F0000;strokeWidth=3;" parent="9pnh7lvO98Alzu9_AtAS-186" source="9pnh7lvO98Alzu9_AtAS-176" target="9pnh7lvO98Alzu9_AtAS-168" edge="1">
          <mxGeometry relative="1" as="geometry" />
        </mxCell>
        <mxCell id="9pnh7lvO98Alzu9_AtAS-176" value="" style="shape=waypoint;sketch=0;fillStyle=auto;size=6;pointerEvents=1;points=[];fillColor=#a20025;resizable=0;rotatable=0;perimeter=centerPerimeter;snapToPoint=1;fontColor=#ffffff;strokeColor=#6F0000;strokeWidth=3;" parent="9pnh7lvO98Alzu9_AtAS-186" vertex="1">
          <mxGeometry x="128.77724367614917" y="52.77777777777777" width="20" height="20" as="geometry" />
        </mxCell>
        <mxCell id="9pnh7lvO98Alzu9_AtAS-177" style="edgeStyle=orthogonalEdgeStyle;rounded=0;orthogonalLoop=1;jettySize=auto;html=1;entryX=0.29;entryY=0.61;entryDx=0;entryDy=0;entryPerimeter=0;fillColor=#a20025;strokeColor=#6F0000;strokeWidth=3;" parent="9pnh7lvO98Alzu9_AtAS-186" source="9pnh7lvO98Alzu9_AtAS-174" target="9pnh7lvO98Alzu9_AtAS-176" edge="1">
          <mxGeometry relative="1" as="geometry" />
        </mxCell>
        <mxCell id="9pnh7lvO98Alzu9_AtAS-178" value="" style="shape=waypoint;sketch=0;fillStyle=auto;size=6;pointerEvents=1;points=[];fillColor=#a20025;resizable=0;rotatable=0;perimeter=centerPerimeter;snapToPoint=1;fontColor=#ffffff;strokeColor=#6F0000;strokeWidth=3;" parent="9pnh7lvO98Alzu9_AtAS-186" vertex="1">
          <mxGeometry x="52.77755888366769" y="52.77777777777777" width="20" height="20" as="geometry" />
        </mxCell>
        <mxCell id="9pnh7lvO98Alzu9_AtAS-179" style="edgeStyle=orthogonalEdgeStyle;rounded=0;orthogonalLoop=1;jettySize=auto;html=1;entryX=0.65;entryY=0.93;entryDx=0;entryDy=0;entryPerimeter=0;fillColor=#a20025;strokeColor=#6F0000;strokeWidth=3;" parent="9pnh7lvO98Alzu9_AtAS-186" source="9pnh7lvO98Alzu9_AtAS-172" target="9pnh7lvO98Alzu9_AtAS-178" edge="1">
          <mxGeometry relative="1" as="geometry" />
        </mxCell>
        <mxCell id="9pnh7lvO98Alzu9_AtAS-180" style="edgeStyle=orthogonalEdgeStyle;rounded=0;orthogonalLoop=1;jettySize=auto;html=1;fillColor=#a20025;strokeColor=#6F0000;strokeWidth=3;" parent="9pnh7lvO98Alzu9_AtAS-186" source="9pnh7lvO98Alzu9_AtAS-178" target="9pnh7lvO98Alzu9_AtAS-174" edge="1">
          <mxGeometry relative="1" as="geometry" />
        </mxCell>
        <mxCell id="9pnh7lvO98Alzu9_AtAS-181" value="" style="shape=waypoint;sketch=0;fillStyle=solid;size=6;pointerEvents=1;points=[];fillColor=none;resizable=0;rotatable=0;perimeter=centerPerimeter;snapToPoint=1;" parent="9pnh7lvO98Alzu9_AtAS-186" vertex="1">
          <mxGeometry x="52.7765957495833" y="128.77657142857143" width="20" height="20" as="geometry" />
        </mxCell>
        <mxCell id="9pnh7lvO98Alzu9_AtAS-182" value="" style="shape=waypoint;sketch=0;fillStyle=solid;size=6;pointerEvents=1;points=[];fillColor=none;resizable=0;rotatable=0;perimeter=centerPerimeter;snapToPoint=1;" parent="9pnh7lvO98Alzu9_AtAS-186" vertex="1">
          <mxGeometry x="166.77664828416974" y="13.57142857142857" width="20" height="20" as="geometry" />
        </mxCell>
        <mxCell id="9pnh7lvO98Alzu9_AtAS-167" style="edgeStyle=orthogonalEdgeStyle;rounded=0;orthogonalLoop=1;jettySize=auto;html=1;fillColor=#1ba1e2;strokeColor=#6F0000;strokeWidth=3;" parent="9pnh7lvO98Alzu9_AtAS-186" source="9pnh7lvO98Alzu9_AtAS-168" target="9pnh7lvO98Alzu9_AtAS-182" edge="1">
          <mxGeometry relative="1" as="geometry">
            <mxPoint x="170.99929078308313" y="25.33333333333337" as="targetPoint" />
          </mxGeometry>
        </mxCell>
        <mxCell id="9pnh7lvO98Alzu9_AtAS-257" value="" style="endArrow=classic;html=1;rounded=0;entryX=-0.007;entryY=0.448;entryDx=0;entryDy=0;fillColor=#a20025;strokeColor=#6F0000;strokeWidth=3;entryPerimeter=0;" parent="1" edge="1" target="9pnh7lvO98Alzu9_AtAS-264">
          <mxGeometry width="50" height="50" relative="1" as="geometry">
            <mxPoint x="1050" y="243" as="sourcePoint" />
            <mxPoint x="1100" y="245" as="targetPoint" />
          </mxGeometry>
        </mxCell>
        <mxCell id="9pnh7lvO98Alzu9_AtAS-260" value="&lt;font style=&quot;font-size: 15px;&quot;&gt;Reward Function 1&lt;/font&gt;" style="rounded=1;whiteSpace=wrap;html=1;fontFamily=Comic Sans MS;fontSize=18;arcSize=26;strokeColor=#0000CC;strokeWidth=3;" parent="1" vertex="1">
          <mxGeometry x="1120" y="142.5" width="90" height="50" as="geometry" />
        </mxCell>
        <mxCell id="9pnh7lvO98Alzu9_AtAS-261" value="&lt;font style=&quot;font-size: 15px;&quot;&gt;Reward Function 2&lt;/font&gt;" style="rounded=1;whiteSpace=wrap;html=1;fontFamily=Comic Sans MS;fontSize=18;arcSize=26;strokeColor=#0000CC;strokeWidth=3;" parent="1" vertex="1">
          <mxGeometry x="1120" y="212.5" width="90" height="50" as="geometry" />
        </mxCell>
        <mxCell id="9pnh7lvO98Alzu9_AtAS-262" value="&lt;font style=&quot;font-size: 15px;&quot;&gt;Reward Function N&lt;/font&gt;" style="rounded=1;whiteSpace=wrap;html=1;fontFamily=Comic Sans MS;fontSize=18;arcSize=26;strokeColor=#0000CC;strokeWidth=3;" parent="1" vertex="1">
          <mxGeometry x="1120" y="312.5" width="90" height="50" as="geometry" />
        </mxCell>
        <mxCell id="9pnh7lvO98Alzu9_AtAS-263" value="" style="endArrow=none;dashed=1;html=1;dashPattern=1 3;strokeWidth=2;rounded=0;" parent="1" edge="1">
          <mxGeometry width="50" height="50" relative="1" as="geometry">
            <mxPoint x="1164.5" y="302.5" as="sourcePoint" />
            <mxPoint x="1164.5" y="272.5" as="targetPoint" />
          </mxGeometry>
        </mxCell>
        <mxCell id="9pnh7lvO98Alzu9_AtAS-274" value="Risk-averse trajectory" style="text;html=1;strokeColor=none;fillColor=none;align=center;verticalAlign=middle;whiteSpace=wrap;rounded=0;fontSize=18;" parent="1" vertex="1">
          <mxGeometry x="1480" y="222.5" width="100" height="30" as="geometry" />
        </mxCell>
        <mxCell id="9pnh7lvO98Alzu9_AtAS-276" value="&lt;font style=&quot;font-size: 18px;&quot;&gt;For each environment in the batch&lt;/font&gt;" style="rounded=0;whiteSpace=wrap;html=1;" parent="1" vertex="1">
          <mxGeometry x="1090" y="70" width="290" height="40" as="geometry" />
        </mxCell>
        <mxCell id="6OlYSJwfEh_4kxSTdlQh-1" value="" style="endArrow=classic;html=1;rounded=0;entryX=0;entryY=0.5;entryDx=0;entryDy=0;fillColor=#a20025;strokeColor=#6F0000;strokeWidth=3;" edge="1" parent="1" target="9pnh7lvO98Alzu9_AtAS-139">
          <mxGeometry width="50" height="50" relative="1" as="geometry">
            <mxPoint x="1220" y="245" as="sourcePoint" />
            <mxPoint x="1270" y="210" as="targetPoint" />
          </mxGeometry>
        </mxCell>
      </root>
    </mxGraphModel>
  </diagram>
</mxfile>
